%TF.GenerationSoftware,KiCad,Pcbnew,8.0.6*%
%TF.CreationDate,2024-11-25T12:43:08+08:00*%
%TF.ProjectId,UINIO-USB-UART-CP2102,55494e49-4f2d-4555-9342-2d554152542d,Version 5.0.0*%
%TF.SameCoordinates,PX8203930PY518daf8*%
%TF.FileFunction,Paste,Top*%
%TF.FilePolarity,Positive*%
%FSLAX46Y46*%
G04 Gerber Fmt 4.6, Leading zero omitted, Abs format (unit mm)*
G04 Created by KiCad (PCBNEW 8.0.6) date 2024-11-25 12:43:08*
%MOMM*%
%LPD*%
G01*
G04 APERTURE LIST*
G04 Aperture macros list*
%AMRoundRect*
0 Rectangle with rounded corners*
0 $1 Rounding radius*
0 $2 $3 $4 $5 $6 $7 $8 $9 X,Y pos of 4 corners*
0 Add a 4 corners polygon primitive as box body*
4,1,4,$2,$3,$4,$5,$6,$7,$8,$9,$2,$3,0*
0 Add four circle primitives for the rounded corners*
1,1,$1+$1,$2,$3*
1,1,$1+$1,$4,$5*
1,1,$1+$1,$6,$7*
1,1,$1+$1,$8,$9*
0 Add four rect primitives between the rounded corners*
20,1,$1+$1,$2,$3,$4,$5,0*
20,1,$1+$1,$4,$5,$6,$7,0*
20,1,$1+$1,$6,$7,$8,$9,0*
20,1,$1+$1,$8,$9,$2,$3,0*%
G04 Aperture macros list end*
%ADD10C,0.120000*%
%ADD11RoundRect,0.250000X0.375000X0.625000X-0.375000X0.625000X-0.375000X-0.625000X0.375000X-0.625000X0*%
%ADD12R,1.200000X1.200000*%
%ADD13RoundRect,0.140000X0.140000X0.170000X-0.140000X0.170000X-0.140000X-0.170000X0.140000X-0.170000X0*%
%ADD14RoundRect,0.150000X0.200000X-0.150000X0.200000X0.150000X-0.200000X0.150000X-0.200000X-0.150000X0*%
%ADD15RoundRect,0.150000X-0.200000X0.150000X-0.200000X-0.150000X0.200000X-0.150000X0.200000X0.150000X0*%
%ADD16RoundRect,0.200000X0.200000X0.275000X-0.200000X0.275000X-0.200000X-0.275000X0.200000X-0.275000X0*%
%ADD17RoundRect,0.218750X0.218750X0.256250X-0.218750X0.256250X-0.218750X-0.256250X0.218750X-0.256250X0*%
%ADD18R,1.150000X0.300000*%
%ADD19R,1.150000X0.600000*%
%ADD20R,3.350000X3.350000*%
%ADD21R,0.280000X0.905000*%
%ADD22R,0.905000X0.280000*%
%ADD23RoundRect,0.200000X-0.200000X-0.275000X0.200000X-0.275000X0.200000X0.275000X-0.200000X0.275000X0*%
G04 APERTURE END LIST*
D10*
%TO.C,USB2*%
X-953000Y-13985000D02*
X-859000Y-14013000D01*
X-773000Y-14059000D01*
X-697000Y-14121000D01*
X-635000Y-14197000D01*
X-588000Y-14284000D01*
X-560000Y-14377000D01*
X-550000Y-14475000D01*
X-560000Y-14573000D01*
X-588000Y-14666000D01*
X-635000Y-14753000D01*
X-697000Y-14829000D01*
X-773000Y-14891000D01*
X-859000Y-14937000D01*
X-953000Y-14965000D01*
X-1050000Y-14975000D01*
X-1950000Y-14975000D01*
X-2048000Y-14965000D01*
X-2142000Y-14937000D01*
X-2228000Y-14891000D01*
X-2304000Y-14829000D01*
X-2366000Y-14753000D01*
X-2412000Y-14666000D01*
X-2441000Y-14573000D01*
X-2450000Y-14475000D01*
X-2441000Y-14377000D01*
X-2412000Y-14284000D01*
X-2366000Y-14197000D01*
X-2304000Y-14121000D01*
X-2228000Y-14059000D01*
X-2142000Y-14013000D01*
X-2048000Y-13985000D01*
X-1950000Y-13975000D01*
X-1050000Y-13975000D01*
X-953000Y-13985000D01*
G36*
X-953000Y-13985000D02*
G01*
X-859000Y-14013000D01*
X-773000Y-14059000D01*
X-697000Y-14121000D01*
X-635000Y-14197000D01*
X-588000Y-14284000D01*
X-560000Y-14377000D01*
X-550000Y-14475000D01*
X-560000Y-14573000D01*
X-588000Y-14666000D01*
X-635000Y-14753000D01*
X-697000Y-14829000D01*
X-773000Y-14891000D01*
X-859000Y-14937000D01*
X-953000Y-14965000D01*
X-1050000Y-14975000D01*
X-1950000Y-14975000D01*
X-2048000Y-14965000D01*
X-2142000Y-14937000D01*
X-2228000Y-14891000D01*
X-2304000Y-14829000D01*
X-2366000Y-14753000D01*
X-2412000Y-14666000D01*
X-2441000Y-14573000D01*
X-2450000Y-14475000D01*
X-2441000Y-14377000D01*
X-2412000Y-14284000D01*
X-2366000Y-14197000D01*
X-2304000Y-14121000D01*
X-2228000Y-14059000D01*
X-2142000Y-14013000D01*
X-2048000Y-13985000D01*
X-1950000Y-13975000D01*
X-1050000Y-13975000D01*
X-953000Y-13985000D01*
G37*
X3347000Y-13985000D02*
X3441000Y-14013000D01*
X3527000Y-14059000D01*
X3603000Y-14121000D01*
X3665000Y-14197000D01*
X3712000Y-14284000D01*
X3740000Y-14377000D01*
X3750000Y-14475000D01*
X3740000Y-14573000D01*
X3712000Y-14666000D01*
X3665000Y-14753000D01*
X3603000Y-14829000D01*
X3527000Y-14891000D01*
X3441000Y-14937000D01*
X3347000Y-14965000D01*
X3250000Y-14975000D01*
X2150000Y-14975000D01*
X2052000Y-14965000D01*
X1958000Y-14937000D01*
X1872000Y-14891000D01*
X1796000Y-14829000D01*
X1734000Y-14753000D01*
X1688000Y-14666000D01*
X1659000Y-14573000D01*
X1650000Y-14475000D01*
X1659000Y-14377000D01*
X1688000Y-14284000D01*
X1734000Y-14197000D01*
X1796000Y-14121000D01*
X1872000Y-14059000D01*
X1958000Y-14013000D01*
X2052000Y-13985000D01*
X2150000Y-13975000D01*
X3250000Y-13975000D01*
X3347000Y-13985000D01*
G36*
X3347000Y-13985000D02*
G01*
X3441000Y-14013000D01*
X3527000Y-14059000D01*
X3603000Y-14121000D01*
X3665000Y-14197000D01*
X3712000Y-14284000D01*
X3740000Y-14377000D01*
X3750000Y-14475000D01*
X3740000Y-14573000D01*
X3712000Y-14666000D01*
X3665000Y-14753000D01*
X3603000Y-14829000D01*
X3527000Y-14891000D01*
X3441000Y-14937000D01*
X3347000Y-14965000D01*
X3250000Y-14975000D01*
X2150000Y-14975000D01*
X2052000Y-14965000D01*
X1958000Y-14937000D01*
X1872000Y-14891000D01*
X1796000Y-14829000D01*
X1734000Y-14753000D01*
X1688000Y-14666000D01*
X1659000Y-14573000D01*
X1650000Y-14475000D01*
X1659000Y-14377000D01*
X1688000Y-14284000D01*
X1734000Y-14197000D01*
X1796000Y-14121000D01*
X1872000Y-14059000D01*
X1958000Y-14013000D01*
X2052000Y-13985000D01*
X2150000Y-13975000D01*
X3250000Y-13975000D01*
X3347000Y-13985000D01*
G37*
X-953000Y-5335000D02*
X-859000Y-5363000D01*
X-773000Y-5409000D01*
X-697000Y-5471000D01*
X-635000Y-5547000D01*
X-588000Y-5634000D01*
X-560000Y-5727000D01*
X-550000Y-5825000D01*
X-560000Y-5923000D01*
X-588000Y-6016000D01*
X-635000Y-6103000D01*
X-697000Y-6179000D01*
X-773000Y-6241000D01*
X-859000Y-6287000D01*
X-953000Y-6315000D01*
X-1050000Y-6325000D01*
X-1950000Y-6325000D01*
X-2048000Y-6315000D01*
X-2142000Y-6287000D01*
X-2228000Y-6241000D01*
X-2304000Y-6179000D01*
X-2366000Y-6103000D01*
X-2412000Y-6016000D01*
X-2441000Y-5923000D01*
X-2450000Y-5825000D01*
X-2441000Y-5727000D01*
X-2412000Y-5634000D01*
X-2366000Y-5547000D01*
X-2304000Y-5471000D01*
X-2228000Y-5409000D01*
X-2142000Y-5363000D01*
X-2048000Y-5335000D01*
X-1950000Y-5325000D01*
X-1050000Y-5325000D01*
X-953000Y-5335000D01*
G36*
X-953000Y-5335000D02*
G01*
X-859000Y-5363000D01*
X-773000Y-5409000D01*
X-697000Y-5471000D01*
X-635000Y-5547000D01*
X-588000Y-5634000D01*
X-560000Y-5727000D01*
X-550000Y-5825000D01*
X-560000Y-5923000D01*
X-588000Y-6016000D01*
X-635000Y-6103000D01*
X-697000Y-6179000D01*
X-773000Y-6241000D01*
X-859000Y-6287000D01*
X-953000Y-6315000D01*
X-1050000Y-6325000D01*
X-1950000Y-6325000D01*
X-2048000Y-6315000D01*
X-2142000Y-6287000D01*
X-2228000Y-6241000D01*
X-2304000Y-6179000D01*
X-2366000Y-6103000D01*
X-2412000Y-6016000D01*
X-2441000Y-5923000D01*
X-2450000Y-5825000D01*
X-2441000Y-5727000D01*
X-2412000Y-5634000D01*
X-2366000Y-5547000D01*
X-2304000Y-5471000D01*
X-2228000Y-5409000D01*
X-2142000Y-5363000D01*
X-2048000Y-5335000D01*
X-1950000Y-5325000D01*
X-1050000Y-5325000D01*
X-953000Y-5335000D01*
G37*
X3347000Y-5335000D02*
X3441000Y-5363000D01*
X3527000Y-5409000D01*
X3603000Y-5471000D01*
X3665000Y-5547000D01*
X3712000Y-5634000D01*
X3740000Y-5727000D01*
X3750000Y-5825000D01*
X3740000Y-5923000D01*
X3712000Y-6016000D01*
X3665000Y-6103000D01*
X3603000Y-6179000D01*
X3527000Y-6241000D01*
X3441000Y-6287000D01*
X3347000Y-6315000D01*
X3250000Y-6325000D01*
X2150000Y-6325000D01*
X2052000Y-6315000D01*
X1958000Y-6287000D01*
X1872000Y-6241000D01*
X1796000Y-6179000D01*
X1734000Y-6103000D01*
X1688000Y-6016000D01*
X1659000Y-5923000D01*
X1650000Y-5825000D01*
X1659000Y-5727000D01*
X1688000Y-5634000D01*
X1734000Y-5547000D01*
X1796000Y-5471000D01*
X1872000Y-5409000D01*
X1958000Y-5363000D01*
X2052000Y-5335000D01*
X2150000Y-5325000D01*
X3250000Y-5325000D01*
X3347000Y-5335000D01*
G36*
X3347000Y-5335000D02*
G01*
X3441000Y-5363000D01*
X3527000Y-5409000D01*
X3603000Y-5471000D01*
X3665000Y-5547000D01*
X3712000Y-5634000D01*
X3740000Y-5727000D01*
X3750000Y-5825000D01*
X3740000Y-5923000D01*
X3712000Y-6016000D01*
X3665000Y-6103000D01*
X3603000Y-6179000D01*
X3527000Y-6241000D01*
X3441000Y-6287000D01*
X3347000Y-6315000D01*
X3250000Y-6325000D01*
X2150000Y-6325000D01*
X2052000Y-6315000D01*
X1958000Y-6287000D01*
X1872000Y-6241000D01*
X1796000Y-6179000D01*
X1734000Y-6103000D01*
X1688000Y-6016000D01*
X1659000Y-5923000D01*
X1650000Y-5825000D01*
X1659000Y-5727000D01*
X1688000Y-5634000D01*
X1734000Y-5547000D01*
X1796000Y-5471000D01*
X1872000Y-5409000D01*
X1958000Y-5363000D01*
X2052000Y-5335000D01*
X2150000Y-5325000D01*
X3250000Y-5325000D01*
X3347000Y-5335000D01*
G37*
X4037000Y-13650000D02*
X2887000Y-13650000D01*
X2887000Y-13050000D01*
X4037000Y-13050000D01*
X4037000Y-13650000D01*
G36*
X4037000Y-13650000D02*
G01*
X2887000Y-13650000D01*
X2887000Y-13050000D01*
X4037000Y-13050000D01*
X4037000Y-13650000D01*
G37*
X4037000Y-12850000D02*
X2887000Y-12850000D01*
X2887000Y-12250000D01*
X4037000Y-12250000D01*
X4037000Y-12850000D01*
G36*
X4037000Y-12850000D02*
G01*
X2887000Y-12850000D01*
X2887000Y-12250000D01*
X4037000Y-12250000D01*
X4037000Y-12850000D01*
G37*
X4037000Y-12050000D02*
X2887000Y-12050000D01*
X2887000Y-11750000D01*
X4037000Y-11750000D01*
X4037000Y-12050000D01*
G36*
X4037000Y-12050000D02*
G01*
X2887000Y-12050000D01*
X2887000Y-11750000D01*
X4037000Y-11750000D01*
X4037000Y-12050000D01*
G37*
X4037000Y-11550000D02*
X2887000Y-11550000D01*
X2887000Y-11250000D01*
X4037000Y-11250000D01*
X4037000Y-11550000D01*
G36*
X4037000Y-11550000D02*
G01*
X2887000Y-11550000D01*
X2887000Y-11250000D01*
X4037000Y-11250000D01*
X4037000Y-11550000D01*
G37*
X4037000Y-11050000D02*
X2887000Y-11050000D01*
X2887000Y-10750000D01*
X4037000Y-10750000D01*
X4037000Y-11050000D01*
G36*
X4037000Y-11050000D02*
G01*
X2887000Y-11050000D01*
X2887000Y-10750000D01*
X4037000Y-10750000D01*
X4037000Y-11050000D01*
G37*
X4037000Y-10550000D02*
X2887000Y-10550000D01*
X2887000Y-10250000D01*
X4037000Y-10250000D01*
X4037000Y-10550000D01*
G36*
X4037000Y-10550000D02*
G01*
X2887000Y-10550000D01*
X2887000Y-10250000D01*
X4037000Y-10250000D01*
X4037000Y-10550000D01*
G37*
X4037000Y-10050000D02*
X2887000Y-10050000D01*
X2887000Y-9750000D01*
X4037000Y-9750000D01*
X4037000Y-10050000D01*
G36*
X4037000Y-10050000D02*
G01*
X2887000Y-10050000D01*
X2887000Y-9750000D01*
X4037000Y-9750000D01*
X4037000Y-10050000D01*
G37*
X4037000Y-9550000D02*
X2887000Y-9550000D01*
X2887000Y-9250000D01*
X4037000Y-9250000D01*
X4037000Y-9550000D01*
G36*
X4037000Y-9550000D02*
G01*
X2887000Y-9550000D01*
X2887000Y-9250000D01*
X4037000Y-9250000D01*
X4037000Y-9550000D01*
G37*
X4037000Y-9050000D02*
X2887000Y-9050000D01*
X2887000Y-8750000D01*
X4037000Y-8750000D01*
X4037000Y-9050000D01*
G36*
X4037000Y-9050000D02*
G01*
X2887000Y-9050000D01*
X2887000Y-8750000D01*
X4037000Y-8750000D01*
X4037000Y-9050000D01*
G37*
X4037000Y-8550000D02*
X2887000Y-8550000D01*
X2887000Y-8250000D01*
X4037000Y-8250000D01*
X4037000Y-8550000D01*
G36*
X4037000Y-8550000D02*
G01*
X2887000Y-8550000D01*
X2887000Y-8250000D01*
X4037000Y-8250000D01*
X4037000Y-8550000D01*
G37*
X4037000Y-8050000D02*
X2887000Y-8050000D01*
X2887000Y-7450000D01*
X4037000Y-7450000D01*
X4037000Y-8050000D01*
G36*
X4037000Y-8050000D02*
G01*
X2887000Y-8050000D01*
X2887000Y-7450000D01*
X4037000Y-7450000D01*
X4037000Y-8050000D01*
G37*
X4037000Y-7250000D02*
X2887000Y-7250000D01*
X2887000Y-6650000D01*
X4037000Y-6650000D01*
X4037000Y-7250000D01*
G36*
X4037000Y-7250000D02*
G01*
X2887000Y-7250000D01*
X2887000Y-6650000D01*
X4037000Y-6650000D01*
X4037000Y-7250000D01*
G37*
%TO.C,U1*%
X17985680Y-11790000D02*
X17080680Y-11790000D01*
X17080680Y-11510000D01*
X17985680Y-11510000D01*
X17985680Y-11790000D01*
G36*
X17985680Y-11790000D02*
G01*
X17080680Y-11790000D01*
X17080680Y-11510000D01*
X17985680Y-11510000D01*
X17985680Y-11790000D01*
G37*
X17985680Y-11290000D02*
X17080680Y-11290000D01*
X17080680Y-11010000D01*
X17985680Y-11010000D01*
X17985680Y-11290000D01*
G36*
X17985680Y-11290000D02*
G01*
X17080680Y-11290000D01*
X17080680Y-11010000D01*
X17985680Y-11010000D01*
X17985680Y-11290000D01*
G37*
X17985680Y-10790000D02*
X17080680Y-10790000D01*
X17080680Y-10510000D01*
X17985680Y-10510000D01*
X17985680Y-10790000D01*
G36*
X17985680Y-10790000D02*
G01*
X17080680Y-10790000D01*
X17080680Y-10510000D01*
X17985680Y-10510000D01*
X17985680Y-10790000D01*
G37*
X17985680Y-10290000D02*
X17080680Y-10290000D01*
X17080680Y-10010000D01*
X17985680Y-10010000D01*
X17985680Y-10290000D01*
G36*
X17985680Y-10290000D02*
G01*
X17080680Y-10290000D01*
X17080680Y-10010000D01*
X17985680Y-10010000D01*
X17985680Y-10290000D01*
G37*
X17985680Y-9790000D02*
X17080680Y-9790000D01*
X17080680Y-9510000D01*
X17985680Y-9510000D01*
X17985680Y-9790000D01*
G36*
X17985680Y-9790000D02*
G01*
X17080680Y-9790000D01*
X17080680Y-9510000D01*
X17985680Y-9510000D01*
X17985680Y-9790000D01*
G37*
X17985680Y-9290000D02*
X17080680Y-9290000D01*
X17080680Y-9010000D01*
X17985680Y-9010000D01*
X17985680Y-9290000D01*
G36*
X17985680Y-9290000D02*
G01*
X17080680Y-9290000D01*
X17080680Y-9010000D01*
X17985680Y-9010000D01*
X17985680Y-9290000D01*
G37*
X17985680Y-8790000D02*
X17080680Y-8790000D01*
X17080680Y-8510000D01*
X17985680Y-8510000D01*
X17985680Y-8790000D01*
G36*
X17985680Y-8790000D02*
G01*
X17080680Y-8790000D01*
X17080680Y-8510000D01*
X17985680Y-8510000D01*
X17985680Y-8790000D01*
G37*
X16795680Y-12980000D02*
X16515680Y-12980000D01*
X16515680Y-12075000D01*
X16795680Y-12075000D01*
X16795680Y-12980000D01*
G36*
X16795680Y-12980000D02*
G01*
X16515680Y-12980000D01*
X16515680Y-12075000D01*
X16795680Y-12075000D01*
X16795680Y-12980000D01*
G37*
X16795680Y-8225000D02*
X16515680Y-8225000D01*
X16515680Y-7320000D01*
X16795680Y-7320000D01*
X16795680Y-8225000D01*
G36*
X16795680Y-8225000D02*
G01*
X16515680Y-8225000D01*
X16515680Y-7320000D01*
X16795680Y-7320000D01*
X16795680Y-8225000D01*
G37*
X16295680Y-12980000D02*
X16015680Y-12980000D01*
X16015680Y-12075000D01*
X16295680Y-12075000D01*
X16295680Y-12980000D01*
G36*
X16295680Y-12980000D02*
G01*
X16015680Y-12980000D01*
X16015680Y-12075000D01*
X16295680Y-12075000D01*
X16295680Y-12980000D01*
G37*
X16295680Y-8225000D02*
X16015680Y-8225000D01*
X16015680Y-7320000D01*
X16295680Y-7320000D01*
X16295680Y-8225000D01*
G36*
X16295680Y-8225000D02*
G01*
X16015680Y-8225000D01*
X16015680Y-7320000D01*
X16295680Y-7320000D01*
X16295680Y-8225000D01*
G37*
X15795680Y-12980000D02*
X15515680Y-12980000D01*
X15515680Y-12075000D01*
X15795680Y-12075000D01*
X15795680Y-12980000D01*
G36*
X15795680Y-12980000D02*
G01*
X15515680Y-12980000D01*
X15515680Y-12075000D01*
X15795680Y-12075000D01*
X15795680Y-12980000D01*
G37*
X15795680Y-8225000D02*
X15515680Y-8225000D01*
X15515680Y-7320000D01*
X15795680Y-7320000D01*
X15795680Y-8225000D01*
G36*
X15795680Y-8225000D02*
G01*
X15515680Y-8225000D01*
X15515680Y-7320000D01*
X15795680Y-7320000D01*
X15795680Y-8225000D01*
G37*
X15295680Y-12980000D02*
X15015680Y-12980000D01*
X15015680Y-12075000D01*
X15295680Y-12075000D01*
X15295680Y-12980000D01*
G36*
X15295680Y-12980000D02*
G01*
X15015680Y-12980000D01*
X15015680Y-12075000D01*
X15295680Y-12075000D01*
X15295680Y-12980000D01*
G37*
X15295680Y-8225000D02*
X15015680Y-8225000D01*
X15015680Y-7320000D01*
X15295680Y-7320000D01*
X15295680Y-8225000D01*
G36*
X15295680Y-8225000D02*
G01*
X15015680Y-8225000D01*
X15015680Y-7320000D01*
X15295680Y-7320000D01*
X15295680Y-8225000D01*
G37*
X14795680Y-12980000D02*
X14515680Y-12980000D01*
X14515680Y-12075000D01*
X14795680Y-12075000D01*
X14795680Y-12980000D01*
G36*
X14795680Y-12980000D02*
G01*
X14515680Y-12980000D01*
X14515680Y-12075000D01*
X14795680Y-12075000D01*
X14795680Y-12980000D01*
G37*
X14795680Y-8225000D02*
X14515680Y-8225000D01*
X14515680Y-7320000D01*
X14795680Y-7320000D01*
X14795680Y-8225000D01*
G36*
X14795680Y-8225000D02*
G01*
X14515680Y-8225000D01*
X14515680Y-7320000D01*
X14795680Y-7320000D01*
X14795680Y-8225000D01*
G37*
X14295680Y-12980000D02*
X14015680Y-12980000D01*
X14015680Y-12075000D01*
X14295680Y-12075000D01*
X14295680Y-12980000D01*
G36*
X14295680Y-12980000D02*
G01*
X14015680Y-12980000D01*
X14015680Y-12075000D01*
X14295680Y-12075000D01*
X14295680Y-12980000D01*
G37*
X14295680Y-8225000D02*
X14015680Y-8225000D01*
X14015680Y-7320000D01*
X14295680Y-7320000D01*
X14295680Y-8225000D01*
G36*
X14295680Y-8225000D02*
G01*
X14015680Y-8225000D01*
X14015680Y-7320000D01*
X14295680Y-7320000D01*
X14295680Y-8225000D01*
G37*
X16505680Y-11500000D02*
X13805680Y-11500000D01*
X13805680Y-8800000D01*
X16505680Y-8800000D01*
X16505680Y-11500000D01*
G36*
X16505680Y-11500000D02*
G01*
X13805680Y-11500000D01*
X13805680Y-8800000D01*
X16505680Y-8800000D01*
X16505680Y-11500000D01*
G37*
X13795680Y-12980000D02*
X13515680Y-12980000D01*
X13515680Y-12075000D01*
X13795680Y-12075000D01*
X13795680Y-12980000D01*
G36*
X13795680Y-12980000D02*
G01*
X13515680Y-12980000D01*
X13515680Y-12075000D01*
X13795680Y-12075000D01*
X13795680Y-12980000D01*
G37*
X13795680Y-8225000D02*
X13515680Y-8225000D01*
X13515680Y-7320000D01*
X13795680Y-7320000D01*
X13795680Y-8225000D01*
G36*
X13795680Y-8225000D02*
G01*
X13515680Y-8225000D01*
X13515680Y-7320000D01*
X13795680Y-7320000D01*
X13795680Y-8225000D01*
G37*
X13230680Y-11790000D02*
X12325680Y-11790000D01*
X12325680Y-11510000D01*
X13230680Y-11510000D01*
X13230680Y-11790000D01*
G36*
X13230680Y-11790000D02*
G01*
X12325680Y-11790000D01*
X12325680Y-11510000D01*
X13230680Y-11510000D01*
X13230680Y-11790000D01*
G37*
X13230680Y-11290000D02*
X12325680Y-11290000D01*
X12325680Y-11010000D01*
X13230680Y-11010000D01*
X13230680Y-11290000D01*
G36*
X13230680Y-11290000D02*
G01*
X12325680Y-11290000D01*
X12325680Y-11010000D01*
X13230680Y-11010000D01*
X13230680Y-11290000D01*
G37*
X13230680Y-10790000D02*
X12325680Y-10790000D01*
X12325680Y-10510000D01*
X13230680Y-10510000D01*
X13230680Y-10790000D01*
G36*
X13230680Y-10790000D02*
G01*
X12325680Y-10790000D01*
X12325680Y-10510000D01*
X13230680Y-10510000D01*
X13230680Y-10790000D01*
G37*
X13230680Y-10290000D02*
X12325680Y-10290000D01*
X12325680Y-10010000D01*
X13230680Y-10010000D01*
X13230680Y-10290000D01*
G36*
X13230680Y-10290000D02*
G01*
X12325680Y-10290000D01*
X12325680Y-10010000D01*
X13230680Y-10010000D01*
X13230680Y-10290000D01*
G37*
X13230680Y-9790000D02*
X12325680Y-9790000D01*
X12325680Y-9510000D01*
X13230680Y-9510000D01*
X13230680Y-9790000D01*
G36*
X13230680Y-9790000D02*
G01*
X12325680Y-9790000D01*
X12325680Y-9510000D01*
X13230680Y-9510000D01*
X13230680Y-9790000D01*
G37*
X13230680Y-9290000D02*
X12325680Y-9290000D01*
X12325680Y-9010000D01*
X13230680Y-9010000D01*
X13230680Y-9290000D01*
G36*
X13230680Y-9290000D02*
G01*
X12325680Y-9290000D01*
X12325680Y-9010000D01*
X13230680Y-9010000D01*
X13230680Y-9290000D01*
G37*
X13230680Y-8790000D02*
X12325680Y-8790000D01*
X12325680Y-8510000D01*
X13230680Y-8510000D01*
X13230680Y-8790000D01*
G36*
X13230680Y-8790000D02*
G01*
X12325680Y-8790000D01*
X12325680Y-8510000D01*
X13230680Y-8510000D01*
X13230680Y-8790000D01*
G37*
%TD*%
D11*
%TO.C,F1*%
X3820000Y-16420000D03*
X6620000Y-16420000D03*
%TD*%
D12*
%TO.C,D6*%
X6595000Y-18640000D03*
X3795000Y-18640000D03*
%TD*%
D13*
%TO.C,C4*%
X10240000Y-11150000D03*
X9280000Y-11150000D03*
%TD*%
%TO.C,C3*%
X9280000Y-12180000D03*
X10240000Y-12180000D03*
%TD*%
%TO.C,C2*%
X9280000Y-14410000D03*
X10240000Y-14410000D03*
%TD*%
%TO.C,C1*%
X9280000Y-13370000D03*
X10240000Y-13370000D03*
%TD*%
D14*
%TO.C,D5*%
X7630000Y-8320000D03*
X7630000Y-9720000D03*
%TD*%
D15*
%TO.C,D1*%
X7630000Y-11980000D03*
X7630000Y-10580000D03*
%TD*%
D16*
%TO.C,R8*%
X9125000Y-6360000D03*
X7475000Y-6360000D03*
%TD*%
%TO.C,R7*%
X9115000Y-4900000D03*
X7465000Y-4900000D03*
%TD*%
D17*
%TO.C,D2*%
X21182500Y-13920000D03*
X22757500Y-13920000D03*
%TD*%
D18*
%TO.C,USB2*%
X3462000Y-8400000D03*
X3462000Y-9400000D03*
X3462000Y-10900000D03*
X3462000Y-11900000D03*
D19*
X3462000Y-12550000D03*
X3462000Y-13350000D03*
D18*
X3462000Y-11400000D03*
X3462000Y-10400000D03*
X3462000Y-9900000D03*
X3462000Y-8900000D03*
D19*
X3462000Y-7750000D03*
X3462000Y-6950000D03*
%TD*%
D20*
%TO.C,U1*%
X15155680Y-10150000D03*
D21*
X13655680Y-7773000D03*
X14155680Y-7773000D03*
X14655680Y-7773000D03*
X15155680Y-7773000D03*
X15655680Y-7773000D03*
X16155680Y-7773000D03*
X16655680Y-7773000D03*
D22*
X17532680Y-8650000D03*
X17532680Y-9150000D03*
X17532680Y-9650000D03*
X17532680Y-10150000D03*
X17532680Y-10650000D03*
X17532680Y-11150000D03*
X17532680Y-11650000D03*
D21*
X16655680Y-12527000D03*
X16155680Y-12527000D03*
X15655680Y-12527000D03*
X15155680Y-12527000D03*
X14655680Y-12527000D03*
X14155680Y-12527000D03*
X13655680Y-12527000D03*
D22*
X12778680Y-11650000D03*
X12778680Y-11150000D03*
X12778680Y-10650000D03*
X12778680Y-10150000D03*
X12778680Y-9650000D03*
X12778680Y-9150000D03*
X12778680Y-8650000D03*
%TD*%
D23*
%TO.C,R4*%
X3595000Y-3010000D03*
X5245000Y-3010000D03*
%TD*%
%TO.C,R3*%
X21145000Y-7850000D03*
X22795000Y-7850000D03*
%TD*%
D17*
%TO.C,D3*%
X21182500Y-6390000D03*
X22757500Y-6390000D03*
%TD*%
%TO.C,D4*%
X3632500Y-1545000D03*
X5207500Y-1545000D03*
%TD*%
D23*
%TO.C,R2*%
X22795000Y-12370000D03*
X21145000Y-12370000D03*
%TD*%
M02*
