%TF.GenerationSoftware,KiCad,Pcbnew,8.0.6*%
%TF.CreationDate,2024-11-25T12:43:08+08:00*%
%TF.ProjectId,UINIO-USB-UART-CP2102,55494e49-4f2d-4555-9342-2d554152542d,Version 5.0.0*%
%TF.SameCoordinates,PX8203930PY518daf8*%
%TF.FileFunction,Legend,Top*%
%TF.FilePolarity,Positive*%
%FSLAX46Y46*%
G04 Gerber Fmt 4.6, Leading zero omitted, Abs format (unit mm)*
G04 Created by KiCad (PCBNEW 8.0.6) date 2024-11-25 12:43:08*
%MOMM*%
%LPD*%
G01*
G04 APERTURE LIST*
G04 Aperture macros list*
%AMRoundRect*
0 Rectangle with rounded corners*
0 $1 Rounding radius*
0 $2 $3 $4 $5 $6 $7 $8 $9 X,Y pos of 4 corners*
0 Add a 4 corners polygon primitive as box body*
4,1,4,$2,$3,$4,$5,$6,$7,$8,$9,$2,$3,0*
0 Add four circle primitives for the rounded corners*
1,1,$1+$1,$2,$3*
1,1,$1+$1,$4,$5*
1,1,$1+$1,$6,$7*
1,1,$1+$1,$8,$9*
0 Add four rect primitives between the rounded corners*
20,1,$1+$1,$2,$3,$4,$5,0*
20,1,$1+$1,$4,$5,$6,$7,0*
20,1,$1+$1,$6,$7,$8,$9,0*
20,1,$1+$1,$8,$9,$2,$3,0*%
G04 Aperture macros list end*
%ADD10C,0.160000*%
%ADD11C,0.100000*%
%ADD12C,0.140000*%
%ADD13C,0.300000*%
%ADD14C,0.150000*%
%ADD15C,0.120000*%
%ADD16C,0.254000*%
%ADD17C,0.152000*%
%ADD18RoundRect,0.250000X0.375000X0.625000X-0.375000X0.625000X-0.375000X-0.625000X0.375000X-0.625000X0*%
%ADD19R,1.200000X1.200000*%
%ADD20RoundRect,0.140000X0.140000X0.170000X-0.140000X0.170000X-0.140000X-0.170000X0.140000X-0.170000X0*%
%ADD21RoundRect,0.150000X0.200000X-0.150000X0.200000X0.150000X-0.200000X0.150000X-0.200000X-0.150000X0*%
%ADD22RoundRect,0.150000X-0.200000X0.150000X-0.200000X-0.150000X0.200000X-0.150000X0.200000X0.150000X0*%
%ADD23C,2.200000*%
%ADD24RoundRect,0.200000X0.200000X0.275000X-0.200000X0.275000X-0.200000X-0.275000X0.200000X-0.275000X0*%
%ADD25RoundRect,0.218750X0.218750X0.256250X-0.218750X0.256250X-0.218750X-0.256250X0.218750X-0.256250X0*%
%ADD26R,1.150000X0.300000*%
%ADD27R,1.150000X0.600000*%
%ADD28O,1.900000X1.000000*%
%ADD29O,2.100000X1.000000*%
%ADD30C,0.650000*%
%ADD31R,3.350000X3.350000*%
%ADD32R,0.280000X0.905000*%
%ADD33R,0.905000X0.280000*%
%ADD34O,1.700000X1.700000*%
%ADD35R,1.700000X1.700000*%
%ADD36RoundRect,0.200000X-0.200000X-0.275000X0.200000X-0.275000X0.200000X0.275000X-0.200000X0.275000X0*%
G04 APERTURE END LIST*
D10*
G36*
X19610320Y-13536514D02*
G01*
X19658177Y-13548995D01*
X19698715Y-13578213D01*
X19716133Y-13601660D01*
X19733823Y-13649139D01*
X19738527Y-13698381D01*
X19738527Y-13864710D01*
X19436399Y-13864710D01*
X19436399Y-13699113D01*
X19437833Y-13669401D01*
X19449304Y-13619094D01*
X19477187Y-13575771D01*
X19493556Y-13562075D01*
X19540099Y-13541138D01*
X19589295Y-13535471D01*
X19610320Y-13536514D01*
G37*
G36*
X20381111Y-14181718D02*
G01*
X19158470Y-14181718D01*
X19158470Y-13699113D01*
X19269581Y-13699113D01*
X19269581Y-14070607D01*
X20270000Y-14070607D01*
X20270000Y-13864710D01*
X19905345Y-13864710D01*
X19905345Y-13700334D01*
X20270000Y-13513000D01*
X20270000Y-13291716D01*
X20260474Y-13291716D01*
X19853077Y-13508115D01*
X19845228Y-13491620D01*
X19818719Y-13446978D01*
X19784053Y-13405896D01*
X19743900Y-13373782D01*
X19721624Y-13361046D01*
X19672098Y-13342050D01*
X19621855Y-13332337D01*
X19572686Y-13329574D01*
X19529099Y-13331923D01*
X19481014Y-13340945D01*
X19430731Y-13360022D01*
X19386713Y-13388309D01*
X19348960Y-13425806D01*
X19334774Y-13444518D01*
X19307100Y-13493740D01*
X19289426Y-13542126D01*
X19277333Y-13596231D01*
X19271519Y-13645686D01*
X19269581Y-13699113D01*
X19158470Y-13699113D01*
X19158470Y-12395345D01*
X19269581Y-12395345D01*
X19269581Y-12632260D01*
X19614452Y-12819839D01*
X19269581Y-13007418D01*
X19269581Y-13244333D01*
X19765638Y-12953196D01*
X20270000Y-13251905D01*
X20270000Y-13012302D01*
X19919511Y-12819839D01*
X20270000Y-12627620D01*
X20270000Y-12387773D01*
X19765638Y-12686482D01*
X19269581Y-12395345D01*
X19158470Y-12395345D01*
X19158470Y-12276662D01*
X20381111Y-12276662D01*
X20381111Y-14181718D01*
G37*
G36*
X20381111Y-8143511D02*
G01*
X19158470Y-8143511D01*
X19158470Y-8032400D01*
X19269581Y-8032400D01*
X19436399Y-8032400D01*
X19436399Y-7730272D01*
X20270000Y-7730272D01*
X20270000Y-7524131D01*
X19436399Y-7524131D01*
X19436399Y-7217850D01*
X19269581Y-7217850D01*
X19269581Y-8032400D01*
X19158470Y-8032400D01*
X19158470Y-6322700D01*
X19269581Y-6322700D01*
X19269581Y-6559616D01*
X19614452Y-6747194D01*
X19269581Y-6934773D01*
X19269581Y-7171688D01*
X19765638Y-6880551D01*
X20270000Y-7179260D01*
X20270000Y-6939658D01*
X19919511Y-6747194D01*
X20270000Y-6554975D01*
X20270000Y-6315129D01*
X19765638Y-6613838D01*
X19269581Y-6322700D01*
X19158470Y-6322700D01*
X19158470Y-6204018D01*
X20381111Y-6204018D01*
X20381111Y-8143511D01*
G37*
D11*
X12243401Y-7300000D02*
G75*
G02*
X12153959Y-7300000I-44721J0D01*
G01*
X12153959Y-7300000D02*
G75*
G02*
X12243401Y-7300000I44721J0D01*
G01*
X12330209Y-7300000D02*
G75*
G02*
X12067151Y-7300000I-131529J0D01*
G01*
X12067151Y-7300000D02*
G75*
G02*
X12330209Y-7300000I131529J0D01*
G01*
X12425396Y-7300000D02*
G75*
G02*
X11971964Y-7300000I-226716J0D01*
G01*
X11971964Y-7300000D02*
G75*
G02*
X12425396Y-7300000I226716J0D01*
G01*
D12*
G36*
X14258062Y-17284455D02*
G01*
X14223801Y-17290804D01*
X14196531Y-17311571D01*
X14195145Y-17313349D01*
X14176830Y-17344333D01*
X14162204Y-17378574D01*
X14150167Y-17412482D01*
X14148641Y-17417128D01*
X14136470Y-17452700D01*
X14122905Y-17488045D01*
X14107992Y-17521511D01*
X14100598Y-17535952D01*
X14079255Y-17570282D01*
X14055725Y-17598794D01*
X14030008Y-17621486D01*
X13996260Y-17641037D01*
X13959363Y-17652209D01*
X13926209Y-17655118D01*
X13891828Y-17651996D01*
X13856786Y-17641349D01*
X13824653Y-17623147D01*
X13798667Y-17600443D01*
X13776487Y-17572297D01*
X13759781Y-17542311D01*
X13754897Y-17531336D01*
X13742748Y-17496513D01*
X13734575Y-17459364D01*
X13730648Y-17424390D01*
X13729764Y-17396953D01*
X13731474Y-17360451D01*
X13736603Y-17326001D01*
X13746461Y-17289696D01*
X13757120Y-17263255D01*
X13774196Y-17232338D01*
X13797357Y-17202839D01*
X13824926Y-17178449D01*
X13834056Y-17172128D01*
X13866470Y-17154998D01*
X13901522Y-17144212D01*
X13939213Y-17139770D01*
X13947067Y-17139644D01*
X13947067Y-17283942D01*
X13911199Y-17288937D01*
X13880588Y-17305486D01*
X13871669Y-17314204D01*
X13853203Y-17345395D01*
X13845606Y-17379632D01*
X13844656Y-17399347D01*
X13847830Y-17435675D01*
X13859555Y-17469733D01*
X13867224Y-17481584D01*
X13893383Y-17503639D01*
X13926722Y-17510990D01*
X13960146Y-17501292D01*
X13984510Y-17476625D01*
X14001516Y-17446179D01*
X14015026Y-17413865D01*
X14026672Y-17379387D01*
X14027936Y-17375240D01*
X14040017Y-17338404D01*
X14052967Y-17304832D01*
X14069653Y-17268854D01*
X14087588Y-17237577D01*
X14110094Y-17207027D01*
X14120260Y-17195893D01*
X14149389Y-17171284D01*
X14181894Y-17153706D01*
X14217777Y-17143159D01*
X14251944Y-17139699D01*
X14257036Y-17139644D01*
X14295089Y-17142941D01*
X14329362Y-17152832D01*
X14359856Y-17169317D01*
X14386570Y-17192396D01*
X14400138Y-17208545D01*
X14420323Y-17240888D01*
X14435550Y-17277781D01*
X14444657Y-17313023D01*
X14450120Y-17351608D01*
X14451891Y-17386314D01*
X14451942Y-17393534D01*
X14450526Y-17428219D01*
X14445443Y-17466155D01*
X14436662Y-17502275D01*
X14424183Y-17536579D01*
X14422364Y-17540739D01*
X14406122Y-17571941D01*
X14384579Y-17602343D01*
X14359575Y-17627768D01*
X14340982Y-17641953D01*
X14310558Y-17658813D01*
X14277564Y-17670155D01*
X14242000Y-17675980D01*
X14221132Y-17676831D01*
X14221132Y-17532020D01*
X14260816Y-17527151D01*
X14292290Y-17512545D01*
X14318633Y-17483198D01*
X14332317Y-17447495D01*
X14337448Y-17410304D01*
X14337905Y-17393534D01*
X14334947Y-17358135D01*
X14324022Y-17324920D01*
X14316875Y-17313349D01*
X14289803Y-17290804D01*
X14258062Y-17284455D01*
G37*
G36*
X13740706Y-16515090D02*
G01*
X14202838Y-16515090D01*
X14237623Y-16516848D01*
X14276267Y-16523595D01*
X14311534Y-16535404D01*
X14343422Y-16552274D01*
X14371933Y-16574205D01*
X14384921Y-16587069D01*
X14407698Y-16615848D01*
X14425762Y-16648329D01*
X14439113Y-16684513D01*
X14447753Y-16724400D01*
X14451353Y-16760468D01*
X14451942Y-16783342D01*
X14450355Y-16820468D01*
X14445597Y-16855123D01*
X14435699Y-16893447D01*
X14421234Y-16928212D01*
X14402200Y-16959420D01*
X14386973Y-16978248D01*
X14360839Y-17002763D01*
X14331290Y-17022326D01*
X14298328Y-17036936D01*
X14261951Y-17046593D01*
X14222161Y-17051298D01*
X14208138Y-17051765D01*
X13740706Y-17051765D01*
X13740706Y-16907466D01*
X14203864Y-16907466D01*
X14239755Y-16904870D01*
X14275578Y-16894644D01*
X14304565Y-16874640D01*
X14324934Y-16843654D01*
X14334519Y-16807638D01*
X14336024Y-16783342D01*
X14332893Y-16748277D01*
X14320872Y-16713912D01*
X14295452Y-16684455D01*
X14263896Y-16668322D01*
X14223324Y-16660604D01*
X14207796Y-16659902D01*
X13740706Y-16659902D01*
X13740706Y-16515090D01*
G37*
G36*
X14258062Y-16037058D02*
G01*
X14223801Y-16043407D01*
X14196531Y-16064174D01*
X14195145Y-16065952D01*
X14176830Y-16096936D01*
X14162204Y-16131177D01*
X14150167Y-16165085D01*
X14148641Y-16169731D01*
X14136470Y-16205303D01*
X14122905Y-16240647D01*
X14107992Y-16274114D01*
X14100598Y-16288555D01*
X14079255Y-16322885D01*
X14055725Y-16351396D01*
X14030008Y-16374089D01*
X13996260Y-16393640D01*
X13959363Y-16404812D01*
X13926209Y-16407721D01*
X13891828Y-16404599D01*
X13856786Y-16393952D01*
X13824653Y-16375750D01*
X13798667Y-16353046D01*
X13776487Y-16324899D01*
X13759781Y-16294914D01*
X13754897Y-16283939D01*
X13742748Y-16249116D01*
X13734575Y-16211967D01*
X13730648Y-16176993D01*
X13729764Y-16149556D01*
X13731474Y-16113054D01*
X13736603Y-16078604D01*
X13746461Y-16042299D01*
X13757120Y-16015858D01*
X13774196Y-15984940D01*
X13797357Y-15955441D01*
X13824926Y-15931052D01*
X13834056Y-15924731D01*
X13866470Y-15907600D01*
X13901522Y-15896815D01*
X13939213Y-15892373D01*
X13947067Y-15892247D01*
X13947067Y-16036545D01*
X13911199Y-16041540D01*
X13880588Y-16058089D01*
X13871669Y-16066807D01*
X13853203Y-16097998D01*
X13845606Y-16132235D01*
X13844656Y-16151950D01*
X13847830Y-16188278D01*
X13859555Y-16222335D01*
X13867224Y-16234187D01*
X13893383Y-16256242D01*
X13926722Y-16263593D01*
X13960146Y-16253895D01*
X13984510Y-16229228D01*
X14001516Y-16198782D01*
X14015026Y-16166468D01*
X14026672Y-16131990D01*
X14027936Y-16127843D01*
X14040017Y-16091007D01*
X14052967Y-16057435D01*
X14069653Y-16021457D01*
X14087588Y-15990180D01*
X14110094Y-15959630D01*
X14120260Y-15948496D01*
X14149389Y-15923887D01*
X14181894Y-15906309D01*
X14217777Y-15895762D01*
X14251944Y-15892301D01*
X14257036Y-15892247D01*
X14295089Y-15895544D01*
X14329362Y-15905435D01*
X14359856Y-15921920D01*
X14386570Y-15944999D01*
X14400138Y-15961147D01*
X14420323Y-15993491D01*
X14435550Y-16030384D01*
X14444657Y-16065626D01*
X14450120Y-16104211D01*
X14451891Y-16138917D01*
X14451942Y-16146137D01*
X14450526Y-16180822D01*
X14445443Y-16218758D01*
X14436662Y-16254878D01*
X14424183Y-16289182D01*
X14422364Y-16293342D01*
X14406122Y-16324544D01*
X14384579Y-16354946D01*
X14359575Y-16380371D01*
X14340982Y-16394556D01*
X14310558Y-16411416D01*
X14277564Y-16422758D01*
X14242000Y-16428583D01*
X14221132Y-16429434D01*
X14221132Y-16284623D01*
X14260816Y-16279754D01*
X14292290Y-16265148D01*
X14318633Y-16235801D01*
X14332317Y-16200098D01*
X14337448Y-16162907D01*
X14337905Y-16146137D01*
X14334947Y-16110738D01*
X14324022Y-16077523D01*
X14316875Y-16065952D01*
X14289803Y-16043407D01*
X14258062Y-16037058D01*
G37*
G36*
X14010995Y-15263844D02*
G01*
X14045185Y-15271273D01*
X14081200Y-15286200D01*
X14113042Y-15307868D01*
X14137015Y-15331807D01*
X14157293Y-15360127D01*
X14173375Y-15392258D01*
X14185262Y-15428200D01*
X14192954Y-15467952D01*
X14196159Y-15503991D01*
X14196683Y-15526884D01*
X14196683Y-15653401D01*
X14441000Y-15653401D01*
X14441000Y-15797529D01*
X13740706Y-15797529D01*
X13740706Y-15524490D01*
X13740869Y-15521071D01*
X13857479Y-15521071D01*
X13857479Y-15653401D01*
X14079911Y-15653401D01*
X14079911Y-15524490D01*
X14076699Y-15488346D01*
X14064620Y-15453965D01*
X14052727Y-15437295D01*
X14024340Y-15416726D01*
X13990011Y-15407939D01*
X13974764Y-15407205D01*
X13938492Y-15411460D01*
X13905600Y-15425675D01*
X13890647Y-15437466D01*
X13869667Y-15465863D01*
X13859417Y-15498838D01*
X13857479Y-15521071D01*
X13740869Y-15521071D01*
X13742523Y-15486268D01*
X13747973Y-15450417D01*
X13757055Y-15416939D01*
X13769771Y-15385833D01*
X13787972Y-15354282D01*
X13810067Y-15327139D01*
X13836057Y-15304405D01*
X13852179Y-15293681D01*
X13883361Y-15278060D01*
X13916896Y-15267552D01*
X13952784Y-15262156D01*
X13973739Y-15261367D01*
X14010995Y-15263844D01*
G37*
G36*
X14138212Y-14744525D02*
G01*
X14138212Y-15021496D01*
X14325082Y-15021496D01*
X14325082Y-14696311D01*
X14441000Y-14696311D01*
X14441000Y-15165624D01*
X13740706Y-15165624D01*
X13740706Y-14697337D01*
X13857479Y-14697337D01*
X13857479Y-15021496D01*
X14025200Y-15021496D01*
X14025200Y-14744525D01*
X14138212Y-14744525D01*
G37*
G36*
X14441000Y-14045087D02*
G01*
X14441000Y-14189385D01*
X13980235Y-14470289D01*
X14441000Y-14470289D01*
X14441000Y-14614417D01*
X13740706Y-14614417D01*
X13740706Y-14470289D01*
X14202496Y-14188872D01*
X13740706Y-14188872D01*
X13740706Y-14045087D01*
X14441000Y-14045087D01*
G37*
G36*
X14143118Y-13389291D02*
G01*
X14177455Y-13393528D01*
X14215600Y-13402042D01*
X14251684Y-13414402D01*
X14280972Y-13428056D01*
X14312554Y-13447213D01*
X14340881Y-13469528D01*
X14365952Y-13495000D01*
X14387766Y-13523631D01*
X14398770Y-13541409D01*
X14415049Y-13574248D01*
X14427385Y-13608888D01*
X14435778Y-13645326D01*
X14440227Y-13683565D01*
X14441000Y-13706224D01*
X14441000Y-13923014D01*
X13740706Y-13923014D01*
X13740706Y-13707592D01*
X13857479Y-13707592D01*
X13857479Y-13778886D01*
X14325082Y-13778886D01*
X14325082Y-13709131D01*
X14322439Y-13674019D01*
X14312948Y-13638581D01*
X14296553Y-13608143D01*
X14273256Y-13582705D01*
X14269859Y-13579877D01*
X14239191Y-13560216D01*
X14202582Y-13546025D01*
X14165675Y-13538097D01*
X14130421Y-13534634D01*
X14111540Y-13534057D01*
X14074440Y-13534057D01*
X14036190Y-13535614D01*
X14001583Y-13540284D01*
X13965811Y-13549668D01*
X13931000Y-13565582D01*
X13912531Y-13578339D01*
X13888446Y-13603022D01*
X13871242Y-13632793D01*
X13860920Y-13667649D01*
X13857533Y-13702321D01*
X13857479Y-13707592D01*
X13740706Y-13707592D01*
X13742703Y-13668133D01*
X13748691Y-13630539D01*
X13758672Y-13594811D01*
X13772646Y-13560948D01*
X13782423Y-13542435D01*
X13802285Y-13512100D01*
X13825517Y-13484825D01*
X13852120Y-13460610D01*
X13882093Y-13439455D01*
X13900734Y-13428740D01*
X13935251Y-13412818D01*
X13971780Y-13400807D01*
X14010321Y-13392706D01*
X14044959Y-13388876D01*
X14074953Y-13387878D01*
X14107266Y-13387878D01*
X14143118Y-13389291D01*
G37*
X13580000Y-17640000D02*
X13580000Y-13418898D01*
D10*
G36*
X16888281Y-4712235D02*
G01*
X16932428Y-4717683D01*
X16981472Y-4728630D01*
X17027865Y-4744521D01*
X17065521Y-4762076D01*
X17106128Y-4786706D01*
X17142548Y-4815397D01*
X17174782Y-4848147D01*
X17202829Y-4884958D01*
X17216976Y-4907816D01*
X17237907Y-4950038D01*
X17253768Y-4994574D01*
X17264558Y-5041424D01*
X17270279Y-5090588D01*
X17271272Y-5119721D01*
X17271272Y-5398451D01*
X16370895Y-5398451D01*
X16370895Y-5121480D01*
X16521031Y-5121480D01*
X16521031Y-5213144D01*
X17122235Y-5213144D01*
X17122235Y-5123458D01*
X17118837Y-5078315D01*
X17106634Y-5032751D01*
X17085555Y-4993616D01*
X17055601Y-4960911D01*
X17051233Y-4957275D01*
X17011803Y-4931996D01*
X16964735Y-4913751D01*
X16917283Y-4903557D01*
X16871956Y-4899106D01*
X16847681Y-4898364D01*
X16799981Y-4898364D01*
X16750802Y-4900365D01*
X16706307Y-4906370D01*
X16660315Y-4918435D01*
X16615558Y-4938895D01*
X16591812Y-4955297D01*
X16560845Y-4987033D01*
X16538726Y-5025309D01*
X16525455Y-5070124D01*
X16521100Y-5114702D01*
X16521031Y-5121480D01*
X16370895Y-5121480D01*
X16373461Y-5070747D01*
X16381161Y-5022412D01*
X16393994Y-4976475D01*
X16411960Y-4932937D01*
X16424530Y-4909135D01*
X16450067Y-4870133D01*
X16479937Y-4835065D01*
X16514140Y-4803932D01*
X16552678Y-4776732D01*
X16576645Y-4762955D01*
X16621023Y-4742485D01*
X16667989Y-4727042D01*
X16717542Y-4716627D01*
X16762076Y-4711701D01*
X16800640Y-4710419D01*
X16842186Y-4710419D01*
X16888281Y-4712235D01*
G37*
G36*
X17036066Y-4113172D02*
G01*
X16992016Y-4121334D01*
X16956955Y-4148036D01*
X16955172Y-4150321D01*
X16931625Y-4190158D01*
X16912820Y-4234182D01*
X16897343Y-4277778D01*
X16895382Y-4283751D01*
X16879733Y-4329487D01*
X16862293Y-4374930D01*
X16843119Y-4417957D01*
X16833613Y-4436525D01*
X16806172Y-4480664D01*
X16775919Y-4517321D01*
X16742854Y-4546497D01*
X16699464Y-4571634D01*
X16652024Y-4585998D01*
X16609398Y-4589738D01*
X16565194Y-4585724D01*
X16520139Y-4572036D01*
X16478826Y-4548632D01*
X16445415Y-4519442D01*
X16416899Y-4483253D01*
X16395419Y-4444700D01*
X16389140Y-4430590D01*
X16373519Y-4385818D01*
X16363011Y-4338055D01*
X16357962Y-4293088D01*
X16356826Y-4257812D01*
X16359024Y-4210881D01*
X16365619Y-4166588D01*
X16378293Y-4119911D01*
X16391997Y-4085914D01*
X16413952Y-4046163D01*
X16443731Y-4008236D01*
X16479177Y-3976878D01*
X16490916Y-3968751D01*
X16532591Y-3946726D01*
X16577658Y-3932859D01*
X16626117Y-3927149D01*
X16636216Y-3926985D01*
X16636216Y-4112512D01*
X16590100Y-4118934D01*
X16550742Y-4140211D01*
X16539276Y-4151420D01*
X16515534Y-4191523D01*
X16505765Y-4235542D01*
X16504544Y-4260890D01*
X16508625Y-4307598D01*
X16523699Y-4351386D01*
X16533560Y-4366623D01*
X16567193Y-4394979D01*
X16610057Y-4404431D01*
X16653032Y-4391962D01*
X16684356Y-4360248D01*
X16706221Y-4321103D01*
X16723592Y-4279556D01*
X16738565Y-4235227D01*
X16740190Y-4229895D01*
X16755723Y-4182535D01*
X16772373Y-4139371D01*
X16793826Y-4093113D01*
X16816886Y-4052899D01*
X16845821Y-4013621D01*
X16858892Y-3999306D01*
X16896343Y-3967666D01*
X16938136Y-3945066D01*
X16984271Y-3931505D01*
X17028200Y-3927056D01*
X17034747Y-3926985D01*
X17083672Y-3931224D01*
X17127738Y-3943942D01*
X17166944Y-3965137D01*
X17201290Y-3994810D01*
X17218735Y-4015572D01*
X17244687Y-4057157D01*
X17264266Y-4104590D01*
X17275974Y-4149902D01*
X17282998Y-4199511D01*
X17285275Y-4244133D01*
X17285340Y-4253416D01*
X17283520Y-4298011D01*
X17276984Y-4346786D01*
X17265694Y-4393226D01*
X17249651Y-4437331D01*
X17247311Y-4442680D01*
X17226429Y-4482797D01*
X17198731Y-4521885D01*
X17166583Y-4554574D01*
X17142678Y-4572812D01*
X17103560Y-4594489D01*
X17061140Y-4609072D01*
X17015415Y-4616561D01*
X16988585Y-4617655D01*
X16988585Y-4431469D01*
X17039608Y-4425209D01*
X17080074Y-4406430D01*
X17113943Y-4368698D01*
X17131537Y-4322794D01*
X17138134Y-4274977D01*
X17138721Y-4253416D01*
X17134919Y-4207903D01*
X17120872Y-4165198D01*
X17111683Y-4150321D01*
X17076876Y-4121334D01*
X17036066Y-4113172D01*
G37*
G36*
X17271272Y-3303360D02*
G01*
X16943082Y-3471961D01*
X16943082Y-3619899D01*
X17271272Y-3619899D01*
X17271272Y-3805206D01*
X16370895Y-3805206D01*
X16370895Y-3470862D01*
X16521031Y-3470862D01*
X16521031Y-3619899D01*
X16792946Y-3619899D01*
X16792946Y-3470202D01*
X16788712Y-3425885D01*
X16772792Y-3383154D01*
X16757116Y-3362052D01*
X16720631Y-3335755D01*
X16677560Y-3324523D01*
X16658637Y-3323583D01*
X16614361Y-3328684D01*
X16572473Y-3347527D01*
X16557740Y-3359854D01*
X16532646Y-3398845D01*
X16522321Y-3444120D01*
X16521031Y-3470862D01*
X16370895Y-3470862D01*
X16372639Y-3422778D01*
X16377871Y-3378268D01*
X16388755Y-3329574D01*
X16404662Y-3286026D01*
X16429568Y-3241726D01*
X16442336Y-3224885D01*
X16476314Y-3191138D01*
X16515930Y-3165680D01*
X16561185Y-3148510D01*
X16604461Y-3140391D01*
X16643690Y-3138276D01*
X16687942Y-3140763D01*
X16733160Y-3149505D01*
X16777734Y-3166601D01*
X16797782Y-3178064D01*
X16833919Y-3206966D01*
X16865119Y-3243940D01*
X16888977Y-3284118D01*
X16896041Y-3298964D01*
X17262699Y-3104205D01*
X17271272Y-3104205D01*
X17271272Y-3303360D01*
G37*
G36*
X12017000Y-17137700D02*
G01*
X11688810Y-17306301D01*
X11688810Y-17454239D01*
X12017000Y-17454239D01*
X12017000Y-17639546D01*
X11116623Y-17639546D01*
X11116623Y-17305202D01*
X11266759Y-17305202D01*
X11266759Y-17454239D01*
X11538674Y-17454239D01*
X11538674Y-17304542D01*
X11534440Y-17260225D01*
X11518520Y-17217494D01*
X11502844Y-17196392D01*
X11466359Y-17170095D01*
X11423288Y-17158863D01*
X11404365Y-17157923D01*
X11360089Y-17163024D01*
X11318201Y-17181867D01*
X11303468Y-17194193D01*
X11278374Y-17233185D01*
X11268049Y-17278460D01*
X11266759Y-17305202D01*
X11116623Y-17305202D01*
X11118367Y-17257118D01*
X11123599Y-17212608D01*
X11134483Y-17163913D01*
X11150390Y-17120366D01*
X11175296Y-17076066D01*
X11188064Y-17059225D01*
X11222042Y-17025478D01*
X11261658Y-17000020D01*
X11306913Y-16982850D01*
X11350189Y-16974731D01*
X11389418Y-16972616D01*
X11433670Y-16975103D01*
X11478888Y-16983845D01*
X11523462Y-17000941D01*
X11543510Y-17012404D01*
X11579647Y-17041306D01*
X11610847Y-17078280D01*
X11634705Y-17118458D01*
X11641769Y-17133304D01*
X12008427Y-16938545D01*
X12017000Y-16938545D01*
X12017000Y-17137700D01*
G37*
G36*
X11781794Y-16369214D02*
G01*
X11737744Y-16377377D01*
X11702683Y-16404078D01*
X11700900Y-16406364D01*
X11677353Y-16446201D01*
X11658548Y-16490224D01*
X11643071Y-16533821D01*
X11641110Y-16539794D01*
X11625461Y-16585530D01*
X11608021Y-16630972D01*
X11588847Y-16674000D01*
X11579341Y-16692568D01*
X11551900Y-16736706D01*
X11521647Y-16773364D01*
X11488582Y-16802540D01*
X11445192Y-16827677D01*
X11397752Y-16842041D01*
X11355126Y-16845781D01*
X11310922Y-16841767D01*
X11265867Y-16828078D01*
X11224554Y-16804675D01*
X11191143Y-16775485D01*
X11162627Y-16739296D01*
X11141147Y-16700743D01*
X11134868Y-16686632D01*
X11119247Y-16641860D01*
X11108739Y-16594097D01*
X11103690Y-16549131D01*
X11102554Y-16513855D01*
X11104752Y-16466924D01*
X11111347Y-16422630D01*
X11124021Y-16375953D01*
X11137725Y-16341957D01*
X11159680Y-16302206D01*
X11189459Y-16264279D01*
X11224905Y-16232920D01*
X11236644Y-16224794D01*
X11278319Y-16202769D01*
X11323386Y-16188901D01*
X11371845Y-16183191D01*
X11381944Y-16183028D01*
X11381944Y-16368555D01*
X11335828Y-16374976D01*
X11296470Y-16396254D01*
X11285004Y-16407463D01*
X11261262Y-16447566D01*
X11251493Y-16491585D01*
X11250272Y-16516933D01*
X11254353Y-16563641D01*
X11269427Y-16607428D01*
X11279288Y-16622665D01*
X11312921Y-16651022D01*
X11355785Y-16660474D01*
X11398760Y-16648004D01*
X11430084Y-16616290D01*
X11451949Y-16577146D01*
X11469320Y-16535599D01*
X11484293Y-16491269D01*
X11485918Y-16485938D01*
X11501451Y-16438577D01*
X11518101Y-16395413D01*
X11539554Y-16349156D01*
X11562614Y-16308942D01*
X11591549Y-16269664D01*
X11604620Y-16255348D01*
X11642071Y-16223708D01*
X11683864Y-16201108D01*
X11729999Y-16187548D01*
X11773928Y-16183099D01*
X11780475Y-16183028D01*
X11829400Y-16187267D01*
X11873466Y-16199984D01*
X11912672Y-16221179D01*
X11947018Y-16250852D01*
X11964463Y-16271615D01*
X11990415Y-16313200D01*
X12009994Y-16360633D01*
X12021702Y-16405945D01*
X12028726Y-16455553D01*
X12031003Y-16500176D01*
X12031068Y-16509459D01*
X12029248Y-16554053D01*
X12022712Y-16602829D01*
X12011422Y-16649269D01*
X11995379Y-16693374D01*
X11993039Y-16698722D01*
X11972157Y-16738839D01*
X11944459Y-16777928D01*
X11912311Y-16810617D01*
X11888406Y-16828855D01*
X11849288Y-16850532D01*
X11806868Y-16865115D01*
X11761143Y-16872603D01*
X11734313Y-16873698D01*
X11734313Y-16687512D01*
X11785336Y-16681252D01*
X11825802Y-16662473D01*
X11859671Y-16624741D01*
X11877265Y-16578837D01*
X11883862Y-16531020D01*
X11884449Y-16509459D01*
X11880647Y-16463946D01*
X11866600Y-16421240D01*
X11857411Y-16406364D01*
X11822604Y-16377377D01*
X11781794Y-16369214D01*
G37*
G36*
X11266759Y-15383768D02*
G01*
X11266759Y-15659420D01*
X12017000Y-15659420D01*
X12017000Y-15844947D01*
X11266759Y-15844947D01*
X11266759Y-16116863D01*
X11116623Y-16116863D01*
X11116623Y-15383768D01*
X11266759Y-15383768D01*
G37*
G36*
X9567680Y-3533729D02*
G01*
X9239490Y-3702330D01*
X9239490Y-3850268D01*
X9567680Y-3850268D01*
X9567680Y-4035575D01*
X8667303Y-4035575D01*
X8667303Y-3701231D01*
X8817439Y-3701231D01*
X8817439Y-3850268D01*
X9089354Y-3850268D01*
X9089354Y-3700571D01*
X9085120Y-3656254D01*
X9069200Y-3613523D01*
X9053524Y-3592421D01*
X9017039Y-3566124D01*
X8973968Y-3554892D01*
X8955045Y-3553952D01*
X8910769Y-3559053D01*
X8868881Y-3577896D01*
X8854148Y-3590222D01*
X8829054Y-3629214D01*
X8818729Y-3674489D01*
X8817439Y-3701231D01*
X8667303Y-3701231D01*
X8669047Y-3653147D01*
X8674279Y-3608637D01*
X8685163Y-3559942D01*
X8701070Y-3516395D01*
X8725976Y-3472095D01*
X8738744Y-3455254D01*
X8772722Y-3421507D01*
X8812338Y-3396049D01*
X8857593Y-3378879D01*
X8900869Y-3370760D01*
X8940098Y-3368645D01*
X8984350Y-3371132D01*
X9029568Y-3379874D01*
X9074142Y-3396970D01*
X9094190Y-3408433D01*
X9130327Y-3437335D01*
X9161527Y-3474309D01*
X9185385Y-3514487D01*
X9192449Y-3529333D01*
X9559107Y-3334574D01*
X9567680Y-3334574D01*
X9567680Y-3533729D01*
G37*
G36*
X9567680Y-3034741D02*
G01*
X9567680Y-3220268D01*
X8667303Y-3220268D01*
X8667303Y-3034741D01*
X9567680Y-3034741D01*
G37*
D13*
G36*
X5922060Y-9415906D02*
G01*
X5986339Y-9452080D01*
X6004002Y-9521598D01*
X6004002Y-9856357D01*
X6001389Y-9887288D01*
X5966271Y-9946006D01*
X5896975Y-9963726D01*
X5266438Y-9963726D01*
X5241353Y-9962048D01*
X5177074Y-9925874D01*
X5159411Y-9856357D01*
X5159411Y-9521598D01*
X5162023Y-9490666D01*
X5197142Y-9431948D01*
X5266438Y-9414228D01*
X5896975Y-9414228D01*
X5922060Y-9415906D01*
G37*
G36*
X5981918Y-6629242D02*
G01*
X6013919Y-6690334D01*
X6013919Y-6926615D01*
X6007307Y-6962499D01*
X5946214Y-6994661D01*
X5552300Y-6994661D01*
X5516416Y-6988016D01*
X5484254Y-6926615D01*
X5484254Y-6690334D01*
X5490899Y-6654631D01*
X5552300Y-6622630D01*
X5946214Y-6622630D01*
X5981918Y-6629242D01*
G37*
G36*
X6457388Y-14607244D02*
G01*
X4706025Y-14607244D01*
X4706025Y-13565380D01*
X4881413Y-13565380D01*
X5896975Y-13565380D01*
X5922060Y-13567057D01*
X5986339Y-13603232D01*
X6004002Y-13672749D01*
X6004002Y-13968185D01*
X6001389Y-13999117D01*
X5966271Y-14057834D01*
X5896975Y-14075554D01*
X4881413Y-14075554D01*
X4881413Y-14451688D01*
X5896975Y-14451688D01*
X5935532Y-14450838D01*
X6006643Y-14444034D01*
X6079486Y-14427496D01*
X6149391Y-14397256D01*
X6205063Y-14354919D01*
X6227743Y-14328937D01*
X6264032Y-14266234D01*
X6285861Y-14199623D01*
X6298430Y-14122049D01*
X6301832Y-14046831D01*
X6301832Y-13594103D01*
X6300982Y-13555487D01*
X6294177Y-13484297D01*
X6277640Y-13411421D01*
X6247399Y-13341559D01*
X6205063Y-13286015D01*
X6179006Y-13263335D01*
X6116217Y-13227046D01*
X6049602Y-13205217D01*
X5972088Y-13192648D01*
X5896975Y-13189246D01*
X4881413Y-13189246D01*
X4881413Y-13565380D01*
X4706025Y-13565380D01*
X4706025Y-13061702D01*
X5255496Y-13061702D01*
X5543409Y-13061702D01*
X5543409Y-12913984D01*
X6282000Y-12913984D01*
X6282000Y-12547424D01*
X5255496Y-12547424D01*
X5255496Y-13061702D01*
X4706025Y-13061702D01*
X4706025Y-12913984D01*
X4861581Y-12913984D01*
X5159411Y-12913984D01*
X5159411Y-12547424D01*
X4861581Y-12547424D01*
X4861581Y-12913984D01*
X4706025Y-12913984D01*
X4706025Y-11597173D01*
X5196682Y-11597173D01*
X5196682Y-11685736D01*
X5197704Y-11712579D01*
X5208035Y-11783536D01*
X5225747Y-11853628D01*
X5241754Y-11901885D01*
X5271294Y-11969941D01*
X5307471Y-12032805D01*
X5216173Y-12050928D01*
X5216173Y-12376113D01*
X6282000Y-12376113D01*
X6282000Y-12009553D01*
X5540674Y-12009553D01*
X5536243Y-11994287D01*
X5519843Y-11927542D01*
X5508409Y-11857123D01*
X5504086Y-11784214D01*
X5504086Y-11715143D01*
X5520499Y-11673768D01*
X5561874Y-11657355D01*
X6282000Y-11657355D01*
X6282000Y-11290795D01*
X5503060Y-11290795D01*
X5477575Y-11291534D01*
X5406890Y-11302624D01*
X5338502Y-11330554D01*
X5280799Y-11374912D01*
X5265767Y-11391101D01*
X5226337Y-11452009D01*
X5203336Y-11523603D01*
X5196682Y-11597173D01*
X4706025Y-11597173D01*
X4706025Y-11181716D01*
X4881413Y-11181716D01*
X5178901Y-11181716D01*
X5178901Y-11004591D01*
X5984512Y-11004591D01*
X5984512Y-11181716D01*
X6282000Y-11181716D01*
X6282000Y-10450990D01*
X5984512Y-10450990D01*
X5984512Y-10628115D01*
X5178901Y-10628115D01*
X5178901Y-10450990D01*
X4881413Y-10450990D01*
X4881413Y-11181716D01*
X4706025Y-11181716D01*
X4706025Y-9442951D01*
X4861581Y-9442951D01*
X4861581Y-9521598D01*
X4861581Y-9935345D01*
X4862434Y-9973902D01*
X4869262Y-10045012D01*
X4885859Y-10117855D01*
X4916206Y-10187761D01*
X4958692Y-10243433D01*
X4984669Y-10266113D01*
X5047329Y-10302401D01*
X5113868Y-10324231D01*
X5191337Y-10336800D01*
X5266438Y-10340202D01*
X5896975Y-10340202D01*
X5935532Y-10339351D01*
X6006643Y-10332547D01*
X6079486Y-10316010D01*
X6149391Y-10285769D01*
X6205063Y-10243433D01*
X6227743Y-10217376D01*
X6264032Y-10154587D01*
X6285861Y-10087971D01*
X6298430Y-10010458D01*
X6301832Y-9935345D01*
X6301832Y-9442951D01*
X6300982Y-9404336D01*
X6294177Y-9333146D01*
X6277640Y-9260270D01*
X6247399Y-9190407D01*
X6205063Y-9134863D01*
X6179006Y-9112183D01*
X6116217Y-9075895D01*
X6049602Y-9054065D01*
X5972088Y-9041496D01*
X5896975Y-9038094D01*
X5266438Y-9038094D01*
X5227883Y-9038945D01*
X5156797Y-9045749D01*
X5084013Y-9062287D01*
X5014214Y-9092527D01*
X4958692Y-9134863D01*
X4935931Y-9160846D01*
X4899515Y-9223549D01*
X4877608Y-9290160D01*
X4864995Y-9367734D01*
X4861581Y-9442951D01*
X4706025Y-9442951D01*
X4706025Y-8929016D01*
X5964679Y-8929016D01*
X6282000Y-8929016D01*
X6282000Y-8552540D01*
X5964679Y-8552540D01*
X5964679Y-8929016D01*
X4706025Y-8929016D01*
X4706025Y-8112805D01*
X5216173Y-8112805D01*
X5218301Y-8158770D01*
X5232862Y-8233512D01*
X5261217Y-8297977D01*
X5303367Y-8352163D01*
X5338233Y-8381679D01*
X5399142Y-8414503D01*
X5470384Y-8433587D01*
X5542383Y-8439016D01*
X5995454Y-8439016D01*
X6020881Y-8438276D01*
X6091464Y-8427187D01*
X6159865Y-8399257D01*
X6217715Y-8354898D01*
X6232747Y-8338651D01*
X6272177Y-8277637D01*
X6295178Y-8206070D01*
X6301832Y-8132637D01*
X6301673Y-8096957D01*
X6300401Y-8023343D01*
X6297858Y-7946727D01*
X6294044Y-7867109D01*
X6288957Y-7784488D01*
X6282599Y-7698864D01*
X6274970Y-7610237D01*
X6268413Y-7541797D01*
X6261141Y-7471667D01*
X5983486Y-7471667D01*
X5990619Y-7560182D01*
X5996800Y-7642787D01*
X6002031Y-7719483D01*
X6006310Y-7790270D01*
X6010323Y-7870444D01*
X6012849Y-7941385D01*
X6013919Y-8014326D01*
X5997505Y-8056043D01*
X5955789Y-8072456D01*
X5571790Y-8072456D01*
X5536087Y-8065811D01*
X5504086Y-8004410D01*
X5504086Y-7471667D01*
X5216173Y-7471667D01*
X5216173Y-8112805D01*
X4706025Y-8112805D01*
X4706025Y-6581939D01*
X5196682Y-6581939D01*
X5196682Y-6690334D01*
X5196682Y-7035010D01*
X5198802Y-7080975D01*
X5213306Y-7155717D01*
X5241550Y-7220182D01*
X5283535Y-7274368D01*
X5318401Y-7303884D01*
X5379310Y-7336709D01*
X5450551Y-7355792D01*
X5522551Y-7361221D01*
X5975621Y-7361221D01*
X6021586Y-7359100D01*
X6096329Y-7344597D01*
X6160793Y-7316352D01*
X6214979Y-7274368D01*
X6244496Y-7239386D01*
X6277320Y-7178348D01*
X6296404Y-7107031D01*
X6301832Y-7035010D01*
X6301832Y-6581939D01*
X6299712Y-6535983D01*
X6285208Y-6461297D01*
X6256964Y-6396944D01*
X6214979Y-6342923D01*
X6179997Y-6313407D01*
X6118959Y-6280583D01*
X6047642Y-6261499D01*
X5975621Y-6256071D01*
X5522551Y-6256071D01*
X5476594Y-6258191D01*
X5401909Y-6272695D01*
X5337556Y-6300939D01*
X5283535Y-6342923D01*
X5254018Y-6377789D01*
X5221194Y-6438698D01*
X5202110Y-6509940D01*
X5196682Y-6581939D01*
X4706025Y-6581939D01*
X4706025Y-4747431D01*
X5196682Y-4747431D01*
X5196682Y-4767264D01*
X5198981Y-4816392D01*
X5209199Y-4887534D01*
X5225747Y-4958408D01*
X5246370Y-5022816D01*
X5275227Y-5088419D01*
X5310548Y-5148527D01*
X5260732Y-5195629D01*
X5221701Y-5260677D01*
X5202131Y-5329214D01*
X5196682Y-5397459D01*
X5196682Y-5417292D01*
X5197704Y-5444136D01*
X5208035Y-5515092D01*
X5225747Y-5585184D01*
X5241754Y-5633441D01*
X5271294Y-5701497D01*
X5307471Y-5764361D01*
X5216173Y-5782484D01*
X5216173Y-6107669D01*
X6282000Y-6107669D01*
X6282000Y-5741109D01*
X5540674Y-5741109D01*
X5538423Y-5733135D01*
X5521379Y-5664974D01*
X5509231Y-5596853D01*
X5504086Y-5525687D01*
X5504086Y-5515771D01*
X5520499Y-5474054D01*
X5561874Y-5457641D01*
X6282000Y-5457641D01*
X6282000Y-5091081D01*
X5540674Y-5091081D01*
X5538423Y-5083107D01*
X5521379Y-5014946D01*
X5509231Y-4946825D01*
X5504086Y-4875659D01*
X5504086Y-4865743D01*
X5520499Y-4824368D01*
X5561874Y-4807613D01*
X6282000Y-4807613D01*
X6282000Y-4441053D01*
X5503060Y-4441053D01*
X5477575Y-4441793D01*
X5406890Y-4452882D01*
X5338502Y-4480812D01*
X5280799Y-4525170D01*
X5265767Y-4541417D01*
X5226337Y-4602432D01*
X5203336Y-4673999D01*
X5196682Y-4747431D01*
X4706025Y-4747431D01*
X4706025Y-4285497D01*
X6457388Y-4285497D01*
X6457388Y-14607244D01*
G37*
D10*
G36*
X22108926Y-4640174D02*
G01*
X22152824Y-4645517D01*
X22201520Y-4657511D01*
X22245874Y-4675594D01*
X22285884Y-4699768D01*
X22321552Y-4730030D01*
X22337757Y-4747446D01*
X22366069Y-4785879D01*
X22388524Y-4828641D01*
X22405122Y-4875730D01*
X22415861Y-4927147D01*
X22420336Y-4973300D01*
X22421068Y-5002435D01*
X22418213Y-5054699D01*
X22409648Y-5103367D01*
X22395372Y-5148439D01*
X22375387Y-5189916D01*
X22349691Y-5227797D01*
X22318286Y-5262083D01*
X22304124Y-5274790D01*
X22265449Y-5303351D01*
X22222512Y-5327070D01*
X22175315Y-5345949D01*
X22123856Y-5359987D01*
X22079621Y-5367732D01*
X22032659Y-5372379D01*
X21982969Y-5373928D01*
X21927575Y-5373928D01*
X21879790Y-5372321D01*
X21834200Y-5367499D01*
X21790805Y-5359462D01*
X21742951Y-5346022D01*
X21698085Y-5328206D01*
X21656835Y-5306320D01*
X21620024Y-5280668D01*
X21583390Y-5246740D01*
X21552554Y-5207894D01*
X21545750Y-5197414D01*
X21522477Y-5153176D01*
X21507568Y-5111672D01*
X21497749Y-5067560D01*
X21493022Y-5020839D01*
X21492554Y-5000017D01*
X21494594Y-4952795D01*
X21500712Y-4908535D01*
X21513437Y-4859333D01*
X21532036Y-4814397D01*
X21556508Y-4773728D01*
X21576085Y-4748984D01*
X21609774Y-4716112D01*
X21648193Y-4688881D01*
X21691341Y-4667292D01*
X21739218Y-4651344D01*
X21782729Y-4642363D01*
X21810412Y-4638855D01*
X21810412Y-4824382D01*
X21765132Y-4830980D01*
X21720132Y-4846553D01*
X21684016Y-4872962D01*
X21660039Y-4910304D01*
X21647781Y-4955396D01*
X21644669Y-5000017D01*
X21649955Y-5048404D01*
X21665813Y-5089453D01*
X21695831Y-5126457D01*
X21711494Y-5138723D01*
X21754925Y-5161035D01*
X21803340Y-5174942D01*
X21853277Y-5182535D01*
X21901705Y-5185644D01*
X21919002Y-5185984D01*
X21987366Y-5185984D01*
X22039581Y-5184430D01*
X22086264Y-5179770D01*
X22133733Y-5170407D01*
X22178761Y-5154529D01*
X22201909Y-5141800D01*
X22237612Y-5109205D01*
X22260092Y-5066650D01*
X22269018Y-5019833D01*
X22269613Y-5002435D01*
X22266518Y-4957549D01*
X22254329Y-4912086D01*
X22230485Y-4874281D01*
X22194947Y-4847532D01*
X22151779Y-4831919D01*
X22108926Y-4825481D01*
X22108926Y-4640174D01*
G37*
G36*
X21656759Y-3862896D02*
G01*
X21656759Y-4138548D01*
X22407000Y-4138548D01*
X22407000Y-4324075D01*
X21656759Y-4324075D01*
X21656759Y-4595991D01*
X21506623Y-4595991D01*
X21506623Y-3862896D01*
X21656759Y-3862896D01*
G37*
G36*
X22171794Y-3304337D02*
G01*
X22127744Y-3312499D01*
X22092683Y-3339200D01*
X22090900Y-3341486D01*
X22067353Y-3381323D01*
X22048548Y-3425347D01*
X22033071Y-3468943D01*
X22031110Y-3474916D01*
X22015461Y-3520652D01*
X21998021Y-3566094D01*
X21978847Y-3609122D01*
X21969341Y-3627690D01*
X21941900Y-3671828D01*
X21911647Y-3708486D01*
X21878582Y-3737662D01*
X21835192Y-3762799D01*
X21787752Y-3777163D01*
X21745126Y-3780903D01*
X21700922Y-3776889D01*
X21655867Y-3763200D01*
X21614554Y-3739797D01*
X21581143Y-3710607D01*
X21552627Y-3674418D01*
X21531147Y-3635865D01*
X21524868Y-3621755D01*
X21509247Y-3576982D01*
X21498739Y-3529220D01*
X21493690Y-3484253D01*
X21492554Y-3448977D01*
X21494752Y-3402046D01*
X21501347Y-3357753D01*
X21514021Y-3311075D01*
X21527725Y-3277079D01*
X21549680Y-3237328D01*
X21579459Y-3199401D01*
X21614905Y-3168042D01*
X21626644Y-3159916D01*
X21668319Y-3137891D01*
X21713386Y-3124024D01*
X21761845Y-3118313D01*
X21771944Y-3118150D01*
X21771944Y-3303677D01*
X21725828Y-3310099D01*
X21686470Y-3331376D01*
X21675004Y-3342585D01*
X21651262Y-3382688D01*
X21641493Y-3426707D01*
X21640272Y-3452055D01*
X21644353Y-3498763D01*
X21659427Y-3542550D01*
X21669288Y-3557787D01*
X21702921Y-3586144D01*
X21745785Y-3595596D01*
X21788760Y-3583126D01*
X21820084Y-3551413D01*
X21841949Y-3512268D01*
X21859320Y-3470721D01*
X21874293Y-3426392D01*
X21875918Y-3421060D01*
X21891451Y-3373699D01*
X21908101Y-3330535D01*
X21929554Y-3284278D01*
X21952614Y-3244064D01*
X21981549Y-3204786D01*
X21994620Y-3190471D01*
X22032071Y-3158830D01*
X22073864Y-3136230D01*
X22119999Y-3122670D01*
X22163928Y-3118221D01*
X22170475Y-3118150D01*
X22219400Y-3122389D01*
X22263466Y-3135106D01*
X22302672Y-3156302D01*
X22337018Y-3185975D01*
X22354463Y-3206737D01*
X22380415Y-3248322D01*
X22399994Y-3295755D01*
X22411702Y-3341067D01*
X22418726Y-3390676D01*
X22421003Y-3435298D01*
X22421068Y-3444581D01*
X22419248Y-3489176D01*
X22412712Y-3537951D01*
X22401422Y-3584391D01*
X22385379Y-3628496D01*
X22383039Y-3633845D01*
X22362157Y-3673962D01*
X22334459Y-3713050D01*
X22302311Y-3745739D01*
X22278406Y-3763977D01*
X22239288Y-3785654D01*
X22196868Y-3800237D01*
X22151143Y-3807725D01*
X22124313Y-3808820D01*
X22124313Y-3622634D01*
X22175336Y-3616374D01*
X22215802Y-3597595D01*
X22249671Y-3559863D01*
X22267265Y-3513959D01*
X22273862Y-3466142D01*
X22274449Y-3444581D01*
X22270647Y-3399068D01*
X22256600Y-3356362D01*
X22247411Y-3341486D01*
X22212604Y-3312499D01*
X22171794Y-3304337D01*
G37*
G36*
X26017934Y-4806759D02*
G01*
X25742281Y-4806759D01*
X25742281Y-5557000D01*
X25556755Y-5557000D01*
X25556755Y-4806759D01*
X25284839Y-4806759D01*
X25284839Y-4656623D01*
X26017934Y-4656623D01*
X26017934Y-4806759D01*
G37*
G36*
X26441524Y-4967006D02*
G01*
X26610345Y-4656623D01*
X26823569Y-4656623D01*
X26561545Y-5103074D01*
X26830383Y-5557000D01*
X26614521Y-5557000D01*
X26441524Y-5241560D01*
X26268307Y-5557000D01*
X26052665Y-5557000D01*
X26321503Y-5103074D01*
X26059480Y-4656623D01*
X26272704Y-4656623D01*
X26441524Y-4967006D01*
G37*
G36*
X27247334Y-4659189D02*
G01*
X27295669Y-4666889D01*
X27341605Y-4679722D01*
X27385144Y-4697688D01*
X27408946Y-4710258D01*
X27447947Y-4735795D01*
X27483015Y-4765665D01*
X27514149Y-4799868D01*
X27541349Y-4838406D01*
X27555125Y-4862373D01*
X27575596Y-4906751D01*
X27591039Y-4953717D01*
X27601454Y-5003270D01*
X27606379Y-5047804D01*
X27607662Y-5086368D01*
X27607662Y-5127914D01*
X27605846Y-5174009D01*
X27600397Y-5218156D01*
X27589451Y-5267200D01*
X27573560Y-5313593D01*
X27556004Y-5351249D01*
X27531374Y-5391856D01*
X27502684Y-5428276D01*
X27469933Y-5460510D01*
X27433122Y-5488557D01*
X27410265Y-5502704D01*
X27368043Y-5523635D01*
X27323507Y-5539496D01*
X27276657Y-5550286D01*
X27227492Y-5556007D01*
X27198360Y-5557000D01*
X26919630Y-5557000D01*
X26919630Y-5407963D01*
X27104937Y-5407963D01*
X27194623Y-5407963D01*
X27239766Y-5404565D01*
X27285330Y-5392362D01*
X27324465Y-5371283D01*
X27357169Y-5341329D01*
X27360806Y-5336961D01*
X27386085Y-5297531D01*
X27404330Y-5250463D01*
X27414524Y-5203011D01*
X27418975Y-5157684D01*
X27419717Y-5133409D01*
X27419717Y-5085709D01*
X27417715Y-5036530D01*
X27411711Y-4992035D01*
X27399646Y-4946043D01*
X27379185Y-4901286D01*
X27362784Y-4877540D01*
X27331048Y-4846573D01*
X27292772Y-4824454D01*
X27247956Y-4811183D01*
X27203378Y-4806828D01*
X27196601Y-4806759D01*
X27104937Y-4806759D01*
X27104937Y-5407963D01*
X26919630Y-5407963D01*
X26919630Y-4656623D01*
X27196601Y-4656623D01*
X27247334Y-4659189D01*
G37*
G36*
X25631273Y-12582401D02*
G01*
X25726454Y-12582401D01*
X25772585Y-12577702D01*
X25813825Y-12560343D01*
X25827351Y-12548988D01*
X25851916Y-12509916D01*
X25860072Y-12463403D01*
X25860104Y-12459962D01*
X25852956Y-12414895D01*
X25827571Y-12376431D01*
X25789103Y-12354009D01*
X25745345Y-12346652D01*
X25738325Y-12346535D01*
X25693773Y-12352814D01*
X25654343Y-12373354D01*
X25652156Y-12375112D01*
X25625227Y-12410080D01*
X25617644Y-12448971D01*
X25439152Y-12448971D01*
X25443645Y-12402049D01*
X25457126Y-12358607D01*
X25477180Y-12322136D01*
X25506883Y-12286357D01*
X25543704Y-12256396D01*
X25583353Y-12234208D01*
X25627432Y-12217516D01*
X25674217Y-12207006D01*
X25718635Y-12202832D01*
X25733928Y-12202554D01*
X25785330Y-12204942D01*
X25832373Y-12212106D01*
X25875057Y-12224046D01*
X25919347Y-12244012D01*
X25957704Y-12270478D01*
X25989309Y-12302550D01*
X26013152Y-12339523D01*
X26029232Y-12381398D01*
X26037549Y-12428174D01*
X26038817Y-12457104D01*
X26033500Y-12501741D01*
X26017549Y-12543658D01*
X26001008Y-12570091D01*
X25969478Y-12605331D01*
X25931270Y-12633893D01*
X25902089Y-12649226D01*
X25945847Y-12669220D01*
X25982048Y-12694580D01*
X26013143Y-12728676D01*
X26015516Y-12732097D01*
X26036791Y-12772393D01*
X26049236Y-12817417D01*
X26052885Y-12862450D01*
X26049809Y-12906417D01*
X26038446Y-12953414D01*
X26018710Y-12995783D01*
X25990601Y-13033524D01*
X25965397Y-13057648D01*
X25924493Y-13086256D01*
X25878140Y-13107838D01*
X25834073Y-13120743D01*
X25786002Y-13128487D01*
X25733928Y-13131068D01*
X25685121Y-13128564D01*
X25639760Y-13121052D01*
X25591195Y-13105960D01*
X25547322Y-13084051D01*
X25513450Y-13059847D01*
X25480132Y-13026393D01*
X25454997Y-12988542D01*
X25438045Y-12946295D01*
X25429277Y-12899650D01*
X25427941Y-12871023D01*
X25606653Y-12871023D01*
X25615009Y-12914934D01*
X25642342Y-12952722D01*
X25644682Y-12954773D01*
X25684198Y-12977967D01*
X25728052Y-12986803D01*
X25738325Y-12987087D01*
X25782240Y-12982234D01*
X25823630Y-12964304D01*
X25838122Y-12952575D01*
X25864156Y-12915088D01*
X25874074Y-12871210D01*
X25874392Y-12860691D01*
X25869176Y-12813628D01*
X25849904Y-12771027D01*
X25816432Y-12741680D01*
X25768760Y-12725586D01*
X25726015Y-12722205D01*
X25631273Y-12722205D01*
X25631273Y-12582401D01*
G37*
G36*
X26524176Y-12893664D02*
G01*
X26728168Y-12216623D01*
X26934577Y-12216623D01*
X26621116Y-13117000D01*
X26427676Y-13117000D01*
X26115533Y-12216623D01*
X26321283Y-12216623D01*
X26524176Y-12893664D01*
G37*
G36*
X27177916Y-12582401D02*
G01*
X27273098Y-12582401D01*
X27319229Y-12577702D01*
X27360468Y-12560343D01*
X27373995Y-12548988D01*
X27398559Y-12509916D01*
X27406716Y-12463403D01*
X27406748Y-12459962D01*
X27399599Y-12414895D01*
X27374214Y-12376431D01*
X27335746Y-12354009D01*
X27291989Y-12346652D01*
X27284968Y-12346535D01*
X27240416Y-12352814D01*
X27200986Y-12373354D01*
X27198799Y-12375112D01*
X27171871Y-12410080D01*
X27164288Y-12448971D01*
X26985795Y-12448971D01*
X26990289Y-12402049D01*
X27003769Y-12358607D01*
X27023824Y-12322136D01*
X27053527Y-12286357D01*
X27090347Y-12256396D01*
X27129996Y-12234208D01*
X27174076Y-12217516D01*
X27220860Y-12207006D01*
X27265279Y-12202832D01*
X27280572Y-12202554D01*
X27331973Y-12204942D01*
X27379016Y-12212106D01*
X27421700Y-12224046D01*
X27465990Y-12244012D01*
X27504347Y-12270478D01*
X27535953Y-12302550D01*
X27559795Y-12339523D01*
X27575875Y-12381398D01*
X27584193Y-12428174D01*
X27585460Y-12457104D01*
X27580143Y-12501741D01*
X27564193Y-12543658D01*
X27547651Y-12570091D01*
X27516121Y-12605331D01*
X27477914Y-12633893D01*
X27448733Y-12649226D01*
X27492491Y-12669220D01*
X27528692Y-12694580D01*
X27559786Y-12728676D01*
X27562159Y-12732097D01*
X27583435Y-12772393D01*
X27595879Y-12817417D01*
X27599528Y-12862450D01*
X27596453Y-12906417D01*
X27585090Y-12953414D01*
X27565354Y-12995783D01*
X27537245Y-13033524D01*
X27512041Y-13057648D01*
X27471137Y-13086256D01*
X27424784Y-13107838D01*
X27380716Y-13120743D01*
X27332646Y-13128487D01*
X27280572Y-13131068D01*
X27231764Y-13128564D01*
X27186403Y-13121052D01*
X27137839Y-13105960D01*
X27093965Y-13084051D01*
X27060094Y-13059847D01*
X27026775Y-13026393D01*
X27001640Y-12988542D01*
X26984688Y-12946295D01*
X26975920Y-12899650D01*
X26974584Y-12871023D01*
X27153297Y-12871023D01*
X27161653Y-12914934D01*
X27188986Y-12952722D01*
X27191325Y-12954773D01*
X27230841Y-12977967D01*
X27274695Y-12986803D01*
X27284968Y-12987087D01*
X27328884Y-12982234D01*
X27370273Y-12964304D01*
X27384766Y-12952575D01*
X27410799Y-12915088D01*
X27420717Y-12871210D01*
X27421036Y-12860691D01*
X27415819Y-12813628D01*
X27396548Y-12771027D01*
X27363076Y-12741680D01*
X27315404Y-12725586D01*
X27272658Y-12722205D01*
X27177916Y-12722205D01*
X27177916Y-12582401D01*
G37*
G36*
X11752553Y-4783553D02*
G01*
X11796700Y-4789001D01*
X11845744Y-4799948D01*
X11892137Y-4815839D01*
X11929793Y-4833394D01*
X11970400Y-4858024D01*
X12006820Y-4886715D01*
X12039054Y-4919465D01*
X12067101Y-4956276D01*
X12081248Y-4979134D01*
X12102179Y-5021356D01*
X12118040Y-5065892D01*
X12128830Y-5112742D01*
X12134551Y-5161906D01*
X12135544Y-5191039D01*
X12135544Y-5469769D01*
X11235167Y-5469769D01*
X11235167Y-5192798D01*
X11385303Y-5192798D01*
X11385303Y-5284462D01*
X11986507Y-5284462D01*
X11986507Y-5194776D01*
X11983109Y-5149633D01*
X11970906Y-5104069D01*
X11949827Y-5064934D01*
X11919873Y-5032229D01*
X11915505Y-5028593D01*
X11876075Y-5003314D01*
X11829007Y-4985069D01*
X11781555Y-4974875D01*
X11736228Y-4970424D01*
X11711953Y-4969682D01*
X11664253Y-4969682D01*
X11615074Y-4971683D01*
X11570579Y-4977688D01*
X11524587Y-4989753D01*
X11479830Y-5010213D01*
X11456084Y-5026615D01*
X11425117Y-5058351D01*
X11402998Y-5096627D01*
X11389727Y-5141442D01*
X11385372Y-5186020D01*
X11385303Y-5192798D01*
X11235167Y-5192798D01*
X11237733Y-5142065D01*
X11245433Y-5093730D01*
X11258266Y-5047793D01*
X11276232Y-5004255D01*
X11288802Y-4980453D01*
X11314339Y-4941451D01*
X11344209Y-4906383D01*
X11378412Y-4875250D01*
X11416950Y-4848050D01*
X11440917Y-4834273D01*
X11485295Y-4813803D01*
X11532261Y-4798360D01*
X11581814Y-4787945D01*
X11626348Y-4783019D01*
X11664912Y-4781737D01*
X11706458Y-4781737D01*
X11752553Y-4783553D01*
G37*
G36*
X11837470Y-3944668D02*
G01*
X11881368Y-3950011D01*
X11930064Y-3962005D01*
X11974418Y-3980088D01*
X12014428Y-4004261D01*
X12050096Y-4034524D01*
X12066301Y-4051939D01*
X12094613Y-4090373D01*
X12117068Y-4133135D01*
X12133666Y-4180224D01*
X12144405Y-4231641D01*
X12148880Y-4277794D01*
X12149612Y-4306929D01*
X12146757Y-4359193D01*
X12138192Y-4407861D01*
X12123916Y-4452933D01*
X12103931Y-4494410D01*
X12078235Y-4532291D01*
X12046830Y-4566577D01*
X12032668Y-4579284D01*
X11993993Y-4607844D01*
X11951056Y-4631564D01*
X11903859Y-4650443D01*
X11852400Y-4664481D01*
X11808165Y-4672226D01*
X11761203Y-4676873D01*
X11711513Y-4678422D01*
X11656119Y-4678422D01*
X11608334Y-4676815D01*
X11562744Y-4671992D01*
X11519349Y-4663955D01*
X11471495Y-4650515D01*
X11426629Y-4632700D01*
X11385379Y-4610813D01*
X11348568Y-4585161D01*
X11311934Y-4551234D01*
X11281098Y-4512388D01*
X11274294Y-4501908D01*
X11251021Y-4457669D01*
X11236112Y-4416166D01*
X11226293Y-4372053D01*
X11221566Y-4325333D01*
X11221098Y-4304511D01*
X11223138Y-4257288D01*
X11229256Y-4213028D01*
X11241981Y-4163827D01*
X11260580Y-4118891D01*
X11285052Y-4078221D01*
X11304629Y-4053478D01*
X11338318Y-4020606D01*
X11376737Y-3993375D01*
X11419885Y-3971785D01*
X11467762Y-3955837D01*
X11511273Y-3946857D01*
X11538956Y-3943349D01*
X11538956Y-4128876D01*
X11493676Y-4135473D01*
X11448676Y-4151046D01*
X11412560Y-4177456D01*
X11388583Y-4214797D01*
X11376325Y-4259889D01*
X11373213Y-4304511D01*
X11378499Y-4352898D01*
X11394357Y-4393947D01*
X11424375Y-4430951D01*
X11440038Y-4443216D01*
X11483469Y-4465529D01*
X11531884Y-4479436D01*
X11581821Y-4487029D01*
X11630249Y-4490138D01*
X11647546Y-4490477D01*
X11715910Y-4490477D01*
X11768125Y-4488924D01*
X11814808Y-4484264D01*
X11862277Y-4474901D01*
X11907305Y-4459022D01*
X11930453Y-4446294D01*
X11966156Y-4413699D01*
X11988636Y-4371143D01*
X11997562Y-4324327D01*
X11998157Y-4306929D01*
X11995062Y-4262043D01*
X11982873Y-4216580D01*
X11959029Y-4178774D01*
X11923491Y-4152025D01*
X11880323Y-4136412D01*
X11837470Y-4129975D01*
X11837470Y-3944668D01*
G37*
G36*
X11752553Y-3141069D02*
G01*
X11796700Y-3146517D01*
X11845744Y-3157464D01*
X11892137Y-3173354D01*
X11929793Y-3190910D01*
X11970400Y-3215540D01*
X12006820Y-3244230D01*
X12039054Y-3276981D01*
X12067101Y-3313792D01*
X12081248Y-3336650D01*
X12102179Y-3378871D01*
X12118040Y-3423407D01*
X12128830Y-3470258D01*
X12134551Y-3519422D01*
X12135544Y-3548555D01*
X12135544Y-3827285D01*
X11235167Y-3827285D01*
X11235167Y-3550313D01*
X11385303Y-3550313D01*
X11385303Y-3641978D01*
X11986507Y-3641978D01*
X11986507Y-3552292D01*
X11983109Y-3507148D01*
X11970906Y-3461584D01*
X11949827Y-3422450D01*
X11919873Y-3389745D01*
X11915505Y-3386109D01*
X11876075Y-3360830D01*
X11829007Y-3342585D01*
X11781555Y-3332391D01*
X11736228Y-3327939D01*
X11711953Y-3327197D01*
X11664253Y-3327197D01*
X11615074Y-3329199D01*
X11570579Y-3335204D01*
X11524587Y-3347268D01*
X11479830Y-3367729D01*
X11456084Y-3384130D01*
X11425117Y-3415867D01*
X11402998Y-3454143D01*
X11389727Y-3498958D01*
X11385372Y-3543536D01*
X11385303Y-3550313D01*
X11235167Y-3550313D01*
X11237733Y-3499580D01*
X11245433Y-3451245D01*
X11258266Y-3405309D01*
X11276232Y-3361771D01*
X11288802Y-3337968D01*
X11314339Y-3298967D01*
X11344209Y-3263899D01*
X11378412Y-3232765D01*
X11416950Y-3205566D01*
X11440917Y-3191789D01*
X11485295Y-3171318D01*
X11532261Y-3155875D01*
X11581814Y-3145460D01*
X11626348Y-3140535D01*
X11664912Y-3139253D01*
X11706458Y-3139253D01*
X11752553Y-3141069D01*
G37*
G36*
X19839136Y-4807700D02*
G01*
X19510946Y-4976301D01*
X19510946Y-5124239D01*
X19839136Y-5124239D01*
X19839136Y-5309546D01*
X18938759Y-5309546D01*
X18938759Y-4975202D01*
X19088895Y-4975202D01*
X19088895Y-5124239D01*
X19360810Y-5124239D01*
X19360810Y-4974542D01*
X19356576Y-4930225D01*
X19340656Y-4887494D01*
X19324980Y-4866392D01*
X19288495Y-4840095D01*
X19245424Y-4828863D01*
X19226501Y-4827923D01*
X19182225Y-4833024D01*
X19140337Y-4851867D01*
X19125604Y-4864193D01*
X19100510Y-4903185D01*
X19090185Y-4948460D01*
X19088895Y-4975202D01*
X18938759Y-4975202D01*
X18940503Y-4927118D01*
X18945735Y-4882608D01*
X18956619Y-4833913D01*
X18972526Y-4790366D01*
X18997432Y-4746066D01*
X19010200Y-4729225D01*
X19044178Y-4695478D01*
X19083794Y-4670020D01*
X19129049Y-4652850D01*
X19172325Y-4644731D01*
X19211554Y-4642616D01*
X19255806Y-4645103D01*
X19301024Y-4653845D01*
X19345598Y-4670941D01*
X19365646Y-4682404D01*
X19401783Y-4711306D01*
X19432983Y-4748280D01*
X19456841Y-4788458D01*
X19463905Y-4803304D01*
X19830563Y-4608545D01*
X19839136Y-4608545D01*
X19839136Y-4807700D01*
G37*
G36*
X19088895Y-3859183D02*
G01*
X19088895Y-4134836D01*
X19839136Y-4134836D01*
X19839136Y-4320362D01*
X19088895Y-4320362D01*
X19088895Y-4592278D01*
X18938759Y-4592278D01*
X18938759Y-3859183D01*
X19088895Y-3859183D01*
G37*
G36*
X19603930Y-3300624D02*
G01*
X19559880Y-3308787D01*
X19524819Y-3335488D01*
X19523036Y-3337773D01*
X19499489Y-3377610D01*
X19480684Y-3421634D01*
X19465207Y-3465230D01*
X19463246Y-3471203D01*
X19447597Y-3516939D01*
X19430157Y-3562382D01*
X19410983Y-3605410D01*
X19401477Y-3623977D01*
X19374036Y-3668116D01*
X19343783Y-3704773D01*
X19310718Y-3733950D01*
X19267328Y-3759086D01*
X19219888Y-3773450D01*
X19177262Y-3777191D01*
X19133058Y-3773176D01*
X19088003Y-3759488D01*
X19046690Y-3736085D01*
X19013279Y-3706894D01*
X18984763Y-3670706D01*
X18963283Y-3632153D01*
X18957004Y-3618042D01*
X18941383Y-3573270D01*
X18930875Y-3525507D01*
X18925826Y-3480540D01*
X18924690Y-3445265D01*
X18926888Y-3398333D01*
X18933483Y-3354040D01*
X18946157Y-3307363D01*
X18959861Y-3273367D01*
X18981816Y-3233616D01*
X19011595Y-3195688D01*
X19047041Y-3164330D01*
X19058780Y-3156203D01*
X19100455Y-3134178D01*
X19145522Y-3120311D01*
X19193981Y-3114601D01*
X19204080Y-3114438D01*
X19204080Y-3299965D01*
X19157964Y-3306386D01*
X19118606Y-3327664D01*
X19107140Y-3338872D01*
X19083398Y-3378976D01*
X19073629Y-3422994D01*
X19072408Y-3448342D01*
X19076489Y-3495050D01*
X19091563Y-3538838D01*
X19101424Y-3554075D01*
X19135057Y-3582431D01*
X19177921Y-3591884D01*
X19220896Y-3579414D01*
X19252220Y-3547700D01*
X19274085Y-3508555D01*
X19291456Y-3467009D01*
X19306429Y-3422679D01*
X19308054Y-3417348D01*
X19323587Y-3369987D01*
X19340237Y-3326823D01*
X19361690Y-3280566D01*
X19384750Y-3240352D01*
X19413685Y-3201074D01*
X19426756Y-3186758D01*
X19464207Y-3155118D01*
X19506000Y-3132518D01*
X19552135Y-3118958D01*
X19596064Y-3114508D01*
X19602611Y-3114438D01*
X19651536Y-3118677D01*
X19695602Y-3131394D01*
X19734808Y-3152589D01*
X19769154Y-3182262D01*
X19786599Y-3203025D01*
X19812551Y-3244609D01*
X19832130Y-3292043D01*
X19843838Y-3337354D01*
X19850862Y-3386963D01*
X19853139Y-3431586D01*
X19853204Y-3440868D01*
X19851384Y-3485463D01*
X19844848Y-3534239D01*
X19833558Y-3580679D01*
X19817515Y-3624783D01*
X19815175Y-3630132D01*
X19794293Y-3670249D01*
X19766595Y-3709337D01*
X19734447Y-3742027D01*
X19710542Y-3760265D01*
X19671424Y-3781942D01*
X19629004Y-3796524D01*
X19583279Y-3804013D01*
X19556449Y-3805108D01*
X19556449Y-3618921D01*
X19607472Y-3612662D01*
X19647938Y-3593883D01*
X19681807Y-3556151D01*
X19699401Y-3510246D01*
X19705998Y-3462429D01*
X19706585Y-3440868D01*
X19702783Y-3395356D01*
X19688736Y-3352650D01*
X19679547Y-3337773D01*
X19644740Y-3308787D01*
X19603930Y-3300624D01*
G37*
G36*
X26017707Y-15195164D02*
G01*
X26069804Y-14736623D01*
X26574288Y-14736623D01*
X26574288Y-14885660D01*
X26216203Y-14885660D01*
X26194002Y-15080199D01*
X26234617Y-15062231D01*
X26281078Y-15050153D01*
X26324939Y-15046160D01*
X26329410Y-15046127D01*
X26375677Y-15048940D01*
X26424714Y-15059333D01*
X26468428Y-15077383D01*
X26506820Y-15103090D01*
X26530983Y-15126141D01*
X26559420Y-15164102D01*
X26580872Y-15208163D01*
X26593700Y-15250785D01*
X26601398Y-15297890D01*
X26603963Y-15349477D01*
X26601042Y-15397139D01*
X26592278Y-15441950D01*
X26577673Y-15483909D01*
X26567034Y-15505988D01*
X26540977Y-15546100D01*
X26508696Y-15580159D01*
X26470189Y-15608165D01*
X26461741Y-15613039D01*
X26421198Y-15631422D01*
X26376725Y-15643789D01*
X26328323Y-15650139D01*
X26299734Y-15651068D01*
X26254782Y-15648460D01*
X26206998Y-15639444D01*
X26161488Y-15623988D01*
X26148279Y-15618095D01*
X26107467Y-15594731D01*
X26072408Y-15566129D01*
X26043101Y-15532289D01*
X26037930Y-15524892D01*
X26016344Y-15485638D01*
X26002141Y-15443164D01*
X25995323Y-15397470D01*
X25994846Y-15387945D01*
X26171800Y-15387945D01*
X26181994Y-15432580D01*
X26206834Y-15471845D01*
X26210928Y-15475872D01*
X26249890Y-15499283D01*
X26295701Y-15507056D01*
X26299075Y-15507087D01*
X26343762Y-15499867D01*
X26381581Y-15475945D01*
X26392498Y-15463343D01*
X26413704Y-15421815D01*
X26423204Y-15377325D01*
X26425251Y-15339585D01*
X26421558Y-15295020D01*
X26407380Y-15250837D01*
X26387442Y-15221762D01*
X26351677Y-15195290D01*
X26309389Y-15182832D01*
X26280610Y-15180876D01*
X26236200Y-15185606D01*
X26192983Y-15203079D01*
X26177295Y-15214508D01*
X26159930Y-15230555D01*
X26017707Y-15195164D01*
G37*
G36*
X27065802Y-15413664D02*
G01*
X27269794Y-14736623D01*
X27476203Y-14736623D01*
X27162742Y-15637000D01*
X26969302Y-15637000D01*
X26657159Y-14736623D01*
X26862909Y-14736623D01*
X27065802Y-15413664D01*
G37*
G36*
X17921808Y-16175665D02*
G01*
X18136742Y-16175665D01*
X18136742Y-16755986D01*
X18134798Y-16798907D01*
X18127615Y-16843201D01*
X18115141Y-16881267D01*
X18094405Y-16917146D01*
X18081445Y-16932036D01*
X18049706Y-16956228D01*
X18009784Y-16973508D01*
X17968141Y-16982958D01*
X17927461Y-16986846D01*
X17905395Y-16987332D01*
X17646693Y-16987332D01*
X17603711Y-16985388D01*
X17559383Y-16978206D01*
X17521320Y-16965732D01*
X17485489Y-16944996D01*
X17470643Y-16932036D01*
X17446450Y-16900223D01*
X17429170Y-16860277D01*
X17419720Y-16818653D01*
X17415832Y-16778018D01*
X17415346Y-16755986D01*
X17415346Y-16175665D01*
X17630280Y-16175665D01*
X17630280Y-16755986D01*
X17640405Y-16795583D01*
X17673958Y-16815651D01*
X17691633Y-16817144D01*
X17860454Y-16817144D01*
X17900178Y-16807050D01*
X17920849Y-16770320D01*
X17921808Y-16755986D01*
X17921808Y-16175665D01*
G37*
G36*
X18638514Y-16976000D02*
G01*
X18220957Y-16976000D01*
X18220957Y-16806006D01*
X18322171Y-16806006D01*
X18322171Y-16345658D01*
X18220957Y-16345658D01*
X18220957Y-16175665D01*
X18638514Y-16175665D01*
X18638514Y-16345658D01*
X18537300Y-16345658D01*
X18537300Y-16806006D01*
X18638514Y-16806006D01*
X18638514Y-16976000D01*
G37*
G36*
X19423413Y-16976000D02*
G01*
X19199686Y-16976000D01*
X18939421Y-16520535D01*
X18939421Y-16976000D01*
X18724488Y-16976000D01*
X18724488Y-16175665D01*
X18948214Y-16175665D01*
X19208284Y-16630933D01*
X19208284Y-16175665D01*
X19423413Y-16175665D01*
X19423413Y-16976000D01*
G37*
G36*
X19925772Y-16976000D02*
G01*
X19508214Y-16976000D01*
X19508214Y-16806006D01*
X19609428Y-16806006D01*
X19609428Y-16345658D01*
X19508214Y-16345658D01*
X19508214Y-16175665D01*
X19925772Y-16175665D01*
X19925772Y-16345658D01*
X19824557Y-16345658D01*
X19824557Y-16806006D01*
X19925772Y-16806006D01*
X19925772Y-16976000D01*
G37*
G36*
X20544775Y-16166283D02*
G01*
X20589103Y-16173490D01*
X20627167Y-16186008D01*
X20662997Y-16206818D01*
X20677844Y-16219824D01*
X20702036Y-16251551D01*
X20719317Y-16291436D01*
X20728767Y-16333027D01*
X20732655Y-16373647D01*
X20733141Y-16395678D01*
X20733141Y-16755986D01*
X20731197Y-16798907D01*
X20724015Y-16843201D01*
X20711541Y-16881267D01*
X20690804Y-16917146D01*
X20677844Y-16932036D01*
X20646105Y-16956228D01*
X20606183Y-16973508D01*
X20564540Y-16982958D01*
X20523860Y-16986846D01*
X20501794Y-16987332D01*
X20220426Y-16987332D01*
X20177504Y-16985388D01*
X20133211Y-16978206D01*
X20095145Y-16965732D01*
X20059266Y-16944996D01*
X20044376Y-16932036D01*
X20020184Y-16900223D01*
X20002903Y-16860277D01*
X19993453Y-16818653D01*
X19989565Y-16778018D01*
X19989079Y-16755986D01*
X19989079Y-16395678D01*
X20204208Y-16395678D01*
X20204208Y-16755986D01*
X20214334Y-16795583D01*
X20247887Y-16815651D01*
X20265562Y-16817144D01*
X20456853Y-16817144D01*
X20496577Y-16807050D01*
X20517248Y-16770320D01*
X20518207Y-16755986D01*
X20518207Y-16395678D01*
X20508081Y-16356081D01*
X20474528Y-16336013D01*
X20456853Y-16334520D01*
X20265562Y-16334520D01*
X20225838Y-16344614D01*
X20205167Y-16381344D01*
X20204208Y-16395678D01*
X19989079Y-16395678D01*
X19991023Y-16352764D01*
X19998205Y-16308496D01*
X20010680Y-16270474D01*
X20031416Y-16234668D01*
X20044376Y-16219824D01*
X20076189Y-16195546D01*
X20116134Y-16178205D01*
X20157759Y-16168721D01*
X20198393Y-16164819D01*
X20220426Y-16164332D01*
X20501794Y-16164332D01*
X20544775Y-16166283D01*
G37*
G36*
X20795472Y-16660829D02*
G01*
X20795472Y-16490836D01*
X21269303Y-16490836D01*
X21269303Y-16660829D01*
X20795472Y-16660829D01*
G37*
G36*
X21861738Y-16175665D02*
G01*
X22076672Y-16175665D01*
X22076672Y-16755986D01*
X22074728Y-16798907D01*
X22067546Y-16843201D01*
X22055072Y-16881267D01*
X22034335Y-16917146D01*
X22021375Y-16932036D01*
X21989636Y-16956228D01*
X21949714Y-16973508D01*
X21908071Y-16982958D01*
X21867391Y-16986846D01*
X21845325Y-16987332D01*
X21586623Y-16987332D01*
X21543642Y-16985388D01*
X21499314Y-16978206D01*
X21461250Y-16965732D01*
X21425420Y-16944996D01*
X21410573Y-16932036D01*
X21386380Y-16900223D01*
X21369100Y-16860277D01*
X21359650Y-16818653D01*
X21355762Y-16778018D01*
X21355276Y-16755986D01*
X21355276Y-16175665D01*
X21570210Y-16175665D01*
X21570210Y-16755986D01*
X21580336Y-16795583D01*
X21613888Y-16815651D01*
X21631564Y-16817144D01*
X21800384Y-16817144D01*
X21840108Y-16807050D01*
X21860779Y-16770320D01*
X21861738Y-16755986D01*
X21861738Y-16175665D01*
G37*
G36*
X22171047Y-16799949D02*
G01*
X22228260Y-16803022D01*
X22281856Y-16805793D01*
X22331836Y-16808261D01*
X22378199Y-16810427D01*
X22420945Y-16812291D01*
X22460074Y-16813853D01*
X22506621Y-16815465D01*
X22546738Y-16816539D01*
X22587842Y-16817127D01*
X22594857Y-16817144D01*
X22631396Y-16803857D01*
X22644878Y-16767123D01*
X22644878Y-16672161D01*
X22392234Y-16672161D01*
X22349252Y-16670217D01*
X22304924Y-16663035D01*
X22266861Y-16650561D01*
X22231030Y-16629825D01*
X22216183Y-16616865D01*
X22191991Y-16585125D01*
X22174711Y-16545204D01*
X22165261Y-16503561D01*
X22161373Y-16462881D01*
X22160887Y-16440815D01*
X22160887Y-16407011D01*
X22162831Y-16364030D01*
X22170013Y-16319702D01*
X22182487Y-16281638D01*
X22203223Y-16245808D01*
X22216183Y-16230961D01*
X22247923Y-16206769D01*
X22287844Y-16189489D01*
X22329487Y-16180039D01*
X22370168Y-16176151D01*
X22392234Y-16175665D01*
X22793573Y-16175665D01*
X22793573Y-16345658D01*
X22437174Y-16345658D01*
X22397577Y-16355783D01*
X22377509Y-16389336D01*
X22376016Y-16407011D01*
X22376016Y-16429482D01*
X22386109Y-16469206D01*
X22422840Y-16489877D01*
X22437174Y-16490836D01*
X22639798Y-16490836D01*
X22679995Y-16492725D01*
X22721630Y-16499704D01*
X22762275Y-16513977D01*
X22795520Y-16534966D01*
X22806079Y-16544569D01*
X22832053Y-16579367D01*
X22848005Y-16618162D01*
X22856454Y-16658178D01*
X22859760Y-16703861D01*
X22859812Y-16710849D01*
X22859812Y-16767123D01*
X22857923Y-16807393D01*
X22850944Y-16849114D01*
X22836671Y-16889857D01*
X22815681Y-16923199D01*
X22806079Y-16933794D01*
X22771280Y-16959675D01*
X22732485Y-16975569D01*
X22692469Y-16983986D01*
X22646787Y-16987280D01*
X22639798Y-16987332D01*
X22599408Y-16987055D01*
X22557494Y-16986224D01*
X22518067Y-16984988D01*
X22414509Y-16980494D01*
X22370884Y-16978190D01*
X22326325Y-16975529D01*
X22280831Y-16972511D01*
X22234404Y-16969136D01*
X22195001Y-16966051D01*
X22171047Y-16964080D01*
X22171047Y-16799949D01*
G37*
G36*
X23441642Y-16177492D02*
G01*
X23483277Y-16184242D01*
X23523922Y-16198048D01*
X23560802Y-16221346D01*
X23567726Y-16227639D01*
X23593700Y-16260985D01*
X23609652Y-16297710D01*
X23618888Y-16341103D01*
X23621459Y-16384541D01*
X23618482Y-16425394D01*
X23608332Y-16464559D01*
X23590977Y-16497674D01*
X23565113Y-16529651D01*
X23533727Y-16552189D01*
X23573222Y-16570194D01*
X23602672Y-16596682D01*
X23626797Y-16633038D01*
X23643539Y-16672943D01*
X23652331Y-16711582D01*
X23655251Y-16753041D01*
X23655262Y-16755986D01*
X23653373Y-16796189D01*
X23646394Y-16837850D01*
X23632121Y-16878547D01*
X23611132Y-16911868D01*
X23601529Y-16922461D01*
X23566715Y-16948342D01*
X23527880Y-16964236D01*
X23487809Y-16972653D01*
X23442053Y-16975947D01*
X23435053Y-16976000D01*
X22945004Y-16976000D01*
X22945004Y-16806006D01*
X23159938Y-16806006D01*
X23378779Y-16806006D01*
X23418503Y-16795881D01*
X23438635Y-16762328D01*
X23440133Y-16744653D01*
X23440133Y-16722182D01*
X23430007Y-16682458D01*
X23396454Y-16662326D01*
X23378779Y-16660829D01*
X23159938Y-16660829D01*
X23159938Y-16806006D01*
X22945004Y-16806006D01*
X22945004Y-16490836D01*
X23159938Y-16490836D01*
X23345171Y-16490836D01*
X23384769Y-16480710D01*
X23404837Y-16447157D01*
X23406330Y-16429482D01*
X23406330Y-16407011D01*
X23396236Y-16367287D01*
X23359505Y-16346616D01*
X23345171Y-16345658D01*
X23159938Y-16345658D01*
X23159938Y-16490836D01*
X22945004Y-16490836D01*
X22945004Y-16175665D01*
X23401445Y-16175665D01*
X23441642Y-16177492D01*
G37*
G36*
X19527948Y-17519665D02*
G01*
X19742882Y-17519665D01*
X19742882Y-18099986D01*
X19740938Y-18142907D01*
X19733755Y-18187201D01*
X19721281Y-18225267D01*
X19700545Y-18261146D01*
X19687585Y-18276036D01*
X19655846Y-18300228D01*
X19615924Y-18317508D01*
X19574281Y-18326958D01*
X19533601Y-18330846D01*
X19511535Y-18331332D01*
X19252833Y-18331332D01*
X19209851Y-18329388D01*
X19165523Y-18322206D01*
X19127460Y-18309732D01*
X19091629Y-18288996D01*
X19076783Y-18276036D01*
X19052590Y-18244223D01*
X19035310Y-18204277D01*
X19025860Y-18162653D01*
X19021972Y-18122018D01*
X19021486Y-18099986D01*
X19021486Y-17519665D01*
X19236420Y-17519665D01*
X19236420Y-18099986D01*
X19246545Y-18139583D01*
X19280098Y-18159651D01*
X19297773Y-18161144D01*
X19466594Y-18161144D01*
X19506318Y-18151050D01*
X19526989Y-18114320D01*
X19527948Y-18099986D01*
X19527948Y-17519665D01*
G37*
G36*
X20596950Y-18320000D02*
G01*
X20364235Y-18320000D01*
X20313628Y-18179316D01*
X20040858Y-18179316D01*
X19990251Y-18320000D01*
X19757341Y-18320000D01*
X19870765Y-18020460D01*
X20095959Y-18020460D01*
X20258527Y-18020460D01*
X20177243Y-17781688D01*
X20095959Y-18020460D01*
X19870765Y-18020460D01*
X20060397Y-17519665D01*
X20294089Y-17519665D01*
X20596950Y-18320000D01*
G37*
G36*
X21155772Y-17521609D02*
G01*
X21200100Y-17528791D01*
X21238164Y-17541265D01*
X21273994Y-17562001D01*
X21288841Y-17574961D01*
X21313033Y-17606700D01*
X21330314Y-17646622D01*
X21339764Y-17688265D01*
X21343652Y-17728945D01*
X21344138Y-17751011D01*
X21344138Y-17852226D01*
X21342604Y-17891875D01*
X21337097Y-17932333D01*
X21326113Y-17971660D01*
X21312093Y-18001116D01*
X21286507Y-18033444D01*
X21253809Y-18056814D01*
X21217913Y-18070286D01*
X21359769Y-18320000D01*
X21125882Y-18320000D01*
X20996531Y-18083572D01*
X20848813Y-18083572D01*
X20848813Y-18320000D01*
X20633880Y-18320000D01*
X20633880Y-17913579D01*
X20848813Y-17913579D01*
X21067655Y-17913579D01*
X21107379Y-17903454D01*
X21127511Y-17869901D01*
X21129009Y-17852226D01*
X21129009Y-17751011D01*
X21118883Y-17711287D01*
X21085330Y-17691155D01*
X21067655Y-17689658D01*
X20848813Y-17689658D01*
X20848813Y-17913579D01*
X20633880Y-17913579D01*
X20633880Y-17519665D01*
X21112791Y-17519665D01*
X21155772Y-17521609D01*
G37*
G36*
X21834773Y-18320000D02*
G01*
X21619644Y-18320000D01*
X21619644Y-17689658D01*
X21383412Y-17689658D01*
X21383412Y-17519665D01*
X22071200Y-17519665D01*
X22071200Y-17689658D01*
X21834773Y-17689658D01*
X21834773Y-18320000D01*
G37*
G36*
X19191088Y-19652080D02*
G01*
X19143713Y-19656236D01*
X19097943Y-19659982D01*
X19053776Y-19663320D01*
X19011213Y-19666250D01*
X18970254Y-19668770D01*
X18930899Y-19670882D01*
X18880921Y-19673062D01*
X18833794Y-19674515D01*
X18789519Y-19675242D01*
X18768451Y-19675332D01*
X18728180Y-19673450D01*
X18686460Y-19666497D01*
X18645717Y-19652275D01*
X18612375Y-19631362D01*
X18601779Y-19621794D01*
X18575899Y-19586886D01*
X18560005Y-19547993D01*
X18551587Y-19507892D01*
X18548293Y-19462124D01*
X18548241Y-19455123D01*
X18548241Y-19095011D01*
X18550185Y-19052030D01*
X18557367Y-19007702D01*
X18569841Y-18969638D01*
X18590578Y-18933808D01*
X18603538Y-18918961D01*
X18635350Y-18894769D01*
X18675296Y-18877489D01*
X18716921Y-18868039D01*
X18757555Y-18864151D01*
X18779588Y-18863665D01*
X19191088Y-18863665D01*
X19191088Y-19033658D01*
X18824724Y-19033658D01*
X18785000Y-19043783D01*
X18764868Y-19077336D01*
X18763370Y-19095011D01*
X18763370Y-19455123D01*
X18776657Y-19491857D01*
X18812414Y-19505144D01*
X18852540Y-19504757D01*
X18862826Y-19504558D01*
X18902530Y-19503567D01*
X18921249Y-19502995D01*
X18961340Y-19501456D01*
X18982407Y-19500650D01*
X19022888Y-19498651D01*
X19062324Y-19496156D01*
X19103420Y-19493445D01*
X19144259Y-19490850D01*
X19186136Y-19488253D01*
X19191088Y-19487949D01*
X19191088Y-19652080D01*
G37*
G36*
X19786840Y-18865609D02*
G01*
X19831168Y-18872791D01*
X19869232Y-18885265D01*
X19905062Y-18906001D01*
X19919909Y-18918961D01*
X19944101Y-18950700D01*
X19961381Y-18990622D01*
X19970832Y-19032265D01*
X19974720Y-19072945D01*
X19975206Y-19095011D01*
X19975206Y-19207558D01*
X19973262Y-19250540D01*
X19966079Y-19294868D01*
X19953605Y-19332931D01*
X19932869Y-19368762D01*
X19919909Y-19383609D01*
X19888170Y-19407801D01*
X19848248Y-19425081D01*
X19806605Y-19434531D01*
X19765925Y-19438419D01*
X19743859Y-19438905D01*
X19479881Y-19438905D01*
X19479881Y-19664000D01*
X19264947Y-19664000D01*
X19264947Y-19268912D01*
X19479881Y-19268912D01*
X19698723Y-19268912D01*
X19738447Y-19258786D01*
X19758579Y-19225234D01*
X19760076Y-19207558D01*
X19760076Y-19095011D01*
X19749951Y-19055287D01*
X19716398Y-19035155D01*
X19698723Y-19033658D01*
X19479881Y-19033658D01*
X19479881Y-19268912D01*
X19264947Y-19268912D01*
X19264947Y-18863665D01*
X19743859Y-18863665D01*
X19786840Y-18865609D01*
G37*
G36*
X20635052Y-19117482D02*
G01*
X20631069Y-19159352D01*
X20619120Y-19198623D01*
X20599204Y-19235295D01*
X20571323Y-19269367D01*
X20551814Y-19287670D01*
X20520530Y-19313262D01*
X20497299Y-19330852D01*
X20271033Y-19494006D01*
X20635052Y-19494006D01*
X20635052Y-19664000D01*
X20014675Y-19664000D01*
X20014675Y-19440859D01*
X20419923Y-19148159D01*
X20419923Y-19095011D01*
X20409797Y-19055287D01*
X20376244Y-19035155D01*
X20358569Y-19033658D01*
X20037146Y-19033658D01*
X20037146Y-18863665D01*
X20403705Y-18863665D01*
X20446620Y-18865609D01*
X20490888Y-18872791D01*
X20528910Y-18885265D01*
X20564716Y-18906001D01*
X20579560Y-18918961D01*
X20603838Y-18950700D01*
X20621179Y-18990622D01*
X20630663Y-19032265D01*
X20634564Y-19072945D01*
X20635052Y-19095011D01*
X20635052Y-19117482D01*
G37*
G36*
X20838262Y-19664000D02*
G01*
X20838262Y-19053197D01*
X20711647Y-19097161D01*
X20650684Y-18956672D01*
X20865813Y-18863665D01*
X21053391Y-18863665D01*
X21053391Y-19664000D01*
X20838262Y-19664000D01*
G37*
G36*
X21639178Y-18854283D02*
G01*
X21683506Y-18861490D01*
X21721569Y-18874008D01*
X21757400Y-18894818D01*
X21772247Y-18907824D01*
X21796439Y-18939551D01*
X21813719Y-18979436D01*
X21823169Y-19021027D01*
X21827057Y-19061647D01*
X21827543Y-19083678D01*
X21827543Y-19443986D01*
X21825599Y-19486907D01*
X21818417Y-19531201D01*
X21805943Y-19569267D01*
X21785207Y-19605146D01*
X21772247Y-19620036D01*
X21740507Y-19644228D01*
X21700586Y-19661508D01*
X21658943Y-19670958D01*
X21618263Y-19674846D01*
X21596197Y-19675332D01*
X21382240Y-19675332D01*
X21339318Y-19673388D01*
X21295025Y-19666206D01*
X21256958Y-19653732D01*
X21221079Y-19632996D01*
X21206190Y-19620036D01*
X21181997Y-19588223D01*
X21164717Y-19548277D01*
X21155267Y-19506653D01*
X21151379Y-19466018D01*
X21150893Y-19443986D01*
X21150893Y-19083678D01*
X21366022Y-19083678D01*
X21366022Y-19443986D01*
X21376148Y-19483583D01*
X21409701Y-19503651D01*
X21427376Y-19505144D01*
X21551060Y-19505144D01*
X21590785Y-19495050D01*
X21611456Y-19458320D01*
X21612414Y-19443986D01*
X21612414Y-19083678D01*
X21602288Y-19044081D01*
X21568736Y-19024013D01*
X21551060Y-19022520D01*
X21427376Y-19022520D01*
X21387652Y-19032614D01*
X21366981Y-19069344D01*
X21366022Y-19083678D01*
X21150893Y-19083678D01*
X21152837Y-19040764D01*
X21160019Y-18996496D01*
X21172493Y-18958474D01*
X21193229Y-18922668D01*
X21206190Y-18907824D01*
X21238002Y-18883546D01*
X21277948Y-18866205D01*
X21319573Y-18856721D01*
X21360207Y-18852819D01*
X21382240Y-18852332D01*
X21596197Y-18852332D01*
X21639178Y-18854283D01*
G37*
G36*
X22499113Y-19117482D02*
G01*
X22495130Y-19159352D01*
X22483181Y-19198623D01*
X22463266Y-19235295D01*
X22435384Y-19269367D01*
X22415876Y-19287670D01*
X22384591Y-19313262D01*
X22361361Y-19330852D01*
X22135094Y-19494006D01*
X22499113Y-19494006D01*
X22499113Y-19664000D01*
X21878737Y-19664000D01*
X21878737Y-19440859D01*
X22283984Y-19148159D01*
X22283984Y-19095011D01*
X22273859Y-19055287D01*
X22240306Y-19035155D01*
X22222631Y-19033658D01*
X21901207Y-19033658D01*
X21901207Y-18863665D01*
X22267767Y-18863665D01*
X22310682Y-18865609D01*
X22354950Y-18872791D01*
X22392972Y-18885265D01*
X22428778Y-18906001D01*
X22443622Y-18918961D01*
X22467899Y-18950700D01*
X22485240Y-18990622D01*
X22494724Y-19032265D01*
X22498626Y-19072945D01*
X22499113Y-19095011D01*
X22499113Y-19117482D01*
G37*
D12*
G36*
X16828062Y-17284455D02*
G01*
X16793801Y-17290804D01*
X16766531Y-17311571D01*
X16765145Y-17313349D01*
X16746830Y-17344333D01*
X16732204Y-17378574D01*
X16720167Y-17412482D01*
X16718641Y-17417128D01*
X16706470Y-17452700D01*
X16692905Y-17488045D01*
X16677992Y-17521511D01*
X16670598Y-17535952D01*
X16649255Y-17570282D01*
X16625725Y-17598794D01*
X16600008Y-17621486D01*
X16566260Y-17641037D01*
X16529363Y-17652209D01*
X16496209Y-17655118D01*
X16461828Y-17651996D01*
X16426786Y-17641349D01*
X16394653Y-17623147D01*
X16368667Y-17600443D01*
X16346487Y-17572297D01*
X16329781Y-17542311D01*
X16324897Y-17531336D01*
X16312748Y-17496513D01*
X16304575Y-17459364D01*
X16300648Y-17424390D01*
X16299764Y-17396953D01*
X16301474Y-17360451D01*
X16306603Y-17326001D01*
X16316461Y-17289696D01*
X16327120Y-17263255D01*
X16344196Y-17232338D01*
X16367357Y-17202839D01*
X16394926Y-17178449D01*
X16404056Y-17172128D01*
X16436470Y-17154998D01*
X16471522Y-17144212D01*
X16509213Y-17139770D01*
X16517067Y-17139644D01*
X16517067Y-17283942D01*
X16481199Y-17288937D01*
X16450588Y-17305486D01*
X16441669Y-17314204D01*
X16423203Y-17345395D01*
X16415606Y-17379632D01*
X16414656Y-17399347D01*
X16417830Y-17435675D01*
X16429555Y-17469733D01*
X16437224Y-17481584D01*
X16463383Y-17503639D01*
X16496722Y-17510990D01*
X16530146Y-17501292D01*
X16554510Y-17476625D01*
X16571516Y-17446179D01*
X16585026Y-17413865D01*
X16596672Y-17379387D01*
X16597936Y-17375240D01*
X16610017Y-17338404D01*
X16622967Y-17304832D01*
X16639653Y-17268854D01*
X16657588Y-17237577D01*
X16680094Y-17207027D01*
X16690260Y-17195893D01*
X16719389Y-17171284D01*
X16751894Y-17153706D01*
X16787777Y-17143159D01*
X16821944Y-17139699D01*
X16827036Y-17139644D01*
X16865089Y-17142941D01*
X16899362Y-17152832D01*
X16929856Y-17169317D01*
X16956570Y-17192396D01*
X16970138Y-17208545D01*
X16990323Y-17240888D01*
X17005550Y-17277781D01*
X17014657Y-17313023D01*
X17020120Y-17351608D01*
X17021891Y-17386314D01*
X17021942Y-17393534D01*
X17020526Y-17428219D01*
X17015443Y-17466155D01*
X17006662Y-17502275D01*
X16994183Y-17536579D01*
X16992364Y-17540739D01*
X16976122Y-17571941D01*
X16954579Y-17602343D01*
X16929575Y-17627768D01*
X16910982Y-17641953D01*
X16880558Y-17658813D01*
X16847564Y-17670155D01*
X16812000Y-17675980D01*
X16791132Y-17676831D01*
X16791132Y-17532020D01*
X16830816Y-17527151D01*
X16862290Y-17512545D01*
X16888633Y-17483198D01*
X16902317Y-17447495D01*
X16907448Y-17410304D01*
X16907905Y-17393534D01*
X16904947Y-17358135D01*
X16894022Y-17324920D01*
X16886875Y-17313349D01*
X16859803Y-17290804D01*
X16828062Y-17284455D01*
G37*
G36*
X16310706Y-16515090D02*
G01*
X16772838Y-16515090D01*
X16807623Y-16516848D01*
X16846267Y-16523595D01*
X16881534Y-16535404D01*
X16913422Y-16552274D01*
X16941933Y-16574205D01*
X16954921Y-16587069D01*
X16977698Y-16615848D01*
X16995762Y-16648329D01*
X17009113Y-16684513D01*
X17017753Y-16724400D01*
X17021353Y-16760468D01*
X17021942Y-16783342D01*
X17020355Y-16820468D01*
X17015597Y-16855123D01*
X17005699Y-16893447D01*
X16991234Y-16928212D01*
X16972200Y-16959420D01*
X16956973Y-16978248D01*
X16930839Y-17002763D01*
X16901290Y-17022326D01*
X16868328Y-17036936D01*
X16831951Y-17046593D01*
X16792161Y-17051298D01*
X16778138Y-17051765D01*
X16310706Y-17051765D01*
X16310706Y-16907466D01*
X16773864Y-16907466D01*
X16809755Y-16904870D01*
X16845578Y-16894644D01*
X16874565Y-16874640D01*
X16894934Y-16843654D01*
X16904519Y-16807638D01*
X16906024Y-16783342D01*
X16902893Y-16748277D01*
X16890872Y-16713912D01*
X16865452Y-16684455D01*
X16833896Y-16668322D01*
X16793324Y-16660604D01*
X16777796Y-16659902D01*
X16310706Y-16659902D01*
X16310706Y-16515090D01*
G37*
G36*
X16828062Y-16037058D02*
G01*
X16793801Y-16043407D01*
X16766531Y-16064174D01*
X16765145Y-16065952D01*
X16746830Y-16096936D01*
X16732204Y-16131177D01*
X16720167Y-16165085D01*
X16718641Y-16169731D01*
X16706470Y-16205303D01*
X16692905Y-16240647D01*
X16677992Y-16274114D01*
X16670598Y-16288555D01*
X16649255Y-16322885D01*
X16625725Y-16351396D01*
X16600008Y-16374089D01*
X16566260Y-16393640D01*
X16529363Y-16404812D01*
X16496209Y-16407721D01*
X16461828Y-16404599D01*
X16426786Y-16393952D01*
X16394653Y-16375750D01*
X16368667Y-16353046D01*
X16346487Y-16324899D01*
X16329781Y-16294914D01*
X16324897Y-16283939D01*
X16312748Y-16249116D01*
X16304575Y-16211967D01*
X16300648Y-16176993D01*
X16299764Y-16149556D01*
X16301474Y-16113054D01*
X16306603Y-16078604D01*
X16316461Y-16042299D01*
X16327120Y-16015858D01*
X16344196Y-15984940D01*
X16367357Y-15955441D01*
X16394926Y-15931052D01*
X16404056Y-15924731D01*
X16436470Y-15907600D01*
X16471522Y-15896815D01*
X16509213Y-15892373D01*
X16517067Y-15892247D01*
X16517067Y-16036545D01*
X16481199Y-16041540D01*
X16450588Y-16058089D01*
X16441669Y-16066807D01*
X16423203Y-16097998D01*
X16415606Y-16132235D01*
X16414656Y-16151950D01*
X16417830Y-16188278D01*
X16429555Y-16222335D01*
X16437224Y-16234187D01*
X16463383Y-16256242D01*
X16496722Y-16263593D01*
X16530146Y-16253895D01*
X16554510Y-16229228D01*
X16571516Y-16198782D01*
X16585026Y-16166468D01*
X16596672Y-16131990D01*
X16597936Y-16127843D01*
X16610017Y-16091007D01*
X16622967Y-16057435D01*
X16639653Y-16021457D01*
X16657588Y-15990180D01*
X16680094Y-15959630D01*
X16690260Y-15948496D01*
X16719389Y-15923887D01*
X16751894Y-15906309D01*
X16787777Y-15895762D01*
X16821944Y-15892301D01*
X16827036Y-15892247D01*
X16865089Y-15895544D01*
X16899362Y-15905435D01*
X16929856Y-15921920D01*
X16956570Y-15944999D01*
X16970138Y-15961147D01*
X16990323Y-15993491D01*
X17005550Y-16030384D01*
X17014657Y-16065626D01*
X17020120Y-16104211D01*
X17021891Y-16138917D01*
X17021942Y-16146137D01*
X17020526Y-16180822D01*
X17015443Y-16218758D01*
X17006662Y-16254878D01*
X16994183Y-16289182D01*
X16992364Y-16293342D01*
X16976122Y-16324544D01*
X16954579Y-16354946D01*
X16929575Y-16380371D01*
X16910982Y-16394556D01*
X16880558Y-16411416D01*
X16847564Y-16422758D01*
X16812000Y-16428583D01*
X16791132Y-16429434D01*
X16791132Y-16284623D01*
X16830816Y-16279754D01*
X16862290Y-16265148D01*
X16888633Y-16235801D01*
X16902317Y-16200098D01*
X16907448Y-16162907D01*
X16907905Y-16146137D01*
X16904947Y-16110738D01*
X16894022Y-16077523D01*
X16886875Y-16065952D01*
X16859803Y-16043407D01*
X16828062Y-16037058D01*
G37*
G36*
X16580995Y-15263844D02*
G01*
X16615185Y-15271273D01*
X16651200Y-15286200D01*
X16683042Y-15307868D01*
X16707015Y-15331807D01*
X16727293Y-15360127D01*
X16743375Y-15392258D01*
X16755262Y-15428200D01*
X16762954Y-15467952D01*
X16766159Y-15503991D01*
X16766683Y-15526884D01*
X16766683Y-15653401D01*
X17011000Y-15653401D01*
X17011000Y-15797529D01*
X16310706Y-15797529D01*
X16310706Y-15524490D01*
X16310869Y-15521071D01*
X16427479Y-15521071D01*
X16427479Y-15653401D01*
X16649911Y-15653401D01*
X16649911Y-15524490D01*
X16646699Y-15488346D01*
X16634620Y-15453965D01*
X16622727Y-15437295D01*
X16594340Y-15416726D01*
X16560011Y-15407939D01*
X16544764Y-15407205D01*
X16508492Y-15411460D01*
X16475600Y-15425675D01*
X16460647Y-15437466D01*
X16439667Y-15465863D01*
X16429417Y-15498838D01*
X16427479Y-15521071D01*
X16310869Y-15521071D01*
X16312523Y-15486268D01*
X16317973Y-15450417D01*
X16327055Y-15416939D01*
X16339771Y-15385833D01*
X16357972Y-15354282D01*
X16380067Y-15327139D01*
X16406057Y-15304405D01*
X16422179Y-15293681D01*
X16453361Y-15278060D01*
X16486896Y-15267552D01*
X16522784Y-15262156D01*
X16543739Y-15261367D01*
X16580995Y-15263844D01*
G37*
G36*
X16708212Y-14744525D02*
G01*
X16708212Y-15021496D01*
X16895082Y-15021496D01*
X16895082Y-14696311D01*
X17011000Y-14696311D01*
X17011000Y-15165624D01*
X16310706Y-15165624D01*
X16310706Y-14697337D01*
X16427479Y-14697337D01*
X16427479Y-15021496D01*
X16595200Y-15021496D01*
X16595200Y-14744525D01*
X16708212Y-14744525D01*
G37*
G36*
X17011000Y-14045087D02*
G01*
X17011000Y-14189385D01*
X16550235Y-14470289D01*
X17011000Y-14470289D01*
X17011000Y-14614417D01*
X16310706Y-14614417D01*
X16310706Y-14470289D01*
X16772496Y-14188872D01*
X16310706Y-14188872D01*
X16310706Y-14045087D01*
X17011000Y-14045087D01*
G37*
G36*
X16713118Y-13389291D02*
G01*
X16747455Y-13393528D01*
X16785600Y-13402042D01*
X16821684Y-13414402D01*
X16850972Y-13428056D01*
X16882554Y-13447213D01*
X16910881Y-13469528D01*
X16935952Y-13495000D01*
X16957766Y-13523631D01*
X16968770Y-13541409D01*
X16985049Y-13574248D01*
X16997385Y-13608888D01*
X17005778Y-13645326D01*
X17010227Y-13683565D01*
X17011000Y-13706224D01*
X17011000Y-13923014D01*
X16310706Y-13923014D01*
X16310706Y-13707592D01*
X16427479Y-13707592D01*
X16427479Y-13778886D01*
X16895082Y-13778886D01*
X16895082Y-13709131D01*
X16892439Y-13674019D01*
X16882948Y-13638581D01*
X16866553Y-13608143D01*
X16843256Y-13582705D01*
X16839859Y-13579877D01*
X16809191Y-13560216D01*
X16772582Y-13546025D01*
X16735675Y-13538097D01*
X16700421Y-13534634D01*
X16681540Y-13534057D01*
X16644440Y-13534057D01*
X16606190Y-13535614D01*
X16571583Y-13540284D01*
X16535811Y-13549668D01*
X16501000Y-13565582D01*
X16482531Y-13578339D01*
X16458446Y-13603022D01*
X16441242Y-13632793D01*
X16430920Y-13667649D01*
X16427533Y-13702321D01*
X16427479Y-13707592D01*
X16310706Y-13707592D01*
X16312703Y-13668133D01*
X16318691Y-13630539D01*
X16328672Y-13594811D01*
X16342646Y-13560948D01*
X16352423Y-13542435D01*
X16372285Y-13512100D01*
X16395517Y-13484825D01*
X16422120Y-13460610D01*
X16452093Y-13439455D01*
X16470734Y-13428740D01*
X16505251Y-13412818D01*
X16541780Y-13400807D01*
X16580321Y-13392706D01*
X16614959Y-13388876D01*
X16644953Y-13387878D01*
X16677266Y-13387878D01*
X16713118Y-13389291D01*
G37*
D10*
G36*
X14320417Y-4658501D02*
G01*
X14364564Y-4663949D01*
X14413608Y-4674896D01*
X14460001Y-4690787D01*
X14497657Y-4708342D01*
X14538264Y-4732972D01*
X14574684Y-4761663D01*
X14606918Y-4794413D01*
X14634965Y-4831224D01*
X14649112Y-4854082D01*
X14670043Y-4896304D01*
X14685904Y-4940840D01*
X14696694Y-4987690D01*
X14702415Y-5036854D01*
X14703408Y-5065987D01*
X14703408Y-5344717D01*
X13803031Y-5344717D01*
X13803031Y-5067746D01*
X13953167Y-5067746D01*
X13953167Y-5159410D01*
X14554371Y-5159410D01*
X14554371Y-5069724D01*
X14550973Y-5024581D01*
X14538770Y-4979017D01*
X14517691Y-4939882D01*
X14487737Y-4907177D01*
X14483369Y-4903541D01*
X14443939Y-4878262D01*
X14396871Y-4860017D01*
X14349419Y-4849823D01*
X14304092Y-4845372D01*
X14279817Y-4844630D01*
X14232117Y-4844630D01*
X14182938Y-4846631D01*
X14138443Y-4852636D01*
X14092451Y-4864701D01*
X14047694Y-4885161D01*
X14023948Y-4901563D01*
X13992981Y-4933299D01*
X13970862Y-4971575D01*
X13957591Y-5016390D01*
X13953236Y-5060968D01*
X13953167Y-5067746D01*
X13803031Y-5067746D01*
X13805597Y-5017013D01*
X13813297Y-4968678D01*
X13826130Y-4922741D01*
X13844096Y-4879203D01*
X13856666Y-4855401D01*
X13882203Y-4816399D01*
X13912073Y-4781331D01*
X13946276Y-4750198D01*
X13984814Y-4722998D01*
X14008781Y-4709221D01*
X14053159Y-4688751D01*
X14100125Y-4673308D01*
X14149678Y-4662893D01*
X14194212Y-4657967D01*
X14232776Y-4656685D01*
X14274322Y-4656685D01*
X14320417Y-4658501D01*
G37*
G36*
X13953167Y-3901388D02*
G01*
X13953167Y-4177041D01*
X14703408Y-4177041D01*
X14703408Y-4362568D01*
X13953167Y-4362568D01*
X13953167Y-4634483D01*
X13803031Y-4634483D01*
X13803031Y-3901388D01*
X13953167Y-3901388D01*
G37*
G36*
X14703408Y-3297986D02*
G01*
X14375218Y-3466587D01*
X14375218Y-3614525D01*
X14703408Y-3614525D01*
X14703408Y-3799832D01*
X13803031Y-3799832D01*
X13803031Y-3465488D01*
X13953167Y-3465488D01*
X13953167Y-3614525D01*
X14225082Y-3614525D01*
X14225082Y-3464829D01*
X14220848Y-3420511D01*
X14204928Y-3377780D01*
X14189252Y-3356678D01*
X14152767Y-3330381D01*
X14109696Y-3319149D01*
X14090773Y-3318210D01*
X14046497Y-3323310D01*
X14004609Y-3342153D01*
X13989876Y-3354480D01*
X13964782Y-3393471D01*
X13954457Y-3438747D01*
X13953167Y-3465488D01*
X13803031Y-3465488D01*
X13804775Y-3417404D01*
X13810007Y-3372894D01*
X13820891Y-3324200D01*
X13836798Y-3280652D01*
X13861704Y-3236352D01*
X13874472Y-3219511D01*
X13908450Y-3185764D01*
X13948066Y-3160306D01*
X13993321Y-3143137D01*
X14036597Y-3135017D01*
X14075826Y-3132903D01*
X14120078Y-3135389D01*
X14165296Y-3144132D01*
X14209870Y-3161228D01*
X14229918Y-3172690D01*
X14266055Y-3201592D01*
X14297255Y-3238567D01*
X14321113Y-3278744D01*
X14328177Y-3293590D01*
X14694835Y-3098831D01*
X14703408Y-3098831D01*
X14703408Y-3297986D01*
G37*
G36*
X25698261Y-7178367D02*
G01*
X25742771Y-7183599D01*
X25791466Y-7194483D01*
X25835013Y-7210390D01*
X25879313Y-7235296D01*
X25896154Y-7248064D01*
X25929901Y-7282042D01*
X25955359Y-7321658D01*
X25972529Y-7366913D01*
X25980648Y-7410189D01*
X25982763Y-7449418D01*
X25980276Y-7493670D01*
X25971534Y-7538888D01*
X25954438Y-7583462D01*
X25942975Y-7603510D01*
X25914073Y-7639647D01*
X25877099Y-7670847D01*
X25836921Y-7694705D01*
X25822075Y-7701769D01*
X26016834Y-8068427D01*
X26016834Y-8077000D01*
X25817679Y-8077000D01*
X25649078Y-7748810D01*
X25501140Y-7748810D01*
X25501140Y-8077000D01*
X25315833Y-8077000D01*
X25315833Y-7598674D01*
X25501140Y-7598674D01*
X25650837Y-7598674D01*
X25695154Y-7594440D01*
X25737885Y-7578520D01*
X25758987Y-7562844D01*
X25785284Y-7526359D01*
X25796516Y-7483288D01*
X25797456Y-7464365D01*
X25792355Y-7420089D01*
X25773512Y-7378201D01*
X25761186Y-7363468D01*
X25722194Y-7338374D01*
X25676919Y-7328049D01*
X25650177Y-7326759D01*
X25501140Y-7326759D01*
X25501140Y-7598674D01*
X25315833Y-7598674D01*
X25315833Y-7176623D01*
X25650177Y-7176623D01*
X25698261Y-7178367D01*
G37*
G36*
X26441524Y-7487006D02*
G01*
X26610345Y-7176623D01*
X26823569Y-7176623D01*
X26561545Y-7623074D01*
X26830383Y-8077000D01*
X26614521Y-8077000D01*
X26441524Y-7761560D01*
X26268307Y-8077000D01*
X26052665Y-8077000D01*
X26321503Y-7623074D01*
X26059479Y-7176623D01*
X26272703Y-7176623D01*
X26441524Y-7487006D01*
G37*
G36*
X27247334Y-7179189D02*
G01*
X27295668Y-7186889D01*
X27341605Y-7199722D01*
X27385143Y-7217688D01*
X27408945Y-7230258D01*
X27447947Y-7255795D01*
X27483015Y-7285665D01*
X27514149Y-7319868D01*
X27541348Y-7358406D01*
X27555125Y-7382373D01*
X27575596Y-7426751D01*
X27591039Y-7473717D01*
X27601453Y-7523270D01*
X27606379Y-7567804D01*
X27607661Y-7606368D01*
X27607661Y-7647914D01*
X27605845Y-7694009D01*
X27600397Y-7738156D01*
X27589450Y-7787200D01*
X27573559Y-7833593D01*
X27556004Y-7871249D01*
X27531374Y-7911856D01*
X27502683Y-7948276D01*
X27469933Y-7980510D01*
X27433122Y-8008557D01*
X27410264Y-8022704D01*
X27368042Y-8043635D01*
X27323506Y-8059496D01*
X27276656Y-8070286D01*
X27227492Y-8076007D01*
X27198359Y-8077000D01*
X26919629Y-8077000D01*
X26919629Y-7927963D01*
X27104936Y-7927963D01*
X27194622Y-7927963D01*
X27239765Y-7924565D01*
X27285330Y-7912362D01*
X27324464Y-7891283D01*
X27357169Y-7861329D01*
X27360805Y-7856961D01*
X27386084Y-7817531D01*
X27404329Y-7770463D01*
X27414523Y-7723011D01*
X27418975Y-7677684D01*
X27419717Y-7653409D01*
X27419717Y-7605709D01*
X27417715Y-7556530D01*
X27411710Y-7512035D01*
X27399645Y-7466043D01*
X27379185Y-7421286D01*
X27362784Y-7397540D01*
X27331047Y-7366573D01*
X27292771Y-7344454D01*
X27247956Y-7331183D01*
X27203378Y-7326828D01*
X27196601Y-7326759D01*
X27104936Y-7326759D01*
X27104936Y-7927963D01*
X26919629Y-7927963D01*
X26919629Y-7176623D01*
X27196601Y-7176623D01*
X27247334Y-7179189D01*
G37*
G36*
X25884723Y-10503133D02*
G01*
X25853245Y-10535228D01*
X25815194Y-10563010D01*
X25775854Y-10584085D01*
X25742940Y-10597655D01*
X25695982Y-10612273D01*
X25652864Y-10621638D01*
X25607853Y-10627805D01*
X25560949Y-10630774D01*
X25540268Y-10631068D01*
X25490568Y-10628617D01*
X25443604Y-10621264D01*
X25399375Y-10609010D01*
X25357880Y-10591854D01*
X25335397Y-10579850D01*
X25298757Y-10555233D01*
X25261598Y-10521691D01*
X25233208Y-10487607D01*
X25208668Y-10449106D01*
X25199329Y-10431253D01*
X25180594Y-10387008D01*
X25166318Y-10339482D01*
X25157632Y-10296133D01*
X25152223Y-10250373D01*
X25150090Y-10202202D01*
X25150090Y-10140653D01*
X25151689Y-10091232D01*
X25156488Y-10044362D01*
X25164487Y-10000042D01*
X25177862Y-9951558D01*
X25195592Y-9906546D01*
X25217414Y-9865413D01*
X25243064Y-9828762D01*
X25277067Y-9792361D01*
X25316072Y-9761813D01*
X25326604Y-9755091D01*
X25371296Y-9732106D01*
X25413399Y-9717382D01*
X25458300Y-9707685D01*
X25505999Y-9703016D01*
X25527298Y-9702554D01*
X25575606Y-9704406D01*
X25620511Y-9709960D01*
X25669906Y-9721514D01*
X25714401Y-9738399D01*
X25753996Y-9760617D01*
X25777672Y-9778392D01*
X25813674Y-9814788D01*
X25838924Y-9851259D01*
X25858996Y-9892598D01*
X25873891Y-9938807D01*
X25883607Y-9989884D01*
X25884723Y-9998870D01*
X25704032Y-9998870D01*
X25693398Y-9955327D01*
X25672872Y-9913616D01*
X25649298Y-9887642D01*
X25609709Y-9864727D01*
X25563764Y-9853944D01*
X25532794Y-9852251D01*
X25488349Y-9856716D01*
X25445082Y-9872413D01*
X25408944Y-9899413D01*
X25388813Y-9923692D01*
X25367133Y-9963781D01*
X25353167Y-10006027D01*
X25343872Y-10054963D01*
X25339621Y-10102233D01*
X25338694Y-10136476D01*
X25338694Y-10194288D01*
X25340587Y-10245180D01*
X25346267Y-10291187D01*
X25357680Y-10338689D01*
X25374247Y-10379544D01*
X25392549Y-10409271D01*
X25426790Y-10444443D01*
X25468925Y-10468104D01*
X25513006Y-10479473D01*
X25550159Y-10482031D01*
X25598629Y-10479146D01*
X25644225Y-10469003D01*
X25683792Y-10449168D01*
X25699196Y-10435869D01*
X25699196Y-10275401D01*
X25530376Y-10275401D01*
X25530376Y-10138674D01*
X25884723Y-10138674D01*
X25884723Y-10503133D01*
G37*
G36*
X26762679Y-10617000D02*
G01*
X26577152Y-10617000D01*
X26215990Y-10024588D01*
X26215990Y-10617000D01*
X26030683Y-10617000D01*
X26030683Y-9716623D01*
X26215990Y-9716623D01*
X26577811Y-10310353D01*
X26577811Y-9716623D01*
X26762679Y-9716623D01*
X26762679Y-10617000D01*
G37*
G36*
X27247333Y-9719189D02*
G01*
X27295668Y-9726889D01*
X27341605Y-9739722D01*
X27385143Y-9757688D01*
X27408945Y-9770258D01*
X27447947Y-9795795D01*
X27483015Y-9825665D01*
X27514148Y-9859868D01*
X27541348Y-9898406D01*
X27555124Y-9922373D01*
X27575595Y-9966751D01*
X27591038Y-10013717D01*
X27601453Y-10063270D01*
X27606378Y-10107804D01*
X27607661Y-10146368D01*
X27607661Y-10187914D01*
X27605845Y-10234009D01*
X27600397Y-10278156D01*
X27589450Y-10327200D01*
X27573559Y-10373593D01*
X27556004Y-10411249D01*
X27531374Y-10451856D01*
X27502683Y-10488276D01*
X27469933Y-10520510D01*
X27433122Y-10548557D01*
X27410264Y-10562704D01*
X27368042Y-10583635D01*
X27323506Y-10599496D01*
X27276656Y-10610286D01*
X27227492Y-10616007D01*
X27198359Y-10617000D01*
X26919629Y-10617000D01*
X26919629Y-10467963D01*
X27104936Y-10467963D01*
X27194622Y-10467963D01*
X27239765Y-10464565D01*
X27285329Y-10452362D01*
X27324464Y-10431283D01*
X27357169Y-10401329D01*
X27360805Y-10396961D01*
X27386084Y-10357531D01*
X27404329Y-10310463D01*
X27414523Y-10263011D01*
X27418974Y-10217684D01*
X27419716Y-10193409D01*
X27419716Y-10145709D01*
X27417715Y-10096530D01*
X27411710Y-10052035D01*
X27399645Y-10006043D01*
X27379185Y-9961286D01*
X27362783Y-9937540D01*
X27331047Y-9906573D01*
X27292771Y-9884454D01*
X27247956Y-9871183D01*
X27203377Y-9866828D01*
X27196600Y-9866759D01*
X27104936Y-9866759D01*
X27104936Y-10467963D01*
X26919629Y-10467963D01*
X26919629Y-9716623D01*
X27196600Y-9716623D01*
X27247333Y-9719189D01*
G37*
D14*
G36*
X1815649Y-16780500D02*
G01*
X1906776Y-16780500D01*
X1906776Y-16452237D01*
X2181183Y-16452237D01*
X2181183Y-16375814D01*
X1906776Y-16375814D01*
X1906776Y-16135772D01*
X2230252Y-16135772D01*
X2230252Y-16058322D01*
X1815649Y-16058322D01*
X1815649Y-16780500D01*
G37*
G36*
X2344801Y-16780500D02*
G01*
X2738716Y-16780500D01*
X2738716Y-16706128D01*
X2594760Y-16706128D01*
X2594760Y-16080206D01*
X2526030Y-16080206D01*
X2495212Y-16096633D01*
X2460805Y-16110575D01*
X2426946Y-16120799D01*
X2388866Y-16129237D01*
X2377115Y-16131326D01*
X2377115Y-16189114D01*
X2504487Y-16189114D01*
X2504487Y-16706128D01*
X2344801Y-16706128D01*
X2344801Y-16780500D01*
G37*
G36*
X2021385Y-18318702D02*
G01*
X2060308Y-18321719D01*
X2096811Y-18327712D01*
X2130867Y-18336636D01*
X2177310Y-18355421D01*
X2218109Y-18380554D01*
X2253182Y-18411886D01*
X2282444Y-18449267D01*
X2305811Y-18492549D01*
X2318073Y-18524608D01*
X2327654Y-18559180D01*
X2334527Y-18596221D01*
X2338670Y-18635685D01*
X2340056Y-18677530D01*
X2338671Y-18719248D01*
X2334535Y-18758707D01*
X2327678Y-18795846D01*
X2318132Y-18830607D01*
X2298835Y-18878158D01*
X2273656Y-18920021D01*
X2242697Y-18955996D01*
X2206060Y-18985881D01*
X2163848Y-19009475D01*
X2116163Y-19026577D01*
X2081384Y-19034272D01*
X2044247Y-19038933D01*
X2004784Y-19040500D01*
X1820649Y-19040500D01*
X1820649Y-18966128D01*
X1911776Y-18966128D01*
X1993158Y-18966128D01*
X2023919Y-18964889D01*
X2066290Y-18958455D01*
X2104147Y-18946664D01*
X2137503Y-18929666D01*
X2166370Y-18907612D01*
X2190761Y-18880652D01*
X2210689Y-18848936D01*
X2226166Y-18812616D01*
X2237206Y-18771841D01*
X2243821Y-18726763D01*
X2246023Y-18677530D01*
X2245044Y-18644130D01*
X2239902Y-18597690D01*
X2230339Y-18555730D01*
X2216342Y-18518346D01*
X2197899Y-18485633D01*
X2174997Y-18457689D01*
X2147623Y-18434609D01*
X2115765Y-18416491D01*
X2079410Y-18403430D01*
X2038545Y-18395522D01*
X1993158Y-18392865D01*
X1911776Y-18392865D01*
X1911776Y-18966128D01*
X1820649Y-18966128D01*
X1820649Y-18318322D01*
X2001023Y-18318322D01*
X2021385Y-18318702D01*
G37*
G36*
X2754782Y-18332445D02*
G01*
X2790451Y-18341436D01*
X2822243Y-18355413D01*
X2854758Y-18376920D01*
X2882715Y-18402781D01*
X2832621Y-18458518D01*
X2818296Y-18443517D01*
X2788145Y-18422065D01*
X2754033Y-18408524D01*
X2717900Y-18403807D01*
X2690551Y-18405850D01*
X2655986Y-18415354D01*
X2624254Y-18433377D01*
X2596077Y-18460756D01*
X2572175Y-18498328D01*
X2557488Y-18533699D01*
X2545917Y-18575629D01*
X2537764Y-18624470D01*
X2534379Y-18661045D01*
X2532739Y-18700953D01*
X2537019Y-18695965D01*
X2564515Y-18668690D01*
X2594516Y-18646334D01*
X2626168Y-18629405D01*
X2658621Y-18618410D01*
X2696358Y-18613758D01*
X2718456Y-18614609D01*
X2759482Y-18621396D01*
X2795925Y-18634926D01*
X2827358Y-18655153D01*
X2853354Y-18682031D01*
X2873487Y-18715513D01*
X2887330Y-18755555D01*
X2893328Y-18789862D01*
X2895367Y-18827813D01*
X2895094Y-18840217D01*
X2891108Y-18875808D01*
X2878927Y-18919159D01*
X2859717Y-18957325D01*
X2834373Y-18989764D01*
X2803788Y-19015937D01*
X2768854Y-19035301D01*
X2730467Y-19047316D01*
X2689519Y-19051442D01*
X2664046Y-19050135D01*
X2627602Y-19043279D01*
X2593573Y-19030549D01*
X2562293Y-19011946D01*
X2534099Y-18987475D01*
X2509323Y-18957137D01*
X2488302Y-18920935D01*
X2471369Y-18878872D01*
X2458860Y-18830949D01*
X2453143Y-18795747D01*
X2451045Y-18773102D01*
X2534791Y-18773102D01*
X2536005Y-18785645D01*
X2541122Y-18821047D01*
X2551330Y-18862990D01*
X2565316Y-18898809D01*
X2587963Y-18934790D01*
X2616170Y-18960782D01*
X2649744Y-18976549D01*
X2688493Y-18981857D01*
X2713739Y-18979038D01*
X2747759Y-18964793D01*
X2775880Y-18939584D01*
X2796662Y-18904602D01*
X2807336Y-18868844D01*
X2811078Y-18827813D01*
X2809059Y-18795710D01*
X2800851Y-18760273D01*
X2782660Y-18725400D01*
X2755365Y-18699827D01*
X2718959Y-18684560D01*
X2681654Y-18680437D01*
X2650908Y-18684149D01*
X2618432Y-18696093D01*
X2585343Y-18717484D01*
X2557338Y-18744258D01*
X2534791Y-18773102D01*
X2451045Y-18773102D01*
X2449641Y-18757943D01*
X2448451Y-18717537D01*
X2448818Y-18691739D01*
X2451694Y-18643133D01*
X2457286Y-18598435D01*
X2465430Y-18557550D01*
X2475960Y-18520382D01*
X2488710Y-18486836D01*
X2511636Y-18443099D01*
X2538627Y-18406974D01*
X2569124Y-18378140D01*
X2602567Y-18356274D01*
X2638399Y-18341054D01*
X2676061Y-18332158D01*
X2714993Y-18329264D01*
X2754782Y-18332445D01*
G37*
G36*
X11085091Y-11551442D02*
G01*
X11127080Y-11548757D01*
X11165985Y-11540833D01*
X11201999Y-11527866D01*
X11235321Y-11510051D01*
X11266143Y-11487585D01*
X11294664Y-11460662D01*
X11305471Y-11448689D01*
X11255548Y-11391927D01*
X11228977Y-11417865D01*
X11200724Y-11439237D01*
X11170371Y-11455622D01*
X11137498Y-11466603D01*
X11101686Y-11471759D01*
X11089023Y-11472112D01*
X11051787Y-11469156D01*
X11017421Y-11460441D01*
X10986096Y-11446195D01*
X10957987Y-11426644D01*
X10933268Y-11402016D01*
X10912110Y-11372538D01*
X10894688Y-11338437D01*
X10881174Y-11299942D01*
X10871743Y-11257279D01*
X10866566Y-11210676D01*
X10865565Y-11177530D01*
X10867905Y-11128958D01*
X10874778Y-11084173D01*
X10885969Y-11043390D01*
X10901260Y-11006827D01*
X10920432Y-10974700D01*
X10943271Y-10947226D01*
X10969557Y-10924620D01*
X10999074Y-10907098D01*
X11031605Y-10894879D01*
X11066932Y-10888177D01*
X11091929Y-10886881D01*
X11130500Y-10890782D01*
X11165327Y-10901789D01*
X11196591Y-10918862D01*
X11224476Y-10940959D01*
X11238964Y-10955440D01*
X11287861Y-10896627D01*
X11261856Y-10871312D01*
X11230426Y-10848178D01*
X11200339Y-10831720D01*
X11166923Y-10818816D01*
X11130378Y-10810394D01*
X11090904Y-10807380D01*
X11040932Y-10811062D01*
X10993831Y-10821941D01*
X10950049Y-10839767D01*
X10910031Y-10864289D01*
X10874223Y-10895258D01*
X10843072Y-10932423D01*
X10817024Y-10975534D01*
X10802714Y-11007455D01*
X10791003Y-11041833D01*
X10782022Y-11078594D01*
X10775905Y-11117664D01*
X10772783Y-11158969D01*
X10772387Y-11180437D01*
X10773937Y-11223006D01*
X10778502Y-11263284D01*
X10785949Y-11301209D01*
X10796146Y-11336717D01*
X10808962Y-11369745D01*
X10832807Y-11414502D01*
X10861804Y-11453326D01*
X10895507Y-11486006D01*
X10933471Y-11512329D01*
X10975253Y-11532084D01*
X11020407Y-11545058D01*
X11068489Y-11551039D01*
X11085091Y-11551442D01*
G37*
G36*
X11758200Y-11277890D02*
G01*
X11853259Y-11277890D01*
X11853259Y-11349526D01*
X11758200Y-11349526D01*
X11758200Y-11540500D01*
X11673911Y-11540500D01*
X11673911Y-11349526D01*
X11360181Y-11349526D01*
X11360181Y-11290712D01*
X11368692Y-11277890D01*
X11453360Y-11277890D01*
X11673911Y-11277890D01*
X11673911Y-11071016D01*
X11674287Y-11044060D01*
X11675422Y-11008612D01*
X11676956Y-10972422D01*
X11678698Y-10936292D01*
X11674766Y-10936292D01*
X11671441Y-10942574D01*
X11654153Y-10973308D01*
X11635925Y-11003804D01*
X11616978Y-11035283D01*
X11453360Y-11277890D01*
X11368692Y-11277890D01*
X11659208Y-10840206D01*
X11758200Y-10840206D01*
X11758200Y-11277890D01*
G37*
G36*
X11085091Y-12581442D02*
G01*
X11127080Y-12578757D01*
X11165985Y-12570833D01*
X11201999Y-12557866D01*
X11235321Y-12540051D01*
X11266143Y-12517585D01*
X11294664Y-12490662D01*
X11305471Y-12478689D01*
X11255548Y-12421927D01*
X11228977Y-12447865D01*
X11200724Y-12469237D01*
X11170371Y-12485622D01*
X11137498Y-12496603D01*
X11101686Y-12501759D01*
X11089023Y-12502112D01*
X11051787Y-12499156D01*
X11017421Y-12490441D01*
X10986096Y-12476195D01*
X10957987Y-12456644D01*
X10933268Y-12432016D01*
X10912110Y-12402538D01*
X10894688Y-12368437D01*
X10881174Y-12329942D01*
X10871743Y-12287279D01*
X10866566Y-12240676D01*
X10865565Y-12207530D01*
X10867905Y-12158958D01*
X10874778Y-12114173D01*
X10885969Y-12073390D01*
X10901260Y-12036827D01*
X10920432Y-12004700D01*
X10943271Y-11977226D01*
X10969557Y-11954620D01*
X10999074Y-11937098D01*
X11031605Y-11924879D01*
X11066932Y-11918177D01*
X11091929Y-11916881D01*
X11130500Y-11920782D01*
X11165327Y-11931789D01*
X11196591Y-11948862D01*
X11224476Y-11970959D01*
X11238964Y-11985440D01*
X11287861Y-11926627D01*
X11261856Y-11901312D01*
X11230426Y-11878178D01*
X11200339Y-11861720D01*
X11166923Y-11848816D01*
X11130378Y-11840394D01*
X11090904Y-11837380D01*
X11040932Y-11841062D01*
X10993831Y-11851941D01*
X10950049Y-11869767D01*
X10910031Y-11894289D01*
X10874223Y-11925258D01*
X10843072Y-11962423D01*
X10817024Y-12005534D01*
X10802714Y-12037455D01*
X10791003Y-12071833D01*
X10782022Y-12108594D01*
X10775905Y-12147664D01*
X10772783Y-12188969D01*
X10772387Y-12210437D01*
X10773937Y-12253006D01*
X10778502Y-12293284D01*
X10785949Y-12331209D01*
X10796146Y-12366717D01*
X10808962Y-12399745D01*
X10832807Y-12444502D01*
X10861804Y-12483326D01*
X10895507Y-12516006D01*
X10933471Y-12542329D01*
X10975253Y-12562084D01*
X11020407Y-12575058D01*
X11068489Y-12581039D01*
X11085091Y-12581442D01*
G37*
G36*
X11599368Y-12581442D02*
G01*
X11634483Y-12579501D01*
X11678626Y-12571028D01*
X11718867Y-12556098D01*
X11754287Y-12535006D01*
X11783967Y-12508045D01*
X11806987Y-12475512D01*
X11822426Y-12437699D01*
X11829366Y-12394902D01*
X11829665Y-12383458D01*
X11826591Y-12349291D01*
X11814736Y-12311186D01*
X11795069Y-12278339D01*
X11768760Y-12250904D01*
X11736981Y-12229032D01*
X11700899Y-12212877D01*
X11677673Y-12205991D01*
X11677673Y-12202059D01*
X11711259Y-12187281D01*
X11740740Y-12168535D01*
X11769783Y-12140681D01*
X11790855Y-12106840D01*
X11801518Y-12073959D01*
X11805216Y-12036731D01*
X11801190Y-11996463D01*
X11789548Y-11961037D01*
X11770946Y-11930616D01*
X11746039Y-11905362D01*
X11715482Y-11885438D01*
X11679930Y-11871005D01*
X11640038Y-11862227D01*
X11596462Y-11859264D01*
X11558767Y-11861848D01*
X11523746Y-11869265D01*
X11491168Y-11881015D01*
X11454975Y-11900129D01*
X11421569Y-11923895D01*
X11395572Y-11946630D01*
X11443444Y-12002366D01*
X11471337Y-11977294D01*
X11502103Y-11956675D01*
X11535473Y-11941629D01*
X11571180Y-11933270D01*
X11592530Y-11931927D01*
X11631365Y-11936348D01*
X11663675Y-11949120D01*
X11692067Y-11973593D01*
X11709244Y-12007258D01*
X11714089Y-12042544D01*
X11708397Y-12081882D01*
X11690116Y-12116268D01*
X11663963Y-12139935D01*
X11626769Y-12158037D01*
X11588363Y-12167862D01*
X11554160Y-12172189D01*
X11515080Y-12173678D01*
X11515080Y-12242237D01*
X11558872Y-12243653D01*
X11597222Y-12247816D01*
X11640318Y-12257412D01*
X11674769Y-12271350D01*
X11706568Y-12294408D01*
X11726920Y-12323165D01*
X11736973Y-12357018D01*
X11738538Y-12379526D01*
X11734220Y-12413911D01*
X11718448Y-12449003D01*
X11692490Y-12476570D01*
X11657794Y-12495775D01*
X11623249Y-12504787D01*
X11592530Y-12507070D01*
X11556270Y-12504412D01*
X11517436Y-12494920D01*
X11483188Y-12479753D01*
X11452979Y-12460181D01*
X11426259Y-12437476D01*
X11414037Y-12425346D01*
X11369072Y-12483647D01*
X11398129Y-12511528D01*
X11426672Y-12532921D01*
X11459600Y-12551586D01*
X11497338Y-12566531D01*
X11531274Y-12575145D01*
X11568774Y-12580238D01*
X11599368Y-12581442D01*
G37*
G36*
X11085091Y-14811442D02*
G01*
X11127080Y-14808757D01*
X11165985Y-14800833D01*
X11201999Y-14787866D01*
X11235321Y-14770051D01*
X11266143Y-14747585D01*
X11294664Y-14720662D01*
X11305471Y-14708689D01*
X11255548Y-14651927D01*
X11228977Y-14677865D01*
X11200724Y-14699237D01*
X11170371Y-14715622D01*
X11137498Y-14726603D01*
X11101686Y-14731759D01*
X11089023Y-14732112D01*
X11051787Y-14729156D01*
X11017421Y-14720441D01*
X10986096Y-14706195D01*
X10957987Y-14686644D01*
X10933268Y-14662016D01*
X10912110Y-14632538D01*
X10894688Y-14598437D01*
X10881174Y-14559942D01*
X10871743Y-14517279D01*
X10866566Y-14470676D01*
X10865565Y-14437530D01*
X10867905Y-14388958D01*
X10874778Y-14344173D01*
X10885969Y-14303390D01*
X10901260Y-14266827D01*
X10920432Y-14234700D01*
X10943271Y-14207226D01*
X10969557Y-14184620D01*
X10999074Y-14167098D01*
X11031605Y-14154879D01*
X11066932Y-14148177D01*
X11091929Y-14146881D01*
X11130500Y-14150782D01*
X11165327Y-14161789D01*
X11196591Y-14178862D01*
X11224476Y-14200959D01*
X11238964Y-14215440D01*
X11287861Y-14156627D01*
X11261856Y-14131312D01*
X11230426Y-14108178D01*
X11200339Y-14091720D01*
X11166923Y-14078816D01*
X11130378Y-14070394D01*
X11090904Y-14067380D01*
X11040932Y-14071062D01*
X10993831Y-14081941D01*
X10950049Y-14099767D01*
X10910031Y-14124289D01*
X10874223Y-14155258D01*
X10843072Y-14192423D01*
X10817024Y-14235534D01*
X10802714Y-14267455D01*
X10791003Y-14301833D01*
X10782022Y-14338594D01*
X10775905Y-14377664D01*
X10772783Y-14418969D01*
X10772387Y-14440437D01*
X10773937Y-14483006D01*
X10778502Y-14523284D01*
X10785949Y-14561209D01*
X10796146Y-14596717D01*
X10808962Y-14629745D01*
X10832807Y-14674502D01*
X10861804Y-14713326D01*
X10895507Y-14746006D01*
X10933471Y-14772329D01*
X10975253Y-14792084D01*
X11020407Y-14805058D01*
X11068489Y-14811039D01*
X11085091Y-14811442D01*
G37*
G36*
X11383775Y-14800500D02*
G01*
X11835478Y-14800500D01*
X11835478Y-14723221D01*
X11632708Y-14723221D01*
X11596417Y-14724222D01*
X11558850Y-14726619D01*
X11522134Y-14729504D01*
X11515080Y-14730060D01*
X11545584Y-14697868D01*
X11574899Y-14666643D01*
X11602917Y-14636321D01*
X11629531Y-14606833D01*
X11654633Y-14578115D01*
X11678116Y-14550101D01*
X11699873Y-14522723D01*
X11729035Y-14482707D01*
X11753709Y-14443752D01*
X11773530Y-14405636D01*
X11788137Y-14368135D01*
X11797167Y-14331026D01*
X11800258Y-14294086D01*
X11796555Y-14249845D01*
X11785696Y-14210007D01*
X11768062Y-14175033D01*
X11744030Y-14145385D01*
X11713980Y-14121524D01*
X11678290Y-14103909D01*
X11637338Y-14093002D01*
X11591504Y-14089264D01*
X11550841Y-14092278D01*
X11513879Y-14101000D01*
X11480011Y-14114953D01*
X11448632Y-14133660D01*
X11419134Y-14156643D01*
X11390911Y-14183425D01*
X11379843Y-14195095D01*
X11431818Y-14245189D01*
X11459164Y-14216490D01*
X11489650Y-14192153D01*
X11523029Y-14173939D01*
X11559054Y-14163611D01*
X11580733Y-14161927D01*
X11619198Y-14165954D01*
X11656529Y-14180659D01*
X11684346Y-14204859D01*
X11702771Y-14237200D01*
X11711925Y-14276330D01*
X11713063Y-14298019D01*
X11707554Y-14341631D01*
X11696309Y-14375529D01*
X11679116Y-14410848D01*
X11656104Y-14447950D01*
X11627407Y-14487197D01*
X11605183Y-14514732D01*
X11580528Y-14543488D01*
X11553484Y-14573572D01*
X11524088Y-14605091D01*
X11492380Y-14638154D01*
X11458400Y-14672866D01*
X11422185Y-14709336D01*
X11383775Y-14747670D01*
X11383775Y-14800500D01*
G37*
G36*
X11085091Y-13771442D02*
G01*
X11127080Y-13768757D01*
X11165985Y-13760833D01*
X11201999Y-13747866D01*
X11235321Y-13730051D01*
X11266143Y-13707585D01*
X11294664Y-13680662D01*
X11305471Y-13668689D01*
X11255548Y-13611927D01*
X11228977Y-13637865D01*
X11200724Y-13659237D01*
X11170371Y-13675622D01*
X11137498Y-13686603D01*
X11101686Y-13691759D01*
X11089023Y-13692112D01*
X11051787Y-13689156D01*
X11017421Y-13680441D01*
X10986096Y-13666195D01*
X10957987Y-13646644D01*
X10933268Y-13622016D01*
X10912110Y-13592538D01*
X10894688Y-13558437D01*
X10881174Y-13519942D01*
X10871743Y-13477279D01*
X10866566Y-13430676D01*
X10865565Y-13397530D01*
X10867905Y-13348958D01*
X10874778Y-13304173D01*
X10885969Y-13263390D01*
X10901260Y-13226827D01*
X10920432Y-13194700D01*
X10943271Y-13167226D01*
X10969557Y-13144620D01*
X10999074Y-13127098D01*
X11031605Y-13114879D01*
X11066932Y-13108177D01*
X11091929Y-13106881D01*
X11130500Y-13110782D01*
X11165327Y-13121789D01*
X11196591Y-13138862D01*
X11224476Y-13160959D01*
X11238964Y-13175440D01*
X11287861Y-13116627D01*
X11261856Y-13091312D01*
X11230426Y-13068178D01*
X11200339Y-13051720D01*
X11166923Y-13038816D01*
X11130378Y-13030394D01*
X11090904Y-13027380D01*
X11040932Y-13031062D01*
X10993831Y-13041941D01*
X10950049Y-13059767D01*
X10910031Y-13084289D01*
X10874223Y-13115258D01*
X10843072Y-13152423D01*
X10817024Y-13195534D01*
X10802714Y-13227455D01*
X10791003Y-13261833D01*
X10782022Y-13298594D01*
X10775905Y-13337664D01*
X10772783Y-13378969D01*
X10772387Y-13400437D01*
X10773937Y-13443006D01*
X10778502Y-13483284D01*
X10785949Y-13521209D01*
X10796146Y-13556717D01*
X10808962Y-13589745D01*
X10832807Y-13634502D01*
X10861804Y-13673326D01*
X10895507Y-13706006D01*
X10933471Y-13732329D01*
X10975253Y-13752084D01*
X11020407Y-13765058D01*
X11068489Y-13771039D01*
X11085091Y-13771442D01*
G37*
G36*
X11426860Y-13760500D02*
G01*
X11820775Y-13760500D01*
X11820775Y-13686128D01*
X11676818Y-13686128D01*
X11676818Y-13060206D01*
X11608088Y-13060206D01*
X11577271Y-13076633D01*
X11542863Y-13090575D01*
X11509004Y-13100799D01*
X11470925Y-13109237D01*
X11459173Y-13111326D01*
X11459173Y-13169114D01*
X11586546Y-13169114D01*
X11586546Y-13686128D01*
X11426860Y-13686128D01*
X11426860Y-13760500D01*
G37*
G36*
X8929248Y-8932323D02*
G01*
X8968707Y-8936459D01*
X9005846Y-8943316D01*
X9040607Y-8952862D01*
X9088158Y-8972159D01*
X9130021Y-8997338D01*
X9165996Y-9028297D01*
X9195881Y-9064934D01*
X9219475Y-9107146D01*
X9236577Y-9154831D01*
X9244272Y-9189610D01*
X9248933Y-9226747D01*
X9250500Y-9266210D01*
X9250500Y-9450345D01*
X8528322Y-9450345D01*
X8528322Y-9277836D01*
X8602865Y-9277836D01*
X8602865Y-9359218D01*
X9176128Y-9359218D01*
X9176128Y-9277836D01*
X9174889Y-9247075D01*
X9168455Y-9204704D01*
X9156664Y-9166847D01*
X9139666Y-9133491D01*
X9117612Y-9104624D01*
X9090652Y-9080233D01*
X9058936Y-9060305D01*
X9022616Y-9044828D01*
X8981841Y-9033788D01*
X8936763Y-9027173D01*
X8887530Y-9024971D01*
X8854130Y-9025950D01*
X8807690Y-9031092D01*
X8765730Y-9040655D01*
X8728346Y-9054652D01*
X8695633Y-9073095D01*
X8667689Y-9095997D01*
X8644609Y-9123371D01*
X8626491Y-9155229D01*
X8613430Y-9191584D01*
X8605522Y-9232449D01*
X8602865Y-9277836D01*
X8528322Y-9277836D01*
X8528322Y-9269971D01*
X8528702Y-9249609D01*
X8531719Y-9210686D01*
X8537712Y-9174183D01*
X8546636Y-9140127D01*
X8565421Y-9093684D01*
X8590554Y-9052885D01*
X8621886Y-9017812D01*
X8659267Y-8988550D01*
X8702549Y-8965183D01*
X8734608Y-8952921D01*
X8769180Y-8943340D01*
X8806221Y-8936467D01*
X8845685Y-8932324D01*
X8887530Y-8930938D01*
X8929248Y-8932323D01*
G37*
G36*
X9261442Y-8619601D02*
G01*
X9257477Y-8574648D01*
X9245723Y-8531659D01*
X9226387Y-8491875D01*
X9199679Y-8456539D01*
X9165805Y-8426893D01*
X9135824Y-8409140D01*
X9102017Y-8395810D01*
X9064473Y-8387428D01*
X9023280Y-8384518D01*
X8982541Y-8387013D01*
X8946153Y-8394252D01*
X8904276Y-8410648D01*
X8869822Y-8433955D01*
X8842614Y-8463298D01*
X8822474Y-8497808D01*
X8809223Y-8536613D01*
X8802683Y-8578841D01*
X8801874Y-8600966D01*
X8805148Y-8638408D01*
X8815425Y-8674335D01*
X8831281Y-8707822D01*
X8626801Y-8690212D01*
X8626801Y-8418712D01*
X8550206Y-8418712D01*
X8550206Y-8768687D01*
X8882401Y-8791255D01*
X8913176Y-8743213D01*
X8894679Y-8713886D01*
X8879637Y-8682409D01*
X8871228Y-8648888D01*
X8869578Y-8623534D01*
X8873790Y-8583695D01*
X8886140Y-8549070D01*
X8906202Y-8520288D01*
X8933550Y-8497979D01*
X8967757Y-8482774D01*
X9008397Y-8475301D01*
X9026358Y-8474619D01*
X9061439Y-8477729D01*
X9100121Y-8489713D01*
X9132480Y-8509563D01*
X9157899Y-8536070D01*
X9175759Y-8568025D01*
X9185442Y-8604218D01*
X9187070Y-8627466D01*
X9184375Y-8664282D01*
X9174817Y-8703073D01*
X9159686Y-8736751D01*
X9140391Y-8766129D01*
X9114491Y-8796050D01*
X9106714Y-8803907D01*
X9166211Y-8848017D01*
X9192903Y-8818680D01*
X9213646Y-8790277D01*
X9231907Y-8757724D01*
X9246636Y-8720500D01*
X9255172Y-8687008D01*
X9260240Y-8649928D01*
X9261442Y-8619601D01*
G37*
G36*
X7330390Y-12678702D02*
G01*
X7369313Y-12681719D01*
X7405816Y-12687712D01*
X7439872Y-12696636D01*
X7486315Y-12715421D01*
X7527114Y-12740554D01*
X7562187Y-12771886D01*
X7591449Y-12809267D01*
X7614816Y-12852549D01*
X7627078Y-12884608D01*
X7636659Y-12919180D01*
X7643532Y-12956221D01*
X7647675Y-12995685D01*
X7649061Y-13037530D01*
X7647676Y-13079248D01*
X7643540Y-13118707D01*
X7636683Y-13155846D01*
X7627137Y-13190607D01*
X7607840Y-13238158D01*
X7582661Y-13280021D01*
X7551702Y-13315996D01*
X7515065Y-13345881D01*
X7472853Y-13369475D01*
X7425168Y-13386577D01*
X7390389Y-13394272D01*
X7353252Y-13398933D01*
X7313789Y-13400500D01*
X7129654Y-13400500D01*
X7129654Y-13326128D01*
X7220781Y-13326128D01*
X7302163Y-13326128D01*
X7332924Y-13324889D01*
X7375295Y-13318455D01*
X7413152Y-13306664D01*
X7446508Y-13289666D01*
X7475375Y-13267612D01*
X7499766Y-13240652D01*
X7519694Y-13208936D01*
X7535171Y-13172616D01*
X7546211Y-13131841D01*
X7552826Y-13086763D01*
X7555028Y-13037530D01*
X7554049Y-13004130D01*
X7548907Y-12957690D01*
X7539344Y-12915730D01*
X7525347Y-12878346D01*
X7506904Y-12845633D01*
X7484002Y-12817689D01*
X7456628Y-12794609D01*
X7424770Y-12776491D01*
X7388415Y-12763430D01*
X7347550Y-12755522D01*
X7302163Y-12752865D01*
X7220781Y-12752865D01*
X7220781Y-13326128D01*
X7129654Y-13326128D01*
X7129654Y-12678322D01*
X7310028Y-12678322D01*
X7330390Y-12678702D01*
G37*
G36*
X7790795Y-13400500D02*
G01*
X8184710Y-13400500D01*
X8184710Y-13326128D01*
X8040753Y-13326128D01*
X8040753Y-12700206D01*
X7972023Y-12700206D01*
X7941206Y-12716633D01*
X7906798Y-12730575D01*
X7872940Y-12740799D01*
X7834860Y-12749237D01*
X7823109Y-12751326D01*
X7823109Y-12809114D01*
X7950481Y-12809114D01*
X7950481Y-13326128D01*
X7790795Y-13326128D01*
X7790795Y-13400500D01*
G37*
D11*
G36*
X10093521Y-5968479D02*
G01*
X10132660Y-5970894D01*
X10169213Y-5976398D01*
X10202865Y-5985212D01*
X10242674Y-6002493D01*
X10276014Y-6026573D01*
X10302136Y-6057976D01*
X10320289Y-6097223D01*
X10328223Y-6132122D01*
X10330939Y-6171948D01*
X10330750Y-6182329D01*
X10326313Y-6221210D01*
X10316266Y-6255870D01*
X10296379Y-6293294D01*
X10269028Y-6324202D01*
X10234936Y-6348637D01*
X10203296Y-6363553D01*
X10168175Y-6374376D01*
X10352481Y-6690500D01*
X10249557Y-6690500D01*
X10075168Y-6384121D01*
X9945743Y-6384121D01*
X9945743Y-6690500D01*
X9854616Y-6690500D01*
X9854616Y-6310775D01*
X9945743Y-6310775D01*
X10066277Y-6310775D01*
X10096613Y-6309578D01*
X10132790Y-6304241D01*
X10170968Y-6291508D01*
X10201091Y-6271979D01*
X10222913Y-6245587D01*
X10236187Y-6212265D01*
X10240667Y-6171948D01*
X10239946Y-6154748D01*
X10231919Y-6117839D01*
X10210830Y-6084283D01*
X10177645Y-6061371D01*
X10141058Y-6049594D01*
X10106119Y-6044492D01*
X10066277Y-6042865D01*
X9945743Y-6042865D01*
X9945743Y-6310775D01*
X9854616Y-6310775D01*
X9854616Y-5968322D01*
X10079955Y-5968322D01*
X10093521Y-5968479D01*
G37*
G36*
X10699611Y-5982767D02*
G01*
X10738443Y-5992926D01*
X10772142Y-6009215D01*
X10800401Y-6031111D01*
X10822914Y-6058088D01*
X10839374Y-6089620D01*
X10849475Y-6125184D01*
X10852910Y-6164254D01*
X10852754Y-6171082D01*
X10845864Y-6210546D01*
X10830636Y-6246858D01*
X10809658Y-6279235D01*
X10785522Y-6306892D01*
X10756825Y-6332146D01*
X10756825Y-6337105D01*
X10785455Y-6355471D01*
X10817529Y-6380805D01*
X10844969Y-6410947D01*
X10862657Y-6440665D01*
X10874234Y-6475358D01*
X10878385Y-6515768D01*
X10877340Y-6535068D01*
X10869178Y-6571694D01*
X10853360Y-6605121D01*
X10830412Y-6634670D01*
X10800862Y-6659662D01*
X10765235Y-6679418D01*
X10724060Y-6693258D01*
X10689854Y-6699348D01*
X10653046Y-6701442D01*
X10640745Y-6701208D01*
X10605194Y-6697780D01*
X10561369Y-6687187D01*
X10522296Y-6670246D01*
X10488701Y-6647543D01*
X10461309Y-6619663D01*
X10440846Y-6587191D01*
X10428036Y-6550711D01*
X10423604Y-6510810D01*
X10423957Y-6503116D01*
X10504986Y-6503116D01*
X10509499Y-6537155D01*
X10525912Y-6572926D01*
X10552777Y-6601839D01*
X10581968Y-6619685D01*
X10616333Y-6630987D01*
X10654927Y-6634934D01*
X10677381Y-6633641D01*
X10711304Y-6626020D01*
X10745407Y-6608658D01*
X10771206Y-6583401D01*
X10787539Y-6551377D01*
X10793242Y-6513717D01*
X10787064Y-6475202D01*
X10769665Y-6443756D01*
X10742748Y-6417856D01*
X10708015Y-6395979D01*
X10675745Y-6380352D01*
X10640433Y-6365546D01*
X10602952Y-6350782D01*
X10592498Y-6357730D01*
X10563698Y-6380739D01*
X10539533Y-6406904D01*
X10521017Y-6436103D01*
X10509163Y-6468215D01*
X10504986Y-6503116D01*
X10423957Y-6503116D01*
X10424369Y-6494120D01*
X10432468Y-6455294D01*
X10448164Y-6420587D01*
X10469909Y-6389972D01*
X10496152Y-6363420D01*
X10525344Y-6340906D01*
X10555935Y-6322401D01*
X10555935Y-6318469D01*
X10546310Y-6311671D01*
X10518934Y-6288880D01*
X10494993Y-6262303D01*
X10476008Y-6231695D01*
X10463502Y-6196813D01*
X10458995Y-6157415D01*
X10540377Y-6157415D01*
X10540601Y-6165143D01*
X10548064Y-6199789D01*
X10569273Y-6233714D01*
X10595271Y-6256879D01*
X10627121Y-6276553D01*
X10663215Y-6293816D01*
X10701944Y-6309749D01*
X10710698Y-6301638D01*
X10737257Y-6272675D01*
X10757231Y-6242665D01*
X10771595Y-6206823D01*
X10776487Y-6169041D01*
X10776358Y-6162671D01*
X10770267Y-6126554D01*
X10755369Y-6095216D01*
X10727424Y-6066860D01*
X10694905Y-6051442D01*
X10654927Y-6045943D01*
X10625217Y-6049083D01*
X10589456Y-6063407D01*
X10562181Y-6088155D01*
X10545249Y-6122050D01*
X10540377Y-6157415D01*
X10458995Y-6157415D01*
X10462879Y-6119179D01*
X10474070Y-6084643D01*
X10491877Y-6054239D01*
X10515608Y-6028397D01*
X10544572Y-6007548D01*
X10578079Y-5992122D01*
X10615436Y-5982550D01*
X10655953Y-5979264D01*
X10699611Y-5982767D01*
G37*
G36*
X10083521Y-4518479D02*
G01*
X10122660Y-4520894D01*
X10159213Y-4526398D01*
X10192865Y-4535212D01*
X10232674Y-4552493D01*
X10266014Y-4576573D01*
X10292136Y-4607976D01*
X10310289Y-4647223D01*
X10318223Y-4682122D01*
X10320939Y-4721948D01*
X10320750Y-4732329D01*
X10316313Y-4771210D01*
X10306266Y-4805870D01*
X10286379Y-4843294D01*
X10259028Y-4874202D01*
X10224936Y-4898637D01*
X10193296Y-4913553D01*
X10158175Y-4924376D01*
X10342481Y-5240500D01*
X10239557Y-5240500D01*
X10065168Y-4934121D01*
X9935743Y-4934121D01*
X9935743Y-5240500D01*
X9844616Y-5240500D01*
X9844616Y-4860775D01*
X9935743Y-4860775D01*
X10056277Y-4860775D01*
X10086613Y-4859578D01*
X10122790Y-4854241D01*
X10160968Y-4841508D01*
X10191091Y-4821979D01*
X10212913Y-4795587D01*
X10226187Y-4762265D01*
X10230667Y-4721948D01*
X10229946Y-4704748D01*
X10221919Y-4667839D01*
X10200830Y-4634283D01*
X10167645Y-4611371D01*
X10131058Y-4599594D01*
X10096119Y-4594492D01*
X10056277Y-4592865D01*
X9935743Y-4592865D01*
X9935743Y-4860775D01*
X9844616Y-4860775D01*
X9844616Y-4518322D01*
X10069955Y-4518322D01*
X10083521Y-4518479D01*
G37*
G36*
X10563716Y-5240500D02*
G01*
X10656724Y-5240500D01*
X10659057Y-5190587D01*
X10662121Y-5143078D01*
X10666069Y-5097731D01*
X10671053Y-5054305D01*
X10677228Y-5012559D01*
X10684745Y-4972253D01*
X10693760Y-4933143D01*
X10704424Y-4894991D01*
X10716892Y-4857553D01*
X10731316Y-4820590D01*
X10747850Y-4783859D01*
X10766647Y-4747120D01*
X10787860Y-4710132D01*
X10811643Y-4672653D01*
X10838148Y-4634442D01*
X10867530Y-4595259D01*
X10867530Y-4540206D01*
X10417537Y-4540206D01*
X10417537Y-4616801D01*
X10765461Y-4616801D01*
X10740726Y-4652628D01*
X10717901Y-4688038D01*
X10696922Y-4723210D01*
X10677726Y-4758324D01*
X10660252Y-4793559D01*
X10644436Y-4829095D01*
X10630216Y-4865111D01*
X10617529Y-4901787D01*
X10606313Y-4939302D01*
X10596504Y-4977836D01*
X10588041Y-5017570D01*
X10580861Y-5058681D01*
X10574901Y-5101350D01*
X10570099Y-5145756D01*
X10566391Y-5192080D01*
X10563716Y-5240500D01*
G37*
G36*
X23890390Y-13558702D02*
G01*
X23929313Y-13561719D01*
X23965816Y-13567712D01*
X23999872Y-13576636D01*
X24046315Y-13595421D01*
X24087114Y-13620554D01*
X24122187Y-13651886D01*
X24151449Y-13689267D01*
X24174816Y-13732549D01*
X24187078Y-13764608D01*
X24196659Y-13799180D01*
X24203532Y-13836221D01*
X24207675Y-13875685D01*
X24209061Y-13917530D01*
X24207676Y-13959248D01*
X24203540Y-13998707D01*
X24196683Y-14035846D01*
X24187137Y-14070607D01*
X24167840Y-14118158D01*
X24142661Y-14160021D01*
X24111702Y-14195996D01*
X24075065Y-14225881D01*
X24032853Y-14249475D01*
X23985168Y-14266577D01*
X23950389Y-14274272D01*
X23913252Y-14278933D01*
X23873789Y-14280500D01*
X23689654Y-14280500D01*
X23689654Y-14206128D01*
X23780781Y-14206128D01*
X23862163Y-14206128D01*
X23892924Y-14204889D01*
X23935295Y-14198455D01*
X23973152Y-14186664D01*
X24006508Y-14169666D01*
X24035375Y-14147612D01*
X24059766Y-14120652D01*
X24079694Y-14088936D01*
X24095171Y-14052616D01*
X24106211Y-14011841D01*
X24112826Y-13966763D01*
X24115028Y-13917530D01*
X24114049Y-13884130D01*
X24108907Y-13837690D01*
X24099344Y-13795730D01*
X24085347Y-13758346D01*
X24066904Y-13725633D01*
X24044002Y-13697689D01*
X24016628Y-13674609D01*
X23984770Y-13656491D01*
X23948415Y-13643430D01*
X23907550Y-13635522D01*
X23862163Y-13632865D01*
X23780781Y-13632865D01*
X23780781Y-14206128D01*
X23689654Y-14206128D01*
X23689654Y-13558322D01*
X23870028Y-13558322D01*
X23890390Y-13558702D01*
G37*
G36*
X24307711Y-14280500D02*
G01*
X24759414Y-14280500D01*
X24759414Y-14203221D01*
X24556643Y-14203221D01*
X24520353Y-14204222D01*
X24482785Y-14206619D01*
X24446069Y-14209504D01*
X24439016Y-14210060D01*
X24469520Y-14177868D01*
X24498835Y-14146643D01*
X24526853Y-14116321D01*
X24553467Y-14086833D01*
X24578569Y-14058115D01*
X24602052Y-14030101D01*
X24623809Y-14002723D01*
X24652971Y-13962707D01*
X24677644Y-13923752D01*
X24697466Y-13885636D01*
X24712073Y-13848135D01*
X24721103Y-13811026D01*
X24724194Y-13774086D01*
X24720490Y-13729845D01*
X24709632Y-13690007D01*
X24691998Y-13655033D01*
X24667966Y-13625385D01*
X24637916Y-13601524D01*
X24602225Y-13583909D01*
X24561274Y-13573002D01*
X24515439Y-13569264D01*
X24474776Y-13572278D01*
X24437814Y-13581000D01*
X24403947Y-13594953D01*
X24372568Y-13613660D01*
X24343070Y-13636643D01*
X24314847Y-13663425D01*
X24303779Y-13675095D01*
X24355753Y-13725189D01*
X24383099Y-13696490D01*
X24413585Y-13672153D01*
X24446964Y-13653939D01*
X24482989Y-13643611D01*
X24504668Y-13641927D01*
X24543133Y-13645954D01*
X24580465Y-13660659D01*
X24608282Y-13684859D01*
X24626706Y-13717200D01*
X24635860Y-13756330D01*
X24636999Y-13778019D01*
X24631489Y-13821631D01*
X24620245Y-13855529D01*
X24603051Y-13890848D01*
X24580040Y-13927950D01*
X24551343Y-13967197D01*
X24529118Y-13994732D01*
X24504464Y-14023488D01*
X24477419Y-14053572D01*
X24448024Y-14085091D01*
X24416316Y-14118154D01*
X24382335Y-14152866D01*
X24346120Y-14189336D01*
X24307711Y-14227670D01*
X24307711Y-14280500D01*
G37*
G36*
X375122Y-10907288D02*
G01*
X372995Y-10866927D01*
X366368Y-10828801D01*
X354870Y-10793290D01*
X338129Y-10760772D01*
X315774Y-10731627D01*
X287435Y-10706232D01*
X252741Y-10684966D01*
X211319Y-10668208D01*
X162800Y-10656337D01*
X126327Y-10651325D01*
X86425Y-10648765D01*
X65153Y-10648440D01*
X-357998Y-10648440D01*
X-357998Y-10735806D01*
X68059Y-10735806D01*
X113813Y-10737748D01*
X153579Y-10743397D01*
X187684Y-10752481D01*
X224910Y-10769468D01*
X253416Y-10791440D01*
X277960Y-10824939D01*
X291584Y-10863972D01*
X295631Y-10898343D01*
X295792Y-10907288D01*
X291584Y-10949252D01*
X277960Y-10987124D01*
X253416Y-11019668D01*
X224910Y-11041036D01*
X187684Y-11057569D01*
X153579Y-11066416D01*
X113813Y-11071919D01*
X68059Y-11073813D01*
X-357998Y-11073813D01*
X-357998Y-11164940D01*
X65153Y-11164940D01*
X106811Y-11163651D01*
X144985Y-11159858D01*
X179784Y-11153675D01*
X225896Y-11140166D01*
X265035Y-11121916D01*
X297570Y-11099307D01*
X323873Y-11072720D01*
X344315Y-11042538D01*
X359267Y-11009144D01*
X369100Y-10972918D01*
X374186Y-10934243D01*
X375122Y-10907288D01*
G37*
G36*
X375122Y-10266664D02*
G01*
X372801Y-10225994D01*
X366058Y-10188454D01*
X355224Y-10154234D01*
X334982Y-10114099D01*
X308832Y-10080654D01*
X277556Y-10054351D01*
X241936Y-10035640D01*
X202752Y-10024971D01*
X171496Y-10022519D01*
X134110Y-10025466D01*
X94190Y-10036865D01*
X60875Y-10055847D01*
X33133Y-10081351D01*
X9930Y-10112318D01*
X-9767Y-10147686D01*
X-20332Y-10170579D01*
X-64271Y-10273503D01*
X-78098Y-10305213D01*
X-94105Y-10335614D01*
X-117673Y-10365755D01*
X-148933Y-10385997D01*
X-183779Y-10392156D01*
X-222621Y-10384805D01*
X-253593Y-10363783D01*
X-275601Y-10330637D01*
X-286500Y-10293748D01*
X-289439Y-10257773D01*
X-286737Y-10221694D01*
X-278935Y-10188332D01*
X-263990Y-10152576D01*
X-243438Y-10119921D01*
X-221906Y-10094155D01*
X-279693Y-10046113D01*
X-303179Y-10071741D01*
X-323802Y-10100631D01*
X-341106Y-10132439D01*
X-354631Y-10166820D01*
X-363921Y-10203430D01*
X-368518Y-10241925D01*
X-368940Y-10257773D01*
X-366858Y-10293501D01*
X-357910Y-10337781D01*
X-342449Y-10377564D01*
X-321071Y-10412132D01*
X-294366Y-10440764D01*
X-262930Y-10462742D01*
X-227354Y-10477347D01*
X-188232Y-10483859D01*
X-177966Y-10484138D01*
X-141128Y-10480599D01*
X-101622Y-10467359D01*
X-68715Y-10446287D01*
X-41693Y-10419490D01*
X-19838Y-10389073D01*
X-2435Y-10357140D01*
X6168Y-10338129D01*
X51133Y-10234351D01*
X67824Y-10198165D01*
X85340Y-10166731D01*
X109795Y-10137975D01*
X141953Y-10119914D01*
X178335Y-10114672D01*
X215332Y-10120545D01*
X246454Y-10137644D01*
X270769Y-10165184D01*
X287345Y-10202379D01*
X294571Y-10240186D01*
X295792Y-10265638D01*
X293275Y-10300355D01*
X285979Y-10334326D01*
X274283Y-10367104D01*
X258567Y-10398243D01*
X239210Y-10427297D01*
X216592Y-10453821D01*
X206716Y-10463621D01*
X268436Y-10518503D01*
X297345Y-10487337D01*
X322272Y-10452813D01*
X339094Y-10422926D01*
X352934Y-10391146D01*
X363601Y-10357588D01*
X370902Y-10322367D01*
X374645Y-10285595D01*
X375122Y-10266664D01*
G37*
G36*
X177886Y-9381308D02*
G01*
X213510Y-9387963D01*
X255067Y-9405148D01*
X289870Y-9431156D01*
X317958Y-9465251D01*
X334643Y-9495685D01*
X347591Y-9529942D01*
X356818Y-9567711D01*
X362342Y-9608681D01*
X364180Y-9652540D01*
X364180Y-9881810D01*
X-357998Y-9881810D01*
X-357998Y-9679895D01*
X-285336Y-9679895D01*
X-285336Y-9790683D01*
X-51620Y-9790683D01*
X-51620Y-9683827D01*
X-51753Y-9672469D01*
X-52309Y-9665191D01*
X17110Y-9665191D01*
X17110Y-9790683D01*
X291688Y-9790683D01*
X291688Y-9665191D01*
X291557Y-9653769D01*
X288386Y-9611143D01*
X280901Y-9573608D01*
X268998Y-9541419D01*
X247749Y-9509082D01*
X219230Y-9485983D01*
X183238Y-9472616D01*
X148928Y-9469260D01*
X110155Y-9474371D01*
X78354Y-9489461D01*
X53363Y-9514167D01*
X35016Y-9548125D01*
X25012Y-9581707D01*
X19072Y-9620792D01*
X17110Y-9665191D01*
X-52309Y-9665191D01*
X-54902Y-9631259D01*
X-62067Y-9596595D01*
X-76327Y-9562051D01*
X-100640Y-9532769D01*
X-132094Y-9515884D01*
X-169931Y-9510464D01*
X-177663Y-9510633D01*
X-217774Y-9518718D01*
X-247736Y-9538812D01*
X-268400Y-9570758D01*
X-279132Y-9606322D01*
X-283827Y-9640561D01*
X-285336Y-9679895D01*
X-357998Y-9679895D01*
X-357998Y-9668269D01*
X-357404Y-9641405D01*
X-354230Y-9603278D01*
X-348199Y-9567998D01*
X-335494Y-9525861D01*
X-317179Y-9489926D01*
X-292949Y-9460843D01*
X-262500Y-9439263D01*
X-225528Y-9425837D01*
X-181728Y-9421217D01*
X-168440Y-9421664D01*
X-130295Y-9428240D01*
X-95712Y-9442364D01*
X-65954Y-9463634D01*
X-42287Y-9491653D01*
X-25974Y-9526022D01*
X-21187Y-9526022D01*
X-15405Y-9502746D01*
X-1002Y-9467288D01*
X19387Y-9436727D01*
X45793Y-9411900D01*
X78247Y-9393643D01*
X116781Y-9382795D01*
X152006Y-9380013D01*
X177886Y-9381308D01*
G37*
G36*
X364180Y-9293161D02*
G01*
X364180Y-8841458D01*
X286901Y-8841458D01*
X286901Y-9044228D01*
X287902Y-9080519D01*
X290299Y-9118086D01*
X293184Y-9154802D01*
X293740Y-9161856D01*
X261548Y-9131352D01*
X230323Y-9102037D01*
X200001Y-9074019D01*
X170513Y-9047405D01*
X141795Y-9022303D01*
X113781Y-8998819D01*
X86403Y-8977063D01*
X46387Y-8947901D01*
X7432Y-8923227D01*
X-30684Y-8903406D01*
X-68185Y-8888799D01*
X-105294Y-8879768D01*
X-142234Y-8876678D01*
X-186475Y-8880381D01*
X-226313Y-8891240D01*
X-261287Y-8908874D01*
X-290935Y-8932906D01*
X-314796Y-8962956D01*
X-332411Y-8998646D01*
X-343318Y-9039598D01*
X-347056Y-9085432D01*
X-344042Y-9126095D01*
X-335320Y-9163057D01*
X-321367Y-9196925D01*
X-302660Y-9228304D01*
X-279677Y-9257802D01*
X-252895Y-9286025D01*
X-241225Y-9297093D01*
X-191131Y-9245118D01*
X-219830Y-9217772D01*
X-244167Y-9187286D01*
X-262381Y-9153907D01*
X-272709Y-9117882D01*
X-274393Y-9096203D01*
X-270366Y-9057738D01*
X-255661Y-9020407D01*
X-231461Y-8992590D01*
X-199120Y-8974165D01*
X-159990Y-8965011D01*
X-138301Y-8963872D01*
X-94689Y-8969382D01*
X-60791Y-8980627D01*
X-25472Y-8997820D01*
X11630Y-9020831D01*
X50877Y-9049528D01*
X78412Y-9071753D01*
X107168Y-9096408D01*
X137252Y-9123452D01*
X168771Y-9152848D01*
X201834Y-9184556D01*
X236546Y-9218536D01*
X273016Y-9254751D01*
X311350Y-9293161D01*
X364180Y-9293161D01*
G37*
G36*
X15052711Y-6901442D02*
G01*
X15093072Y-6899315D01*
X15131198Y-6892688D01*
X15166709Y-6881190D01*
X15199227Y-6864449D01*
X15228372Y-6842094D01*
X15253767Y-6813755D01*
X15275033Y-6779061D01*
X15291791Y-6737639D01*
X15303662Y-6689120D01*
X15308674Y-6652647D01*
X15311234Y-6612745D01*
X15311559Y-6591473D01*
X15311559Y-6168322D01*
X15224193Y-6168322D01*
X15224193Y-6594379D01*
X15222251Y-6640133D01*
X15216602Y-6679899D01*
X15207518Y-6714004D01*
X15190531Y-6751230D01*
X15168559Y-6779736D01*
X15135060Y-6804280D01*
X15096027Y-6817904D01*
X15061656Y-6821951D01*
X15052711Y-6822112D01*
X15010747Y-6817904D01*
X14972875Y-6804280D01*
X14940331Y-6779736D01*
X14918963Y-6751230D01*
X14902430Y-6714004D01*
X14893583Y-6679899D01*
X14888080Y-6640133D01*
X14886186Y-6594379D01*
X14886186Y-6168322D01*
X14795059Y-6168322D01*
X14795059Y-6591473D01*
X14796348Y-6633131D01*
X14800141Y-6671305D01*
X14806324Y-6706104D01*
X14819833Y-6752216D01*
X14838083Y-6791355D01*
X14860692Y-6823890D01*
X14887279Y-6850193D01*
X14917461Y-6870635D01*
X14950855Y-6885587D01*
X14987081Y-6895420D01*
X15025756Y-6900506D01*
X15052711Y-6901442D01*
G37*
G36*
X15492616Y-6890500D02*
G01*
X15886531Y-6890500D01*
X15886531Y-6816128D01*
X15742575Y-6816128D01*
X15742575Y-6190206D01*
X15673845Y-6190206D01*
X15643027Y-6206633D01*
X15608620Y-6220575D01*
X15574761Y-6230799D01*
X15536681Y-6239237D01*
X15524930Y-6241326D01*
X15524930Y-6299114D01*
X15652302Y-6299114D01*
X15652302Y-6816128D01*
X15492616Y-6816128D01*
X15492616Y-6890500D01*
G37*
G36*
X2083521Y-2538479D02*
G01*
X2122660Y-2540894D01*
X2159213Y-2546398D01*
X2192865Y-2555212D01*
X2232674Y-2572493D01*
X2266014Y-2596573D01*
X2292136Y-2627976D01*
X2310289Y-2667223D01*
X2318223Y-2702122D01*
X2320939Y-2741948D01*
X2320750Y-2752329D01*
X2316313Y-2791210D01*
X2306266Y-2825870D01*
X2286379Y-2863294D01*
X2259028Y-2894202D01*
X2224936Y-2918637D01*
X2193296Y-2933553D01*
X2158175Y-2944376D01*
X2342481Y-3260500D01*
X2239557Y-3260500D01*
X2065168Y-2954121D01*
X1935743Y-2954121D01*
X1935743Y-3260500D01*
X1844616Y-3260500D01*
X1844616Y-2880775D01*
X1935743Y-2880775D01*
X2056277Y-2880775D01*
X2086613Y-2879578D01*
X2122790Y-2874241D01*
X2160968Y-2861508D01*
X2191091Y-2841979D01*
X2212913Y-2815587D01*
X2226187Y-2782265D01*
X2230667Y-2741948D01*
X2229946Y-2724748D01*
X2221919Y-2687839D01*
X2200830Y-2654283D01*
X2167645Y-2631371D01*
X2131058Y-2619594D01*
X2096119Y-2614492D01*
X2056277Y-2612865D01*
X1935743Y-2612865D01*
X1935743Y-2880775D01*
X1844616Y-2880775D01*
X1844616Y-2538322D01*
X2069955Y-2538322D01*
X2083521Y-2538479D01*
G37*
G36*
X2787174Y-2997890D02*
G01*
X2882233Y-2997890D01*
X2882233Y-3069526D01*
X2787174Y-3069526D01*
X2787174Y-3260500D01*
X2702886Y-3260500D01*
X2702886Y-3069526D01*
X2389156Y-3069526D01*
X2389156Y-3010712D01*
X2397667Y-2997890D01*
X2482334Y-2997890D01*
X2702886Y-2997890D01*
X2702886Y-2791016D01*
X2703262Y-2764060D01*
X2704397Y-2728612D01*
X2705930Y-2692422D01*
X2707673Y-2656292D01*
X2703741Y-2656292D01*
X2700415Y-2662574D01*
X2683127Y-2693308D01*
X2664900Y-2723804D01*
X2645953Y-2755283D01*
X2482334Y-2997890D01*
X2397667Y-2997890D01*
X2688182Y-2560206D01*
X2787174Y-2560206D01*
X2787174Y-2997890D01*
G37*
G36*
X23944030Y-7498479D02*
G01*
X23983169Y-7500894D01*
X24019722Y-7506398D01*
X24053374Y-7515212D01*
X24093183Y-7532493D01*
X24126523Y-7556573D01*
X24152645Y-7587976D01*
X24170798Y-7627223D01*
X24178732Y-7662122D01*
X24181448Y-7701948D01*
X24181259Y-7712329D01*
X24176822Y-7751210D01*
X24166775Y-7785870D01*
X24146888Y-7823294D01*
X24119537Y-7854202D01*
X24085445Y-7878637D01*
X24053805Y-7893553D01*
X24018684Y-7904376D01*
X24202990Y-8220500D01*
X24100066Y-8220500D01*
X23925677Y-7914121D01*
X23796252Y-7914121D01*
X23796252Y-8220500D01*
X23705125Y-8220500D01*
X23705125Y-7840775D01*
X23796252Y-7840775D01*
X23916786Y-7840775D01*
X23947122Y-7839578D01*
X23983299Y-7834241D01*
X24021477Y-7821508D01*
X24051600Y-7801979D01*
X24073422Y-7775587D01*
X24086696Y-7742265D01*
X24091176Y-7701948D01*
X24090455Y-7684748D01*
X24082428Y-7647839D01*
X24061339Y-7614283D01*
X24028154Y-7591371D01*
X23991567Y-7579594D01*
X23956628Y-7574492D01*
X23916786Y-7572865D01*
X23796252Y-7572865D01*
X23796252Y-7840775D01*
X23705125Y-7840775D01*
X23705125Y-7498322D01*
X23930464Y-7498322D01*
X23944030Y-7498479D01*
G37*
G36*
X24488852Y-8231442D02*
G01*
X24523966Y-8229501D01*
X24568109Y-8221028D01*
X24608350Y-8206098D01*
X24643771Y-8185006D01*
X24673450Y-8158045D01*
X24696470Y-8125512D01*
X24711909Y-8087699D01*
X24718849Y-8044902D01*
X24719148Y-8033458D01*
X24716075Y-7999291D01*
X24704219Y-7961186D01*
X24684552Y-7928339D01*
X24658244Y-7900904D01*
X24626464Y-7879032D01*
X24590383Y-7862877D01*
X24567156Y-7855991D01*
X24567156Y-7852059D01*
X24600743Y-7837281D01*
X24630223Y-7818535D01*
X24659266Y-7790681D01*
X24680339Y-7756840D01*
X24691001Y-7723959D01*
X24694700Y-7686731D01*
X24690673Y-7646463D01*
X24679032Y-7611037D01*
X24660430Y-7580616D01*
X24635523Y-7555362D01*
X24604965Y-7535438D01*
X24569413Y-7521005D01*
X24529522Y-7512227D01*
X24485945Y-7509264D01*
X24448250Y-7511848D01*
X24413229Y-7519265D01*
X24380651Y-7531015D01*
X24344458Y-7550129D01*
X24311053Y-7573895D01*
X24285056Y-7596630D01*
X24332927Y-7652366D01*
X24360820Y-7627294D01*
X24391586Y-7606675D01*
X24424957Y-7591629D01*
X24460663Y-7583270D01*
X24482013Y-7581927D01*
X24520848Y-7586348D01*
X24553158Y-7599120D01*
X24581550Y-7623593D01*
X24598728Y-7657258D01*
X24603573Y-7692544D01*
X24597880Y-7731882D01*
X24579599Y-7766268D01*
X24553446Y-7789935D01*
X24516252Y-7808037D01*
X24477846Y-7817862D01*
X24443643Y-7822189D01*
X24404564Y-7823678D01*
X24404564Y-7892237D01*
X24448355Y-7893653D01*
X24486705Y-7897816D01*
X24529802Y-7907412D01*
X24564252Y-7921350D01*
X24596051Y-7944408D01*
X24616403Y-7973165D01*
X24626456Y-8007018D01*
X24628021Y-8029526D01*
X24623703Y-8063911D01*
X24607931Y-8099003D01*
X24581974Y-8126570D01*
X24547277Y-8145775D01*
X24512732Y-8154787D01*
X24482013Y-8157070D01*
X24445753Y-8154412D01*
X24406920Y-8144920D01*
X24372672Y-8129753D01*
X24342462Y-8110181D01*
X24315742Y-8087476D01*
X24303520Y-8075346D01*
X24258555Y-8133647D01*
X24287612Y-8161528D01*
X24316155Y-8182921D01*
X24349084Y-8201586D01*
X24386821Y-8216531D01*
X24420757Y-8225145D01*
X24458257Y-8230238D01*
X24488852Y-8231442D01*
G37*
G36*
X23900390Y-6028702D02*
G01*
X23939313Y-6031719D01*
X23975816Y-6037712D01*
X24009872Y-6046636D01*
X24056315Y-6065421D01*
X24097114Y-6090554D01*
X24132187Y-6121886D01*
X24161449Y-6159267D01*
X24184816Y-6202549D01*
X24197078Y-6234608D01*
X24206659Y-6269180D01*
X24213532Y-6306221D01*
X24217675Y-6345685D01*
X24219061Y-6387530D01*
X24217676Y-6429248D01*
X24213540Y-6468707D01*
X24206683Y-6505846D01*
X24197137Y-6540607D01*
X24177840Y-6588158D01*
X24152661Y-6630021D01*
X24121702Y-6665996D01*
X24085065Y-6695881D01*
X24042853Y-6719475D01*
X23995168Y-6736577D01*
X23960389Y-6744272D01*
X23923252Y-6748933D01*
X23883789Y-6750500D01*
X23699654Y-6750500D01*
X23699654Y-6676128D01*
X23790781Y-6676128D01*
X23872163Y-6676128D01*
X23902924Y-6674889D01*
X23945295Y-6668455D01*
X23983152Y-6656664D01*
X24016508Y-6639666D01*
X24045375Y-6617612D01*
X24069766Y-6590652D01*
X24089694Y-6558936D01*
X24105171Y-6522616D01*
X24116211Y-6481841D01*
X24122826Y-6436763D01*
X24125028Y-6387530D01*
X24124049Y-6354130D01*
X24118907Y-6307690D01*
X24109344Y-6265730D01*
X24095347Y-6228346D01*
X24076904Y-6195633D01*
X24054002Y-6167689D01*
X24026628Y-6144609D01*
X23994770Y-6126491D01*
X23958415Y-6113430D01*
X23917550Y-6105522D01*
X23872163Y-6102865D01*
X23790781Y-6102865D01*
X23790781Y-6676128D01*
X23699654Y-6676128D01*
X23699654Y-6028322D01*
X23880028Y-6028322D01*
X23900390Y-6028702D01*
G37*
G36*
X24533304Y-6761442D02*
G01*
X24568418Y-6759501D01*
X24612561Y-6751028D01*
X24652803Y-6736098D01*
X24688223Y-6715006D01*
X24717903Y-6688045D01*
X24740922Y-6655512D01*
X24756362Y-6617699D01*
X24763301Y-6574902D01*
X24763601Y-6563458D01*
X24760527Y-6529291D01*
X24748671Y-6491186D01*
X24729004Y-6458339D01*
X24702696Y-6430904D01*
X24670916Y-6409032D01*
X24634835Y-6392877D01*
X24611608Y-6385991D01*
X24611608Y-6382059D01*
X24645195Y-6367281D01*
X24674676Y-6348535D01*
X24703718Y-6320681D01*
X24724791Y-6286840D01*
X24735453Y-6253959D01*
X24739152Y-6216731D01*
X24735126Y-6176463D01*
X24723484Y-6141037D01*
X24704882Y-6110616D01*
X24679975Y-6085362D01*
X24649418Y-6065438D01*
X24613866Y-6051005D01*
X24573974Y-6042227D01*
X24530398Y-6039264D01*
X24492702Y-6041848D01*
X24457681Y-6049265D01*
X24425104Y-6061015D01*
X24388911Y-6080129D01*
X24355505Y-6103895D01*
X24329508Y-6126630D01*
X24377379Y-6182366D01*
X24405272Y-6157294D01*
X24436038Y-6136675D01*
X24469409Y-6121629D01*
X24505116Y-6113270D01*
X24526465Y-6111927D01*
X24565300Y-6116348D01*
X24597610Y-6129120D01*
X24626003Y-6153593D01*
X24643180Y-6187258D01*
X24648025Y-6222544D01*
X24642332Y-6261882D01*
X24624051Y-6296268D01*
X24597898Y-6319935D01*
X24560705Y-6338037D01*
X24522298Y-6347862D01*
X24488096Y-6352189D01*
X24449016Y-6353678D01*
X24449016Y-6422237D01*
X24492807Y-6423653D01*
X24531157Y-6427816D01*
X24574254Y-6437412D01*
X24608705Y-6451350D01*
X24640503Y-6474408D01*
X24660856Y-6503165D01*
X24670909Y-6537018D01*
X24672474Y-6559526D01*
X24668155Y-6593911D01*
X24652383Y-6629003D01*
X24626426Y-6656570D01*
X24591729Y-6675775D01*
X24557184Y-6684787D01*
X24526465Y-6687070D01*
X24490206Y-6684412D01*
X24451372Y-6674920D01*
X24417124Y-6659753D01*
X24386914Y-6640181D01*
X24360195Y-6617476D01*
X24347973Y-6605346D01*
X24303007Y-6663647D01*
X24332064Y-6691528D01*
X24360607Y-6712921D01*
X24393536Y-6731586D01*
X24431273Y-6746531D01*
X24465209Y-6755145D01*
X24502710Y-6760238D01*
X24533304Y-6761442D01*
G37*
G36*
X2020390Y-1113702D02*
G01*
X2059313Y-1116719D01*
X2095816Y-1122712D01*
X2129872Y-1131636D01*
X2176315Y-1150421D01*
X2217114Y-1175554D01*
X2252187Y-1206886D01*
X2281449Y-1244267D01*
X2304816Y-1287549D01*
X2317078Y-1319608D01*
X2326659Y-1354180D01*
X2333532Y-1391221D01*
X2337675Y-1430685D01*
X2339061Y-1472530D01*
X2337676Y-1514248D01*
X2333540Y-1553707D01*
X2326683Y-1590846D01*
X2317137Y-1625607D01*
X2297840Y-1673158D01*
X2272661Y-1715021D01*
X2241702Y-1750996D01*
X2205065Y-1780881D01*
X2162853Y-1804475D01*
X2115168Y-1821577D01*
X2080389Y-1829272D01*
X2043252Y-1833933D01*
X2003789Y-1835500D01*
X1819654Y-1835500D01*
X1819654Y-1761128D01*
X1910781Y-1761128D01*
X1992163Y-1761128D01*
X2022924Y-1759889D01*
X2065295Y-1753455D01*
X2103152Y-1741664D01*
X2136508Y-1724666D01*
X2165375Y-1702612D01*
X2189766Y-1675652D01*
X2209694Y-1643936D01*
X2225171Y-1607616D01*
X2236211Y-1566841D01*
X2242826Y-1521763D01*
X2245028Y-1472530D01*
X2244049Y-1439130D01*
X2238907Y-1392690D01*
X2229344Y-1350730D01*
X2215347Y-1313346D01*
X2196904Y-1280633D01*
X2174002Y-1252689D01*
X2146628Y-1229609D01*
X2114770Y-1211491D01*
X2078415Y-1198430D01*
X2037550Y-1190522D01*
X1992163Y-1187865D01*
X1910781Y-1187865D01*
X1910781Y-1761128D01*
X1819654Y-1761128D01*
X1819654Y-1113322D01*
X2000028Y-1113322D01*
X2020390Y-1113702D01*
G37*
G36*
X2812135Y-1572890D02*
G01*
X2907194Y-1572890D01*
X2907194Y-1644526D01*
X2812135Y-1644526D01*
X2812135Y-1835500D01*
X2727847Y-1835500D01*
X2727847Y-1644526D01*
X2414117Y-1644526D01*
X2414117Y-1585712D01*
X2422628Y-1572890D01*
X2507296Y-1572890D01*
X2727847Y-1572890D01*
X2727847Y-1366016D01*
X2728223Y-1339060D01*
X2729358Y-1303612D01*
X2730891Y-1267422D01*
X2732634Y-1231292D01*
X2728702Y-1231292D01*
X2725376Y-1237574D01*
X2708088Y-1268308D01*
X2689861Y-1298804D01*
X2670914Y-1330283D01*
X2507296Y-1572890D01*
X2422628Y-1572890D01*
X2713143Y-1135206D01*
X2812135Y-1135206D01*
X2812135Y-1572890D01*
G37*
G36*
X23934030Y-12008479D02*
G01*
X23973169Y-12010894D01*
X24009722Y-12016398D01*
X24043374Y-12025212D01*
X24083183Y-12042493D01*
X24116523Y-12066573D01*
X24142645Y-12097976D01*
X24160798Y-12137223D01*
X24168732Y-12172122D01*
X24171448Y-12211948D01*
X24171259Y-12222329D01*
X24166822Y-12261210D01*
X24156775Y-12295870D01*
X24136888Y-12333294D01*
X24109537Y-12364202D01*
X24075445Y-12388637D01*
X24043805Y-12403553D01*
X24008684Y-12414376D01*
X24192990Y-12730500D01*
X24090066Y-12730500D01*
X23915677Y-12424121D01*
X23786252Y-12424121D01*
X23786252Y-12730500D01*
X23695125Y-12730500D01*
X23695125Y-12350775D01*
X23786252Y-12350775D01*
X23906786Y-12350775D01*
X23937122Y-12349578D01*
X23973299Y-12344241D01*
X24011477Y-12331508D01*
X24041600Y-12311979D01*
X24063422Y-12285587D01*
X24076696Y-12252265D01*
X24081176Y-12211948D01*
X24080455Y-12194748D01*
X24072428Y-12157839D01*
X24051339Y-12124283D01*
X24018154Y-12101371D01*
X23981567Y-12089594D01*
X23946628Y-12084492D01*
X23906786Y-12082865D01*
X23786252Y-12082865D01*
X23786252Y-12350775D01*
X23695125Y-12350775D01*
X23695125Y-12008322D01*
X23920464Y-12008322D01*
X23934030Y-12008479D01*
G37*
G36*
X24263259Y-12730500D02*
G01*
X24714961Y-12730500D01*
X24714961Y-12653221D01*
X24512191Y-12653221D01*
X24475901Y-12654222D01*
X24438333Y-12656619D01*
X24401617Y-12659504D01*
X24394564Y-12660060D01*
X24425068Y-12627868D01*
X24454383Y-12596643D01*
X24482401Y-12566321D01*
X24509015Y-12536833D01*
X24534117Y-12508115D01*
X24557600Y-12480101D01*
X24579356Y-12452723D01*
X24608519Y-12412707D01*
X24633192Y-12373752D01*
X24653013Y-12335636D01*
X24667621Y-12298135D01*
X24676651Y-12261026D01*
X24679741Y-12224086D01*
X24676038Y-12179845D01*
X24665180Y-12140007D01*
X24647545Y-12105033D01*
X24623514Y-12075385D01*
X24593463Y-12051524D01*
X24557773Y-12033909D01*
X24516821Y-12023002D01*
X24470987Y-12019264D01*
X24430324Y-12022278D01*
X24393362Y-12031000D01*
X24359495Y-12044953D01*
X24328115Y-12063660D01*
X24298617Y-12086643D01*
X24270394Y-12113425D01*
X24259326Y-12125095D01*
X24311301Y-12175189D01*
X24338647Y-12146490D01*
X24369133Y-12122153D01*
X24402512Y-12103939D01*
X24438537Y-12093611D01*
X24460216Y-12091927D01*
X24498681Y-12095954D01*
X24536012Y-12110659D01*
X24563829Y-12134859D01*
X24582254Y-12167200D01*
X24591408Y-12206330D01*
X24592547Y-12228019D01*
X24587037Y-12271631D01*
X24575793Y-12305529D01*
X24558599Y-12340848D01*
X24535588Y-12377950D01*
X24506891Y-12417197D01*
X24484666Y-12444732D01*
X24460012Y-12473488D01*
X24432967Y-12503572D01*
X24403572Y-12535091D01*
X24371864Y-12568154D01*
X24337883Y-12602866D01*
X24301668Y-12639336D01*
X24263259Y-12677670D01*
X24263259Y-12730500D01*
G37*
D15*
%TO.C,F1*%
X5822064Y-15510000D02*
X4617936Y-15510000D01*
X5822064Y-17330000D02*
X4617936Y-17330000D01*
%TO.C,D6*%
X7455000Y-19590000D02*
X7455000Y-17690000D01*
X7455000Y-19590000D02*
X3795000Y-19590000D01*
X7455000Y-17690000D02*
X3795000Y-17690000D01*
%TO.C,C4*%
X9867836Y-11510000D02*
X9652164Y-11510000D01*
X9867836Y-10790000D02*
X9652164Y-10790000D01*
%TO.C,C3*%
X9867836Y-11820000D02*
X9652164Y-11820000D01*
X9867836Y-12540000D02*
X9652164Y-12540000D01*
%TO.C,C2*%
X9867836Y-14050000D02*
X9652164Y-14050000D01*
X9867836Y-14770000D02*
X9652164Y-14770000D01*
%TO.C,C1*%
X9867836Y-13010000D02*
X9652164Y-13010000D01*
X9867836Y-13730000D02*
X9652164Y-13730000D01*
%TO.C,D5*%
X8230000Y-7760000D02*
X7030000Y-7760000D01*
X8230000Y-9720000D02*
X8230000Y-7760000D01*
X7030000Y-9720000D02*
X7030000Y-7760000D01*
%TO.C,D1*%
X7030000Y-12540000D02*
X8230000Y-12540000D01*
X7030000Y-10580000D02*
X7030000Y-12540000D01*
X8230000Y-10580000D02*
X8230000Y-12540000D01*
D11*
%TO.C,HOLE\u002A\u002A*%
X1100000Y-17700000D02*
G75*
G02*
X-2500000Y-17700000I-1800000J0D01*
G01*
X-2500000Y-17700000D02*
G75*
G02*
X1100000Y-17700000I1800000J0D01*
G01*
X1100000Y-2610000D02*
G75*
G02*
X-2500000Y-2610000I-1800000J0D01*
G01*
X-2500000Y-2610000D02*
G75*
G02*
X1100000Y-2610000I1800000J0D01*
G01*
X27590000Y-2610000D02*
G75*
G02*
X23990000Y-2610000I-1800000J0D01*
G01*
X23990000Y-2610000D02*
G75*
G02*
X27590000Y-2610000I1800000J0D01*
G01*
X27590000Y-17700000D02*
G75*
G02*
X23990000Y-17700000I-1800000J0D01*
G01*
X23990000Y-17700000D02*
G75*
G02*
X27590000Y-17700000I1800000J0D01*
G01*
D15*
%TO.C,R8*%
X8537258Y-6882500D02*
X8062742Y-6882500D01*
X8537258Y-5837500D02*
X8062742Y-5837500D01*
%TO.C,R7*%
X8527258Y-5422500D02*
X8052742Y-5422500D01*
X8527258Y-4377500D02*
X8052742Y-4377500D01*
%TO.C,D2*%
X21170000Y-14655000D02*
X23455000Y-14655000D01*
X23455000Y-13185000D02*
X21170000Y-13185000D01*
X23455000Y-14655000D02*
X23455000Y-13185000D01*
D16*
%TO.C,USB2*%
X-4100000Y-14550000D02*
X-2678000Y-14550000D01*
X-323000Y-14550000D02*
X1422000Y-14550000D01*
X-4100000Y-5750000D02*
X-4100000Y-14550000D01*
X-4100000Y-5750000D02*
X-2678000Y-5750000D01*
X-323000Y-5750000D02*
X1422000Y-5750000D01*
D14*
%TO.C,U1*%
X12690680Y-7610000D02*
G75*
G02*
X12540680Y-7610000I-75000J0D01*
G01*
X12540680Y-7610000D02*
G75*
G02*
X12690680Y-7610000I75000J0D01*
G01*
D17*
X17731680Y-12726000D02*
X17731680Y-11981000D01*
X17731680Y-7574000D02*
X17731680Y-8319000D01*
X16986680Y-12726000D02*
X17731680Y-12726000D01*
X16986680Y-7574000D02*
X17731680Y-7574000D01*
X13324680Y-12726000D02*
X12579680Y-12726000D01*
X13324680Y-7574000D02*
X12579680Y-7574000D01*
X12579680Y-12726000D02*
X12579680Y-11981000D01*
X12579680Y-7574000D02*
X12579680Y-8319000D01*
D15*
%TO.C,J2*%
X27798680Y-13955000D02*
X27798680Y-3735000D01*
X30458680Y-3735000D02*
X27798680Y-3735000D01*
X30458680Y-13955000D02*
X27798680Y-13955000D01*
X30458680Y-13955000D02*
X30458680Y-3735000D01*
X30458680Y-15225000D02*
X30458680Y-16555000D01*
X30458680Y-16555000D02*
X29128680Y-16555000D01*
%TO.C,R4*%
X4182742Y-2487500D02*
X4657258Y-2487500D01*
X4182742Y-3532500D02*
X4657258Y-3532500D01*
%TO.C,R3*%
X21732742Y-7327500D02*
X22207258Y-7327500D01*
X21732742Y-8372500D02*
X22207258Y-8372500D01*
%TO.C,D3*%
X21170000Y-7125000D02*
X23455000Y-7125000D01*
X23455000Y-5655000D02*
X21170000Y-5655000D01*
X23455000Y-7125000D02*
X23455000Y-5655000D01*
%TO.C,D4*%
X3620000Y-2280000D02*
X5905000Y-2280000D01*
X5905000Y-810000D02*
X3620000Y-810000D01*
X5905000Y-2280000D02*
X5905000Y-810000D01*
%TO.C,R2*%
X21732742Y-12892500D02*
X22207258Y-12892500D01*
X21732742Y-11847500D02*
X22207258Y-11847500D01*
%TD*%
%LPC*%
D18*
%TO.C,F1*%
X3820000Y-16420000D03*
X6620000Y-16420000D03*
%TD*%
D19*
%TO.C,D6*%
X6595000Y-18640000D03*
X3795000Y-18640000D03*
%TD*%
D20*
%TO.C,C4*%
X10240000Y-11150000D03*
X9280000Y-11150000D03*
%TD*%
%TO.C,C3*%
X9280000Y-12180000D03*
X10240000Y-12180000D03*
%TD*%
%TO.C,C2*%
X9280000Y-14410000D03*
X10240000Y-14410000D03*
%TD*%
%TO.C,C1*%
X9280000Y-13370000D03*
X10240000Y-13370000D03*
%TD*%
D21*
%TO.C,D5*%
X7630000Y-8320000D03*
X7630000Y-9720000D03*
%TD*%
D22*
%TO.C,D1*%
X7630000Y-11980000D03*
X7630000Y-10580000D03*
%TD*%
D23*
%TO.C,HOLE\u002A\u002A*%
X-700000Y-17700000D03*
%TD*%
%TO.C,HOLE\u002A\u002A*%
X-700000Y-2610000D03*
%TD*%
%TO.C,HOLE\u002A\u002A*%
X25790000Y-2610000D03*
%TD*%
%TO.C,HOLE\u002A\u002A*%
X25790000Y-17700000D03*
%TD*%
D24*
%TO.C,R8*%
X9125000Y-6360000D03*
X7475000Y-6360000D03*
%TD*%
%TO.C,R7*%
X9115000Y-4900000D03*
X7465000Y-4900000D03*
%TD*%
D25*
%TO.C,D2*%
X21182500Y-13920000D03*
X22757500Y-13920000D03*
%TD*%
D26*
%TO.C,USB2*%
X3462000Y-8400000D03*
X3462000Y-9400000D03*
X3462000Y-10900000D03*
X3462000Y-11900000D03*
D27*
X3462000Y-12550000D03*
X3462000Y-13350000D03*
D26*
X3462000Y-11400000D03*
X3462000Y-10400000D03*
X3462000Y-9900000D03*
X3462000Y-8900000D03*
D27*
X3462000Y-7750000D03*
X3462000Y-6950000D03*
D28*
X-1500000Y-14475000D03*
X-1500000Y-5825000D03*
D29*
X2700000Y-14475000D03*
X2700000Y-5825000D03*
D30*
X2200000Y-13040000D03*
X2200000Y-7260000D03*
%TD*%
D31*
%TO.C,U1*%
X15155680Y-10150000D03*
D32*
X13655680Y-7773000D03*
X14155680Y-7773000D03*
X14655680Y-7773000D03*
X15155680Y-7773000D03*
X15655680Y-7773000D03*
X16155680Y-7773000D03*
X16655680Y-7773000D03*
D33*
X17532680Y-8650000D03*
X17532680Y-9150000D03*
X17532680Y-9650000D03*
X17532680Y-10150000D03*
X17532680Y-10650000D03*
X17532680Y-11150000D03*
X17532680Y-11650000D03*
D32*
X16655680Y-12527000D03*
X16155680Y-12527000D03*
X15655680Y-12527000D03*
X15155680Y-12527000D03*
X14655680Y-12527000D03*
X14155680Y-12527000D03*
X13655680Y-12527000D03*
D33*
X12778680Y-11650000D03*
X12778680Y-11150000D03*
X12778680Y-10650000D03*
X12778680Y-10150000D03*
X12778680Y-9650000D03*
X12778680Y-9150000D03*
X12778680Y-8650000D03*
%TD*%
D34*
%TO.C,J2*%
X29128680Y-5065000D03*
X29128680Y-7605000D03*
X29128680Y-10145000D03*
X29128680Y-12685000D03*
D35*
X29128680Y-15225000D03*
%TD*%
D36*
%TO.C,R4*%
X3595000Y-3010000D03*
X5245000Y-3010000D03*
%TD*%
%TO.C,R3*%
X21145000Y-7850000D03*
X22795000Y-7850000D03*
%TD*%
D25*
%TO.C,D3*%
X21182500Y-6390000D03*
X22757500Y-6390000D03*
%TD*%
%TO.C,D4*%
X3632500Y-1545000D03*
X5207500Y-1545000D03*
%TD*%
D36*
%TO.C,R2*%
X22795000Y-12370000D03*
X21145000Y-12370000D03*
%TD*%
D35*
%TO.C,J3*%
X9198680Y-1470000D03*
D34*
X11738680Y-1470000D03*
X14278680Y-1470000D03*
X16818680Y-1470000D03*
X19358680Y-1470000D03*
X21898680Y-1470000D03*
%TD*%
D35*
%TO.C,J1*%
X11580000Y-19030000D03*
D34*
X14120000Y-19030000D03*
X16660000Y-19030000D03*
%TD*%
%LPD*%
M02*
