M48
; DRILL file {KiCad 8.0.6} date 2024-11-25T12:43:11+0800
; FORMAT={-:-/ absolute / metric / decimal}
; #@! TF.CreationDate,2024-11-25T12:43:11+08:00
; #@! TF.GenerationSoftware,Kicad,Pcbnew,8.0.6
; #@! TF.FileFunction,MixedPlating,1,2
FMAT,2
METRIC
; #@! TA.AperFunction,Plated,PTH,ViaDrill
T1C0.300
; #@! TA.AperFunction,Plated,PTH,ViaDrill
T2C0.400
; #@! TA.AperFunction,Plated,PTH,ComponentDrill
T3C0.600
; #@! TA.AperFunction,Plated,PTH,ComponentDrill
T4C1.000
; #@! TA.AperFunction,NonPlated,NPTH,ComponentDrill
T5C0.650
; #@! TA.AperFunction,NonPlated,NPTH,ComponentDrill
T6C2.200
%
G90
G05
T1
X2.574Y-9.9
X2.574Y-10.9
X5.57Y-11.9
X5.74Y-8.94
X6.43Y-3.03
X6.7Y-6.37
X11.74Y-2.96
X14.134Y-9.27
X14.134Y-10.235
X14.134Y-11.2
X15.154Y-9.29
X15.154Y-10.255
X15.154Y-11.22
X15.656Y-7.02
X16.164Y-9.28
X16.164Y-10.245
X16.164Y-11.21
X17.48Y-7.03
X18.424Y-3.69
X18.774Y-10.13
X19.66Y-6.82
X26.42Y-8.91
X26.42Y-11.35
X28.86Y-2.35
X28.86Y-18.02
T2
X4.45Y-7.76
X4.45Y-12.55
X8.644Y-8.33
X10.241Y-15.24
X11.434Y-12.18
X19.67Y-12.18
T4
X9.199Y-1.47
X11.58Y-19.03
X11.739Y-1.47
X14.12Y-19.03
X14.279Y-1.47
X16.66Y-19.03
X16.819Y-1.47
X19.359Y-1.47
X21.899Y-1.47
X29.129Y-5.065
X29.129Y-7.605
X29.129Y-10.145
X29.129Y-12.685
X29.129Y-15.225
T5
X2.2Y-7.26
X2.2Y-13.04
T6
X-0.7Y-2.61
X-0.7Y-17.7
X25.79Y-2.61
X25.79Y-17.7
T3
G00X-1.05Y-5.825
M15
G01X-1.95Y-5.825
M16
G05
G00X-1.05Y-14.475
M15
G01X-1.95Y-14.475
M16
G05
G00X3.3Y-5.825
M15
G01X2.1Y-5.825
M16
G05
G00X3.3Y-14.475
M15
G01X2.1Y-14.475
M16
G05
M30
