%TF.GenerationSoftware,KiCad,Pcbnew,8.0.6*%
%TF.CreationDate,2024-11-25T12:43:08+08:00*%
%TF.ProjectId,UINIO-USB-UART-CP2102,55494e49-4f2d-4555-9342-2d554152542d,Version 5.0.0*%
%TF.SameCoordinates,PX8203930PY518daf8*%
%TF.FileFunction,Legend,Bot*%
%TF.FilePolarity,Positive*%
%FSLAX46Y46*%
G04 Gerber Fmt 4.6, Leading zero omitted, Abs format (unit mm)*
G04 Created by KiCad (PCBNEW 8.0.6) date 2024-11-25 12:43:08*
%MOMM*%
%LPD*%
G01*
G04 APERTURE LIST*
%ADD10C,0.160000*%
%ADD11C,0.125000*%
%ADD12C,0.100000*%
%ADD13C,0.120000*%
%ADD14C,2.200000*%
%ADD15O,1.900000X1.000000*%
%ADD16O,2.100000X1.000000*%
%ADD17C,0.650000*%
%ADD18O,1.700000X1.700000*%
%ADD19R,1.700000X1.700000*%
G04 APERTURE END LIST*
D10*
G36*
X3502630Y-9049615D02*
G01*
X3833090Y-9049615D01*
X3833090Y-8157371D01*
X3830101Y-8091379D01*
X3819059Y-8023278D01*
X3799880Y-7964751D01*
X3767998Y-7909587D01*
X3748072Y-7886694D01*
X3699272Y-7849498D01*
X3637893Y-7822930D01*
X3573867Y-7808400D01*
X3511321Y-7802422D01*
X3477394Y-7801675D01*
X3079640Y-7801675D01*
X3013556Y-7804664D01*
X2945402Y-7815707D01*
X2886879Y-7834886D01*
X2831790Y-7866767D01*
X2808963Y-7886694D01*
X2771767Y-7935606D01*
X2745199Y-7997022D01*
X2730669Y-8061020D01*
X2724692Y-8123496D01*
X2723944Y-8157371D01*
X2723944Y-9049615D01*
X3054405Y-9049615D01*
X3054405Y-8157371D01*
X3069973Y-8096490D01*
X3121561Y-8065636D01*
X3148736Y-8063340D01*
X3408298Y-8063340D01*
X3469374Y-8078859D01*
X3501156Y-8135332D01*
X3502630Y-8157371D01*
X3502630Y-9049615D01*
G37*
G36*
X4604565Y-7819100D02*
G01*
X3962571Y-7819100D01*
X3962571Y-8080464D01*
X4118188Y-8080464D01*
X4118188Y-8788250D01*
X3962571Y-8788250D01*
X3962571Y-9049615D01*
X4604565Y-9049615D01*
X4604565Y-8788250D01*
X4448949Y-8788250D01*
X4448949Y-8080464D01*
X4604565Y-8080464D01*
X4604565Y-7819100D01*
G37*
G36*
X5811347Y-7819100D02*
G01*
X5467368Y-7819100D01*
X5067210Y-8519375D01*
X5067210Y-7819100D01*
X4736750Y-7819100D01*
X4736750Y-9049615D01*
X5080729Y-9049615D01*
X5480586Y-8349639D01*
X5480586Y-9049615D01*
X5811347Y-9049615D01*
X5811347Y-7819100D01*
G37*
G36*
X6583724Y-7819100D02*
G01*
X5941729Y-7819100D01*
X5941729Y-8080464D01*
X6097346Y-8080464D01*
X6097346Y-8788250D01*
X5941729Y-8788250D01*
X5941729Y-9049615D01*
X6583724Y-9049615D01*
X6583724Y-8788250D01*
X6428107Y-8788250D01*
X6428107Y-8080464D01*
X6583724Y-8080464D01*
X6583724Y-7819100D01*
G37*
G36*
X7503285Y-7802422D02*
G01*
X7565830Y-7808400D01*
X7629857Y-7822930D01*
X7691236Y-7849498D01*
X7740035Y-7886694D01*
X7759962Y-7909587D01*
X7791844Y-7964751D01*
X7811023Y-8023278D01*
X7822065Y-8091379D01*
X7825054Y-8157371D01*
X7825054Y-8711343D01*
X7824307Y-8745216D01*
X7818329Y-8807670D01*
X7803799Y-8871616D01*
X7777231Y-8932939D01*
X7740035Y-8981720D01*
X7717208Y-9001716D01*
X7662119Y-9033711D01*
X7603596Y-9052958D01*
X7535442Y-9064039D01*
X7469358Y-9067039D01*
X7036755Y-9067039D01*
X7002880Y-9066289D01*
X6940404Y-9060290D01*
X6876407Y-9045709D01*
X6814990Y-9019047D01*
X6766078Y-8981720D01*
X6746152Y-8958897D01*
X6714270Y-8903846D01*
X6695091Y-8845387D01*
X6684048Y-8777325D01*
X6681060Y-8711343D01*
X6681060Y-8157371D01*
X7011821Y-8157371D01*
X7011821Y-8711343D01*
X7013294Y-8733382D01*
X7045076Y-8789855D01*
X7106152Y-8805374D01*
X7400262Y-8805374D01*
X7427437Y-8803078D01*
X7479025Y-8772224D01*
X7494593Y-8711343D01*
X7494593Y-8157371D01*
X7493119Y-8135332D01*
X7461338Y-8078859D01*
X7400262Y-8063340D01*
X7106152Y-8063340D01*
X7078976Y-8065636D01*
X7027389Y-8096490D01*
X7011821Y-8157371D01*
X6681060Y-8157371D01*
X6681807Y-8123496D01*
X6687785Y-8061020D01*
X6702314Y-7997022D01*
X6728882Y-7935606D01*
X6766078Y-7886694D01*
X6788971Y-7866767D01*
X6844135Y-7834886D01*
X6902662Y-7815707D01*
X6970763Y-7804664D01*
X7036755Y-7801675D01*
X7469358Y-7801675D01*
X7503285Y-7802422D01*
G37*
G36*
X7920887Y-8303675D02*
G01*
X7920887Y-8565039D01*
X8649403Y-8565039D01*
X8649403Y-8303675D01*
X7920887Y-8303675D01*
G37*
G36*
X9560272Y-9049615D02*
G01*
X9890733Y-9049615D01*
X9890733Y-8157371D01*
X9887744Y-8091379D01*
X9876702Y-8023278D01*
X9857523Y-7964751D01*
X9825641Y-7909587D01*
X9805714Y-7886694D01*
X9756915Y-7849498D01*
X9695536Y-7822930D01*
X9631509Y-7808400D01*
X9568964Y-7802422D01*
X9535037Y-7801675D01*
X9137283Y-7801675D01*
X9071199Y-7804664D01*
X9003045Y-7815707D01*
X8944522Y-7834886D01*
X8889433Y-7866767D01*
X8866606Y-7886694D01*
X8829410Y-7935606D01*
X8802842Y-7997022D01*
X8788312Y-8061020D01*
X8782334Y-8123496D01*
X8781587Y-8157371D01*
X8781587Y-9049615D01*
X9112048Y-9049615D01*
X9112048Y-8157371D01*
X9127616Y-8096490D01*
X9179204Y-8065636D01*
X9206379Y-8063340D01*
X9465941Y-8063340D01*
X9527017Y-8078859D01*
X9558798Y-8135332D01*
X9560272Y-8157371D01*
X9560272Y-9049615D01*
G37*
G36*
X10035835Y-8089777D02*
G01*
X10123800Y-8085052D01*
X10206204Y-8080792D01*
X10283048Y-8076997D01*
X10354331Y-8073667D01*
X10420053Y-8070801D01*
X10480214Y-8068400D01*
X10551780Y-8065922D01*
X10613459Y-8064269D01*
X10676657Y-8063366D01*
X10687443Y-8063340D01*
X10743622Y-8083768D01*
X10764351Y-8140247D01*
X10764351Y-8286251D01*
X10375909Y-8286251D01*
X10309825Y-8289240D01*
X10241671Y-8300282D01*
X10183148Y-8319461D01*
X10128059Y-8351343D01*
X10105232Y-8371269D01*
X10068036Y-8420068D01*
X10041468Y-8481448D01*
X10026938Y-8545474D01*
X10020961Y-8608020D01*
X10020213Y-8641946D01*
X10020213Y-8693919D01*
X10023202Y-8760003D01*
X10034245Y-8828157D01*
X10053424Y-8886680D01*
X10085306Y-8941769D01*
X10105232Y-8964596D01*
X10154031Y-9001792D01*
X10215410Y-9028360D01*
X10279437Y-9042889D01*
X10341983Y-9048867D01*
X10375909Y-9049615D01*
X10992969Y-9049615D01*
X10992969Y-8788250D01*
X10445005Y-8788250D01*
X10384124Y-8772682D01*
X10353270Y-8721094D01*
X10350974Y-8693919D01*
X10350974Y-8659371D01*
X10366493Y-8598295D01*
X10422967Y-8566513D01*
X10445005Y-8565039D01*
X10756540Y-8565039D01*
X10818343Y-8562135D01*
X10882357Y-8551404D01*
X10944848Y-8529460D01*
X10995962Y-8497188D01*
X11012196Y-8482424D01*
X11052132Y-8428922D01*
X11076658Y-8369274D01*
X11089648Y-8307749D01*
X11094730Y-8237513D01*
X11094811Y-8226768D01*
X11094811Y-8140247D01*
X11091907Y-8078332D01*
X11081176Y-8014186D01*
X11059232Y-7951544D01*
X11026960Y-7900280D01*
X11012196Y-7883990D01*
X10958694Y-7844199D01*
X10899046Y-7819762D01*
X10837521Y-7806820D01*
X10767285Y-7801756D01*
X10756540Y-7801675D01*
X10694440Y-7802101D01*
X10629996Y-7803379D01*
X10569379Y-7805280D01*
X10410157Y-7812190D01*
X10343084Y-7815732D01*
X10274574Y-7819822D01*
X10204628Y-7824462D01*
X10133246Y-7829652D01*
X10072663Y-7834396D01*
X10035835Y-7837425D01*
X10035835Y-8089777D01*
G37*
G36*
X11990007Y-7819180D02*
G01*
X12060357Y-7824244D01*
X12121966Y-7837186D01*
X12181674Y-7861623D01*
X12235200Y-7901414D01*
X12249965Y-7917702D01*
X12282236Y-7968933D01*
X12304181Y-8031504D01*
X12314911Y-8095557D01*
X12317816Y-8157371D01*
X12317798Y-8161897D01*
X12313309Y-8225641D01*
X12299790Y-8285049D01*
X12274050Y-8346404D01*
X12236958Y-8402300D01*
X12191679Y-8443026D01*
X12130955Y-8470708D01*
X12179211Y-8505360D01*
X12218978Y-8554524D01*
X12245660Y-8605439D01*
X12261266Y-8665655D01*
X12265843Y-8728467D01*
X12261890Y-8795253D01*
X12247690Y-8861970D01*
X12223164Y-8918435D01*
X12183228Y-8969703D01*
X12172583Y-8979380D01*
X12115881Y-9015200D01*
X12053389Y-9036426D01*
X11989375Y-9046805D01*
X11927572Y-9049615D01*
X11225794Y-9049615D01*
X11225794Y-8788250D01*
X11556254Y-8788250D01*
X11841051Y-8788250D01*
X11863090Y-8786776D01*
X11919563Y-8754995D01*
X11935082Y-8693919D01*
X11935082Y-8659371D01*
X11932787Y-8632195D01*
X11901933Y-8580608D01*
X11841051Y-8565039D01*
X11556254Y-8565039D01*
X11556254Y-8788250D01*
X11225794Y-8788250D01*
X11225794Y-8303675D01*
X11556254Y-8303675D01*
X11892723Y-8303675D01*
X11919899Y-8301372D01*
X11971486Y-8270419D01*
X11987055Y-8209343D01*
X11987055Y-8174795D01*
X11984752Y-8147620D01*
X11953799Y-8096032D01*
X11892723Y-8080464D01*
X11556254Y-8080464D01*
X11556254Y-8303675D01*
X11225794Y-8303675D01*
X11225794Y-7819100D01*
X11979244Y-7819100D01*
X11990007Y-7819180D01*
G37*
G36*
X12395924Y-8303675D02*
G01*
X12395924Y-8565039D01*
X13124440Y-8565039D01*
X13124440Y-8303675D01*
X12395924Y-8303675D01*
G37*
G36*
X14035309Y-9049615D02*
G01*
X14365770Y-9049615D01*
X14365770Y-8157371D01*
X14362781Y-8091379D01*
X14351739Y-8023278D01*
X14332560Y-7964751D01*
X14300678Y-7909587D01*
X14280751Y-7886694D01*
X14231952Y-7849498D01*
X14170573Y-7822930D01*
X14106546Y-7808400D01*
X14044001Y-7802422D01*
X14010074Y-7801675D01*
X13612320Y-7801675D01*
X13546236Y-7804664D01*
X13478082Y-7815707D01*
X13419559Y-7834886D01*
X13364470Y-7866767D01*
X13341643Y-7886694D01*
X13304447Y-7935606D01*
X13277879Y-7997022D01*
X13263349Y-8061020D01*
X13257371Y-8123496D01*
X13256624Y-8157371D01*
X13256624Y-9049615D01*
X13587085Y-9049615D01*
X13587085Y-8157371D01*
X13602653Y-8096490D01*
X13654241Y-8065636D01*
X13681416Y-8063340D01*
X13940978Y-8063340D01*
X14002054Y-8078859D01*
X14033835Y-8135332D01*
X14035309Y-8157371D01*
X14035309Y-9049615D01*
G37*
G36*
X14823908Y-8035401D02*
G01*
X15243293Y-8035401D01*
X15321101Y-7819100D01*
X15678900Y-7819100D01*
X15213251Y-9049615D01*
X14853950Y-9049615D01*
X14562390Y-8279641D01*
X14908627Y-8279641D01*
X15033601Y-8646753D01*
X15158575Y-8279641D01*
X14908627Y-8279641D01*
X14562390Y-8279641D01*
X14388001Y-7819100D01*
X14746100Y-7819100D01*
X14823908Y-8035401D01*
G37*
G36*
X16066140Y-8182606D02*
G01*
X16293256Y-8182606D01*
X16492133Y-7819100D01*
X16851735Y-7819100D01*
X16633631Y-8203035D01*
X16688821Y-8223747D01*
X16739094Y-8259678D01*
X16778433Y-8309383D01*
X16799988Y-8354671D01*
X16816876Y-8415136D01*
X16825344Y-8477342D01*
X16827701Y-8538302D01*
X16827701Y-8693919D01*
X16826954Y-8727845D01*
X16820976Y-8790391D01*
X16806447Y-8854417D01*
X16779878Y-8915797D01*
X16742683Y-8964596D01*
X16719856Y-8984522D01*
X16664766Y-9016404D01*
X16606244Y-9035583D01*
X16538089Y-9046626D01*
X16472005Y-9049615D01*
X15735679Y-9049615D01*
X15735679Y-8788250D01*
X16066140Y-8788250D01*
X16402609Y-8788250D01*
X16429784Y-8785947D01*
X16481372Y-8754995D01*
X16496940Y-8693919D01*
X16496940Y-8538302D01*
X16494637Y-8511126D01*
X16463685Y-8459539D01*
X16402609Y-8443970D01*
X16066140Y-8443970D01*
X16066140Y-8788250D01*
X15735679Y-8788250D01*
X15735679Y-7819100D01*
X16066140Y-7819100D01*
X16066140Y-8182606D01*
G37*
G36*
X17582053Y-7819100D02*
G01*
X17251292Y-7819100D01*
X17251292Y-8788250D01*
X16888085Y-8788250D01*
X16888085Y-9049615D01*
X17945559Y-9049615D01*
X17945559Y-8788250D01*
X17582053Y-8788250D01*
X17582053Y-7819100D01*
G37*
G36*
X17886377Y-8303675D02*
G01*
X17886377Y-8565039D01*
X18614892Y-8565039D01*
X18614892Y-8303675D01*
X17886377Y-8303675D01*
G37*
G36*
X19700605Y-7837425D02*
G01*
X19627766Y-7831036D01*
X19557394Y-7825276D01*
X19489487Y-7820144D01*
X19424046Y-7815640D01*
X19361072Y-7811765D01*
X19300564Y-7808518D01*
X19223722Y-7805166D01*
X19151265Y-7802932D01*
X19083192Y-7801815D01*
X19050800Y-7801675D01*
X18988884Y-7804569D01*
X18924738Y-7815260D01*
X18862096Y-7837125D01*
X18810833Y-7869279D01*
X18794542Y-7883990D01*
X18754752Y-7937661D01*
X18730314Y-7997459D01*
X18717372Y-8059115D01*
X18712308Y-8129483D01*
X18712228Y-8140247D01*
X18712228Y-8693919D01*
X18715217Y-8760003D01*
X18726259Y-8828157D01*
X18745438Y-8886680D01*
X18777320Y-8941769D01*
X18797246Y-8964596D01*
X18846158Y-9001792D01*
X18907575Y-9028360D01*
X18971573Y-9042889D01*
X19034048Y-9048867D01*
X19067923Y-9049615D01*
X19700605Y-9049615D01*
X19700605Y-8788250D01*
X19137320Y-8788250D01*
X19076244Y-8772682D01*
X19045292Y-8721094D01*
X19042989Y-8693919D01*
X19042989Y-8140247D01*
X19063417Y-8083768D01*
X19118394Y-8063340D01*
X19180088Y-8063935D01*
X19195902Y-8064241D01*
X19256947Y-8065764D01*
X19285727Y-8066645D01*
X19347367Y-8069010D01*
X19379758Y-8070250D01*
X19441998Y-8073323D01*
X19502629Y-8077159D01*
X19565816Y-8081327D01*
X19628604Y-8085317D01*
X19692991Y-8089310D01*
X19700605Y-8089777D01*
X19700605Y-7837425D01*
G37*
G36*
X20144624Y-8165182D02*
G01*
X20550490Y-8165182D01*
X20584416Y-8165929D01*
X20646962Y-8171907D01*
X20710988Y-8186436D01*
X20772368Y-8213005D01*
X20821167Y-8250200D01*
X20841093Y-8273027D01*
X20872975Y-8328117D01*
X20892154Y-8386639D01*
X20903197Y-8454794D01*
X20906185Y-8520878D01*
X20906185Y-8693919D01*
X20905438Y-8727845D01*
X20899460Y-8790391D01*
X20884931Y-8854417D01*
X20858363Y-8915797D01*
X20821167Y-8964596D01*
X20798340Y-8984522D01*
X20743251Y-9016404D01*
X20684728Y-9035583D01*
X20616574Y-9046626D01*
X20550490Y-9049615D01*
X19814163Y-9049615D01*
X19814163Y-8788250D01*
X20144624Y-8788250D01*
X20481093Y-8788250D01*
X20508269Y-8785947D01*
X20559856Y-8754995D01*
X20575424Y-8693919D01*
X20575424Y-8520878D01*
X20573121Y-8493702D01*
X20542169Y-8442114D01*
X20481093Y-8426546D01*
X20144624Y-8426546D01*
X20144624Y-8788250D01*
X19814163Y-8788250D01*
X19814163Y-7819100D01*
X20144624Y-7819100D01*
X20144624Y-8165182D01*
G37*
G36*
X21920699Y-8659371D02*
G01*
X21914575Y-8594995D01*
X21896204Y-8534616D01*
X21865584Y-8478233D01*
X21822716Y-8425847D01*
X21792721Y-8397706D01*
X21744622Y-8358358D01*
X21708904Y-8331313D01*
X21361019Y-8080464D01*
X21920699Y-8080464D01*
X21920699Y-7819100D01*
X20966870Y-7819100D01*
X20966870Y-8162178D01*
X21589938Y-8612205D01*
X21589938Y-8693919D01*
X21574370Y-8754995D01*
X21522783Y-8785947D01*
X21495607Y-8788250D01*
X21001418Y-8788250D01*
X21001418Y-9049615D01*
X21565004Y-9049615D01*
X21630985Y-9046626D01*
X21699047Y-9035583D01*
X21757506Y-9016404D01*
X21812558Y-8984522D01*
X21835381Y-8964596D01*
X21872708Y-8915797D01*
X21899370Y-8854417D01*
X21913951Y-8790391D01*
X21919950Y-8727845D01*
X21920699Y-8693919D01*
X21920699Y-8659371D01*
G37*
G36*
X22233135Y-7819100D02*
G01*
X22233135Y-8758208D01*
X22038464Y-8690614D01*
X21944733Y-8906615D01*
X22275494Y-9049615D01*
X22563896Y-9049615D01*
X22563896Y-7819100D01*
X22233135Y-7819100D01*
G37*
G36*
X23432386Y-7802422D02*
G01*
X23494931Y-7808400D01*
X23558958Y-7822930D01*
X23620337Y-7849498D01*
X23669136Y-7886694D01*
X23689062Y-7909587D01*
X23720944Y-7964751D01*
X23740123Y-8023278D01*
X23751166Y-8091379D01*
X23754155Y-8157371D01*
X23754155Y-8711343D01*
X23753408Y-8745216D01*
X23747430Y-8807670D01*
X23732900Y-8871616D01*
X23706332Y-8932939D01*
X23669136Y-8981720D01*
X23646309Y-9001716D01*
X23591220Y-9033711D01*
X23532697Y-9052958D01*
X23464543Y-9064039D01*
X23398459Y-9067039D01*
X23069501Y-9067039D01*
X23035625Y-9066289D01*
X22973150Y-9060290D01*
X22909152Y-9045709D01*
X22847735Y-9019047D01*
X22798823Y-8981720D01*
X22778897Y-8958897D01*
X22747015Y-8903846D01*
X22727836Y-8845387D01*
X22716794Y-8777325D01*
X22713805Y-8711343D01*
X22713805Y-8157371D01*
X23044566Y-8157371D01*
X23044566Y-8711343D01*
X23046040Y-8733382D01*
X23077821Y-8789855D01*
X23138897Y-8805374D01*
X23329062Y-8805374D01*
X23356238Y-8803078D01*
X23407825Y-8772224D01*
X23423394Y-8711343D01*
X23423394Y-8157371D01*
X23421920Y-8135332D01*
X23390138Y-8078859D01*
X23329062Y-8063340D01*
X23138897Y-8063340D01*
X23111722Y-8065636D01*
X23060134Y-8096490D01*
X23044566Y-8157371D01*
X22713805Y-8157371D01*
X22714552Y-8123496D01*
X22720530Y-8061020D01*
X22735059Y-7997022D01*
X22761628Y-7935606D01*
X22798823Y-7886694D01*
X22821716Y-7866767D01*
X22876881Y-7834886D01*
X22935407Y-7815707D01*
X23003508Y-7804664D01*
X23069501Y-7801675D01*
X23398459Y-7801675D01*
X23432386Y-7802422D01*
G37*
G36*
X24786694Y-8659371D02*
G01*
X24780570Y-8594995D01*
X24762198Y-8534616D01*
X24731578Y-8478233D01*
X24688710Y-8425847D01*
X24658715Y-8397706D01*
X24610616Y-8358358D01*
X24574899Y-8331313D01*
X24227014Y-8080464D01*
X24786694Y-8080464D01*
X24786694Y-7819100D01*
X23832864Y-7819100D01*
X23832864Y-8162178D01*
X24455933Y-8612205D01*
X24455933Y-8693919D01*
X24440364Y-8754995D01*
X24388777Y-8785947D01*
X24361601Y-8788250D01*
X23867413Y-8788250D01*
X23867413Y-9049615D01*
X24430998Y-9049615D01*
X24496980Y-9046626D01*
X24565042Y-9035583D01*
X24623501Y-9016404D01*
X24678553Y-8984522D01*
X24701375Y-8964596D01*
X24738702Y-8915797D01*
X24765364Y-8854417D01*
X24779945Y-8790391D01*
X24785944Y-8727845D01*
X24786694Y-8693919D01*
X24786694Y-8659371D01*
G37*
D11*
G36*
X9189424Y-6042087D02*
G01*
X9452449Y-6800265D01*
X9754162Y-6800265D01*
X9344176Y-5717000D01*
X9034672Y-5717000D01*
X8624417Y-6800265D01*
X8926399Y-6800265D01*
X9189424Y-6042087D01*
G37*
G36*
X10011258Y-5701539D02*
G01*
X10073773Y-5702512D01*
X10138018Y-5704460D01*
X10203993Y-5707382D01*
X10271697Y-5711278D01*
X10341131Y-5716147D01*
X10412294Y-5721991D01*
X10466801Y-5727013D01*
X10522281Y-5732582D01*
X10522281Y-5926023D01*
X10450623Y-5920544D01*
X10383414Y-5915796D01*
X10320655Y-5911779D01*
X10262346Y-5908492D01*
X10195717Y-5905410D01*
X10136041Y-5903470D01*
X10073607Y-5902648D01*
X10034919Y-5917963D01*
X10019337Y-5956919D01*
X10019337Y-6018713D01*
X10553447Y-6018713D01*
X10553447Y-6305112D01*
X10552868Y-6326430D01*
X10544190Y-6385057D01*
X10522335Y-6440827D01*
X10487623Y-6486731D01*
X10465827Y-6505694D01*
X10414875Y-6533977D01*
X10360628Y-6548440D01*
X10305736Y-6552554D01*
X9996231Y-6552554D01*
X9968000Y-6551526D01*
X9910221Y-6541691D01*
X9860390Y-6521442D01*
X9814344Y-6486731D01*
X9795381Y-6465012D01*
X9767097Y-6414175D01*
X9752634Y-6359987D01*
X9748520Y-6305112D01*
X9748520Y-6297321D01*
X10019337Y-6297321D01*
X10031216Y-6339562D01*
X10081399Y-6359114D01*
X10220568Y-6359114D01*
X10260751Y-6348916D01*
X10282630Y-6297321D01*
X10282630Y-6212153D01*
X10019337Y-6212153D01*
X10019337Y-6297321D01*
X9748520Y-6297321D01*
X9748520Y-5933545D01*
X9749077Y-5914212D01*
X9757436Y-5860577D01*
X9778489Y-5808659D01*
X9811926Y-5764822D01*
X9824228Y-5753491D01*
X9870489Y-5723770D01*
X9924831Y-5706432D01*
X9980648Y-5701417D01*
X10011258Y-5701539D01*
G37*
G36*
X11159291Y-6312903D02*
G01*
X11103944Y-6309227D01*
X11047619Y-6298197D01*
X10990317Y-6279814D01*
X10958060Y-6266424D01*
X10958060Y-5717000D01*
X10687243Y-5717000D01*
X10687243Y-6537240D01*
X10927163Y-6537240D01*
X10942477Y-6436490D01*
X10992874Y-6475934D01*
X11044121Y-6507217D01*
X11096218Y-6530339D01*
X11149166Y-6545300D01*
X11202963Y-6552101D01*
X11221085Y-6552554D01*
X11290669Y-6552554D01*
X11290669Y-6312903D01*
X11159291Y-6312903D01*
G37*
G36*
X11364553Y-5933545D02*
G01*
X11422273Y-5929416D01*
X11477654Y-5925693D01*
X11547860Y-5921361D01*
X11613911Y-5917751D01*
X11675805Y-5914862D01*
X11733543Y-5912696D01*
X11799872Y-5911004D01*
X11859706Y-5910440D01*
X11898394Y-5925754D01*
X11913977Y-5964711D01*
X11913977Y-6018713D01*
X11581099Y-6018713D01*
X11525281Y-6023728D01*
X11470939Y-6041066D01*
X11424678Y-6070787D01*
X11412376Y-6082118D01*
X11378939Y-6125955D01*
X11357887Y-6177873D01*
X11349527Y-6231508D01*
X11348970Y-6250841D01*
X11348970Y-6305112D01*
X11353986Y-6360908D01*
X11371323Y-6415176D01*
X11401044Y-6461312D01*
X11412376Y-6473566D01*
X11456212Y-6507144D01*
X11508130Y-6528286D01*
X11561766Y-6536681D01*
X11581099Y-6537240D01*
X12107418Y-6537240D01*
X12107418Y-6336009D01*
X11674057Y-6336009D01*
X11635101Y-6320426D01*
X11619787Y-6281738D01*
X11635101Y-6243050D01*
X11674057Y-6227736D01*
X11952665Y-6227736D01*
X12008461Y-6222699D01*
X12062730Y-6205288D01*
X12108865Y-6175441D01*
X12121120Y-6164062D01*
X12154698Y-6120366D01*
X12175839Y-6068538D01*
X12184234Y-6014938D01*
X12184794Y-5995607D01*
X12184794Y-5933545D01*
X12179757Y-5877728D01*
X12162346Y-5823386D01*
X12132499Y-5777125D01*
X12121120Y-5764822D01*
X12077424Y-5731386D01*
X12025596Y-5710333D01*
X11971996Y-5701974D01*
X11952665Y-5701417D01*
X11883530Y-5701904D01*
X11813143Y-5703365D01*
X11741505Y-5705799D01*
X11686956Y-5708265D01*
X11631704Y-5711278D01*
X11575747Y-5714839D01*
X11519087Y-5718947D01*
X11461723Y-5723604D01*
X11403655Y-5728808D01*
X11364553Y-5732582D01*
X11364553Y-5933545D01*
G37*
G36*
X12613855Y-6506344D02*
G01*
X12613855Y-5717000D01*
X12343039Y-5717000D01*
X12343039Y-6297321D01*
X12226974Y-6297321D01*
X12226974Y-6506344D01*
X12613855Y-6506344D01*
G37*
G36*
X12343039Y-6815848D02*
G01*
X12613855Y-6815848D01*
X12613855Y-6599034D01*
X12343039Y-6599034D01*
X12343039Y-6815848D01*
G37*
G36*
X13375082Y-5701995D02*
G01*
X13433710Y-5710673D01*
X13489479Y-5732529D01*
X13535383Y-5767240D01*
X13554346Y-5789037D01*
X13582630Y-5839989D01*
X13597093Y-5894236D01*
X13601207Y-5949128D01*
X13601207Y-6305112D01*
X13600628Y-6326430D01*
X13591950Y-6385057D01*
X13570095Y-6440827D01*
X13535383Y-6486731D01*
X13513664Y-6505694D01*
X13462827Y-6533977D01*
X13408640Y-6548440D01*
X13353764Y-6552554D01*
X12997780Y-6552554D01*
X12969549Y-6551526D01*
X12911770Y-6541691D01*
X12861939Y-6521442D01*
X12815893Y-6486731D01*
X12796930Y-6465012D01*
X12768646Y-6414175D01*
X12754183Y-6359987D01*
X12750069Y-6305112D01*
X12750069Y-5972233D01*
X13020886Y-5972233D01*
X13020886Y-6281738D01*
X13032765Y-6324163D01*
X13082948Y-6343800D01*
X13268597Y-6343800D01*
X13310838Y-6331921D01*
X13330390Y-6281738D01*
X13330390Y-5972233D01*
X13320192Y-5932224D01*
X13268597Y-5910440D01*
X13082948Y-5910440D01*
X13042765Y-5920638D01*
X13020886Y-5972233D01*
X12750069Y-5972233D01*
X12750069Y-5949128D01*
X12751098Y-5920897D01*
X12760933Y-5863117D01*
X12781181Y-5813286D01*
X12815893Y-5767240D01*
X12837689Y-5748277D01*
X12888641Y-5719994D01*
X12942888Y-5705531D01*
X12997780Y-5701417D01*
X13353764Y-5701417D01*
X13375082Y-5701995D01*
G37*
G36*
X14191468Y-6328217D02*
G01*
X14132561Y-6324566D01*
X14074546Y-6314911D01*
X14018698Y-6301062D01*
X14005819Y-6297321D01*
X14005819Y-5717000D01*
X13735003Y-5717000D01*
X13735003Y-6537240D01*
X13974923Y-6537240D01*
X13990237Y-6459864D01*
X14040737Y-6489726D01*
X14092127Y-6513557D01*
X14139616Y-6529986D01*
X14193681Y-6543739D01*
X14248257Y-6551761D01*
X14268845Y-6552554D01*
X14338429Y-6552554D01*
X14394355Y-6547539D01*
X14448718Y-6530201D01*
X14494895Y-6500480D01*
X14507152Y-6489149D01*
X14540589Y-6445427D01*
X14561641Y-6393520D01*
X14570000Y-6339805D01*
X14570558Y-6320426D01*
X14570558Y-5717000D01*
X14299741Y-5717000D01*
X14299741Y-6274215D01*
X14284159Y-6312635D01*
X14245739Y-6328217D01*
X14191468Y-6328217D01*
G37*
G36*
X15692512Y-5701417D02*
G01*
X15627028Y-5701904D01*
X15559807Y-5703365D01*
X15490848Y-5705799D01*
X15420150Y-5709208D01*
X15365987Y-5712404D01*
X15310846Y-5716147D01*
X15254727Y-5720439D01*
X15197631Y-5725278D01*
X15139557Y-5730665D01*
X15119982Y-5732582D01*
X15119982Y-5941337D01*
X15182586Y-5937207D01*
X15242145Y-5933484D01*
X15298657Y-5930167D01*
X15369268Y-5926377D01*
X15434464Y-5923308D01*
X15494245Y-5920961D01*
X15548610Y-5919337D01*
X15608951Y-5918321D01*
X15630718Y-5918231D01*
X15683082Y-5935221D01*
X15687138Y-5938919D01*
X15707910Y-5989037D01*
X15708094Y-5995607D01*
X15708094Y-6072983D01*
X15697110Y-6125755D01*
X15651357Y-6161238D01*
X15615136Y-6165674D01*
X15166461Y-6165674D01*
X15166461Y-6800265D01*
X15909326Y-6800265D01*
X15909326Y-6583720D01*
X15445069Y-6583720D01*
X15445069Y-6382488D01*
X15692512Y-6382488D01*
X15746602Y-6380061D01*
X15802545Y-6371092D01*
X15857034Y-6352752D01*
X15906291Y-6321802D01*
X15915505Y-6313441D01*
X15949922Y-6269057D01*
X15973075Y-6213282D01*
X15984199Y-6154142D01*
X15986702Y-6103880D01*
X15986702Y-5995607D01*
X15984199Y-5941517D01*
X15974952Y-5885574D01*
X15956040Y-5831085D01*
X15924127Y-5781828D01*
X15915505Y-5772614D01*
X15869082Y-5738197D01*
X15817111Y-5717061D01*
X15763373Y-5705867D01*
X15701920Y-5701486D01*
X15692512Y-5701417D01*
G37*
G36*
X16058705Y-5949128D02*
G01*
X16337313Y-5949128D01*
X16337313Y-5717000D01*
X16058705Y-5717000D01*
X16058705Y-5949128D01*
G37*
G36*
X17067370Y-5701704D02*
G01*
X17123097Y-5706018D01*
X17180186Y-5717592D01*
X17234977Y-5739446D01*
X17283290Y-5775032D01*
X17296446Y-5789614D01*
X17325201Y-5836118D01*
X17344755Y-5893705D01*
X17354317Y-5953185D01*
X17356905Y-6010921D01*
X17356905Y-6506344D01*
X17356617Y-6526282D01*
X17352304Y-6581940D01*
X17340729Y-6638995D01*
X17318875Y-6693812D01*
X17283290Y-6742233D01*
X17268753Y-6755389D01*
X17222324Y-6784145D01*
X17164746Y-6803699D01*
X17105218Y-6813260D01*
X17047400Y-6815848D01*
X16753210Y-6815848D01*
X16733272Y-6815561D01*
X16677613Y-6811247D01*
X16620558Y-6799673D01*
X16565741Y-6777819D01*
X16517320Y-6742233D01*
X16504164Y-6727651D01*
X16475408Y-6681147D01*
X16455854Y-6623560D01*
X16446293Y-6564080D01*
X16443705Y-6506344D01*
X16443705Y-6010921D01*
X16722313Y-6010921D01*
X16722313Y-6506344D01*
X16726761Y-6542460D01*
X16762347Y-6588081D01*
X16815272Y-6599034D01*
X16985338Y-6599034D01*
X17021559Y-6594598D01*
X17067312Y-6559115D01*
X17078297Y-6506344D01*
X17078297Y-6010921D01*
X17073849Y-5974805D01*
X17038263Y-5929184D01*
X16985338Y-5918231D01*
X16815272Y-5918231D01*
X16779050Y-5922667D01*
X16733297Y-5958150D01*
X16722313Y-6010921D01*
X16443705Y-6010921D01*
X16443993Y-5990983D01*
X16448306Y-5935325D01*
X16459880Y-5878270D01*
X16481735Y-5823453D01*
X16517320Y-5775032D01*
X16531902Y-5761876D01*
X16578406Y-5733120D01*
X16635994Y-5713566D01*
X16695473Y-5704005D01*
X16753210Y-5701417D01*
X17047400Y-5701417D01*
X17067370Y-5701704D01*
G37*
G36*
X17460073Y-5949128D02*
G01*
X17738681Y-5949128D01*
X17738681Y-5717000D01*
X17460073Y-5717000D01*
X17460073Y-5949128D01*
G37*
G36*
X18468737Y-5701704D02*
G01*
X18524465Y-5706018D01*
X18581553Y-5717592D01*
X18636345Y-5739446D01*
X18684658Y-5775032D01*
X18697813Y-5789614D01*
X18726569Y-5836118D01*
X18746123Y-5893705D01*
X18755684Y-5953185D01*
X18758272Y-6010921D01*
X18758272Y-6506344D01*
X18757985Y-6526282D01*
X18753671Y-6581940D01*
X18742097Y-6638995D01*
X18720243Y-6693812D01*
X18684658Y-6742233D01*
X18670121Y-6755389D01*
X18623692Y-6784145D01*
X18566113Y-6803699D01*
X18506586Y-6813260D01*
X18448768Y-6815848D01*
X18154577Y-6815848D01*
X18134639Y-6815561D01*
X18078981Y-6811247D01*
X18021926Y-6799673D01*
X17967109Y-6777819D01*
X17918688Y-6742233D01*
X17905532Y-6727651D01*
X17876776Y-6681147D01*
X17857222Y-6623560D01*
X17847661Y-6564080D01*
X17845073Y-6506344D01*
X17845073Y-6010921D01*
X18123681Y-6010921D01*
X18123681Y-6506344D01*
X18128129Y-6542460D01*
X18163715Y-6588081D01*
X18216639Y-6599034D01*
X18386706Y-6599034D01*
X18422927Y-6594598D01*
X18468680Y-6559115D01*
X18479665Y-6506344D01*
X18479665Y-6010921D01*
X18475216Y-5974805D01*
X18439631Y-5929184D01*
X18386706Y-5918231D01*
X18216639Y-5918231D01*
X18180418Y-5922667D01*
X18134665Y-5958150D01*
X18123681Y-6010921D01*
X17845073Y-6010921D01*
X17845360Y-5990983D01*
X17849674Y-5935325D01*
X17861248Y-5878270D01*
X17883102Y-5823453D01*
X17918688Y-5775032D01*
X17933270Y-5761876D01*
X17979774Y-5733120D01*
X18037361Y-5713566D01*
X18096841Y-5704005D01*
X18154577Y-5701417D01*
X18448768Y-5701417D01*
X18468737Y-5701704D01*
G37*
D10*
G36*
X13791449Y-11123559D02*
G01*
X13868965Y-11261299D01*
X13872560Y-11315052D01*
X13872560Y-12666203D01*
X13834589Y-12814695D01*
X13708766Y-12889948D01*
X13642484Y-12895547D01*
X12925142Y-12895547D01*
X12776177Y-12857697D01*
X12698661Y-12719956D01*
X12695066Y-12666203D01*
X12695066Y-11315052D01*
X12733037Y-11166561D01*
X12858861Y-11091307D01*
X12925142Y-11085708D01*
X13642484Y-11085708D01*
X13791449Y-11123559D01*
G37*
G36*
X19840388Y-11133032D02*
G01*
X19854556Y-11209539D01*
X19854556Y-12053642D01*
X19785983Y-12185216D01*
X19709476Y-12199455D01*
X19203161Y-12199455D01*
X19071587Y-12130536D01*
X19057348Y-12053642D01*
X19057348Y-11209539D01*
X19126267Y-11078627D01*
X19203161Y-11064459D01*
X19709476Y-11064459D01*
X19840388Y-11133032D01*
G37*
G36*
X24862697Y-13867087D02*
G01*
X2744671Y-13867087D01*
X2744671Y-13533754D01*
X6373084Y-13533754D01*
X7158569Y-13533754D01*
X7158569Y-12895547D01*
X6373084Y-12895547D01*
X6373084Y-13533754D01*
X2744671Y-13533754D01*
X2744671Y-11315052D01*
X3078004Y-11315052D01*
X3078004Y-13491256D01*
X3884005Y-13491256D01*
X3884005Y-11315052D01*
X3921977Y-11166561D01*
X4047800Y-11091307D01*
X4114082Y-11085708D01*
X4747159Y-11085708D01*
X4896125Y-11123559D01*
X4973641Y-11261299D01*
X4977236Y-11315052D01*
X4977236Y-13491256D01*
X5783237Y-13491256D01*
X5783237Y-12773914D01*
X7525666Y-12773914D01*
X8222491Y-12773914D01*
X8261325Y-12578276D01*
X8396033Y-12655796D01*
X8541869Y-12719097D01*
X8645275Y-12753398D01*
X8795473Y-12791351D01*
X8947523Y-12813490D01*
X9005045Y-12815680D01*
X9194821Y-12815680D01*
X9352473Y-12801422D01*
X9505888Y-12752134D01*
X9636405Y-12667642D01*
X9671095Y-12635429D01*
X9766149Y-12511781D01*
X9825998Y-12365235D01*
X9849762Y-12213766D01*
X9851346Y-12159155D01*
X9851346Y-11127473D01*
X10085087Y-11127473D01*
X10464640Y-11127473D01*
X10464640Y-12853782D01*
X10085087Y-12853782D01*
X10085087Y-13491256D01*
X11650928Y-13491256D01*
X11650928Y-12853782D01*
X11271374Y-12853782D01*
X11271374Y-11315052D01*
X11888332Y-11315052D01*
X11888332Y-12666203D01*
X11895622Y-12827134D01*
X11922554Y-12993139D01*
X11969332Y-13135722D01*
X12047093Y-13269994D01*
X12095694Y-13325659D01*
X12214991Y-13416700D01*
X12364788Y-13481730D01*
X12520880Y-13517293D01*
X12673259Y-13531925D01*
X12755882Y-13533754D01*
X13811011Y-13533754D01*
X13972191Y-13526438D01*
X14138421Y-13499410D01*
X14281160Y-13452467D01*
X14415524Y-13374431D01*
X14471200Y-13325659D01*
X14561921Y-13206682D01*
X14626721Y-13057114D01*
X14662159Y-12901147D01*
X14676739Y-12748820D01*
X14678562Y-12666203D01*
X14678562Y-11315052D01*
X14671991Y-11169972D01*
X14912302Y-11169972D01*
X15719036Y-11169972D01*
X15719036Y-11104026D01*
X15962302Y-11104026D01*
X15962302Y-12074891D01*
X15973934Y-12229176D01*
X16014828Y-12381837D01*
X16085166Y-12512356D01*
X16148415Y-12587069D01*
X16264528Y-12677390D01*
X16402666Y-12738151D01*
X16562829Y-12769353D01*
X16661325Y-12773914D01*
X18035191Y-12773914D01*
X18035191Y-12156957D01*
X16893600Y-12156957D01*
X16762027Y-12088384D01*
X16747787Y-12011877D01*
X16747787Y-11189023D01*
X16764508Y-11146524D01*
X18271863Y-11146524D01*
X18271863Y-11209539D01*
X18271863Y-12117390D01*
X18283495Y-12271675D01*
X18324389Y-12424335D01*
X18394726Y-12554854D01*
X18457976Y-12629567D01*
X18574089Y-12719534D01*
X18712227Y-12780057D01*
X18872389Y-12811136D01*
X18970886Y-12815680D01*
X19941751Y-12815680D01*
X20096036Y-12804048D01*
X20208528Y-12773914D01*
X20958045Y-12773914D01*
X21654870Y-12773914D01*
X21693705Y-12578276D01*
X21828412Y-12655796D01*
X21974248Y-12719097D01*
X22077655Y-12753398D01*
X22227853Y-12791351D01*
X22379902Y-12813490D01*
X22437424Y-12815680D01*
X22479923Y-12815680D01*
X22626162Y-12804004D01*
X22773028Y-12762067D01*
X22912416Y-12678431D01*
X23013349Y-12571681D01*
X23142152Y-12647370D01*
X23282730Y-12709205D01*
X23420746Y-12753398D01*
X23572619Y-12788857D01*
X23725067Y-12810753D01*
X23830341Y-12815680D01*
X23872840Y-12815680D01*
X24030194Y-12801422D01*
X24183552Y-12752134D01*
X24314299Y-12667642D01*
X24349113Y-12635429D01*
X24444167Y-12511781D01*
X24504017Y-12365235D01*
X24527780Y-12213766D01*
X24529364Y-12159155D01*
X24529364Y-10490000D01*
X23743879Y-10490000D01*
X23743879Y-12033126D01*
X23707976Y-12121786D01*
X23619316Y-12156957D01*
X23598066Y-12156957D01*
X23445567Y-12145932D01*
X23299594Y-12119900D01*
X23153535Y-12083379D01*
X23136447Y-12078555D01*
X23136447Y-10490000D01*
X22350962Y-10490000D01*
X22350962Y-12033126D01*
X22315791Y-12121786D01*
X22226399Y-12156957D01*
X22205149Y-12156957D01*
X22052650Y-12145932D01*
X21906677Y-12119900D01*
X21760618Y-12083379D01*
X21743530Y-12078555D01*
X21743530Y-10490000D01*
X20958045Y-10490000D01*
X20958045Y-12773914D01*
X20208528Y-12773914D01*
X20248696Y-12763154D01*
X20379216Y-12692816D01*
X20453928Y-12629567D01*
X20543895Y-12513808D01*
X20604418Y-12375908D01*
X20635497Y-12215868D01*
X20640041Y-12117390D01*
X20640041Y-11146524D01*
X20628409Y-10992193D01*
X20587515Y-10839372D01*
X20517178Y-10708576D01*
X20453928Y-10633614D01*
X20338169Y-10543648D01*
X20200270Y-10483124D01*
X20040229Y-10452045D01*
X19941751Y-10447501D01*
X18970886Y-10447501D01*
X18816555Y-10459133D01*
X18663734Y-10500027D01*
X18532937Y-10570365D01*
X18457976Y-10633614D01*
X18368009Y-10749727D01*
X18307486Y-10887865D01*
X18276406Y-11048028D01*
X18271863Y-11146524D01*
X16764508Y-11146524D01*
X16782958Y-11099630D01*
X16872351Y-11064459D01*
X17028654Y-11066751D01*
X17180670Y-11072164D01*
X17352471Y-11080762D01*
X17504158Y-11089932D01*
X17668506Y-11101141D01*
X17845518Y-11114387D01*
X18035191Y-11129672D01*
X18035191Y-10534696D01*
X17884914Y-10519113D01*
X17738256Y-10505063D01*
X17548342Y-10488714D01*
X17364862Y-10475090D01*
X17187816Y-10464191D01*
X17017205Y-10456016D01*
X16853028Y-10450567D01*
X16695286Y-10447842D01*
X16618827Y-10447501D01*
X16461472Y-10461759D01*
X16308114Y-10511047D01*
X16177368Y-10595540D01*
X16142553Y-10627752D01*
X16047499Y-10751715D01*
X15987650Y-10898290D01*
X15963886Y-11049539D01*
X15962302Y-11104026D01*
X15719036Y-11104026D01*
X15719036Y-10490000D01*
X14912302Y-10490000D01*
X14912302Y-11169972D01*
X14671991Y-11169972D01*
X14671272Y-11154095D01*
X14644339Y-10987995D01*
X14597561Y-10845247D01*
X14519800Y-10710700D01*
X14471200Y-10654863D01*
X14352177Y-10564142D01*
X14202471Y-10499342D01*
X14046309Y-10463904D01*
X13893759Y-10449324D01*
X13811011Y-10447501D01*
X12755882Y-10447501D01*
X12594925Y-10454791D01*
X12428825Y-10481724D01*
X12286077Y-10528502D01*
X12151530Y-10606263D01*
X12095694Y-10654863D01*
X12004973Y-10774161D01*
X11940172Y-10923958D01*
X11904734Y-11080050D01*
X11890154Y-11232429D01*
X11888332Y-11315052D01*
X11271374Y-11315052D01*
X11271374Y-11127473D01*
X11650928Y-11127473D01*
X11650928Y-10490000D01*
X10085087Y-10490000D01*
X10085087Y-11127473D01*
X9851346Y-11127473D01*
X9851346Y-10490000D01*
X9065861Y-10490000D01*
X9065861Y-12033126D01*
X9030690Y-12121786D01*
X8942030Y-12156957D01*
X8794019Y-12156957D01*
X8637785Y-12147693D01*
X8486889Y-12123192D01*
X8343863Y-12088049D01*
X8311151Y-12078555D01*
X8311151Y-10490000D01*
X7525666Y-10490000D01*
X7525666Y-12773914D01*
X5783237Y-12773914D01*
X5783237Y-12072693D01*
X6056545Y-12072693D01*
X6056545Y-12689651D01*
X7158569Y-12689651D01*
X7158569Y-10490000D01*
X6373084Y-10490000D01*
X6373084Y-12072693D01*
X6056545Y-12072693D01*
X5783237Y-12072693D01*
X5783237Y-11315052D01*
X5775947Y-11154095D01*
X5749014Y-10987995D01*
X5702237Y-10845247D01*
X5624476Y-10710700D01*
X5575875Y-10654863D01*
X5456853Y-10564142D01*
X5307147Y-10499342D01*
X5150985Y-10463904D01*
X4998434Y-10449324D01*
X4915687Y-10447501D01*
X3945554Y-10447501D01*
X3784374Y-10454791D01*
X3618144Y-10481724D01*
X3475406Y-10528502D01*
X3341042Y-10606263D01*
X3285366Y-10654863D01*
X3194645Y-10774161D01*
X3129844Y-10923958D01*
X3094406Y-11080050D01*
X3079826Y-11232429D01*
X3078004Y-11315052D01*
X2744671Y-11315052D01*
X2744671Y-10114168D01*
X24862697Y-10114168D01*
X24862697Y-13867087D01*
G37*
D12*
%TO.C,HOLE\u002A\u002A*%
X1100000Y-17700000D02*
G75*
G02*
X-2500000Y-17700000I-1800000J0D01*
G01*
X-2500000Y-17700000D02*
G75*
G02*
X1100000Y-17700000I1800000J0D01*
G01*
X1100000Y-2610000D02*
G75*
G02*
X-2500000Y-2610000I-1800000J0D01*
G01*
X-2500000Y-2610000D02*
G75*
G02*
X1100000Y-2610000I1800000J0D01*
G01*
X27590000Y-2610000D02*
G75*
G02*
X23990000Y-2610000I-1800000J0D01*
G01*
X23990000Y-2610000D02*
G75*
G02*
X27590000Y-2610000I1800000J0D01*
G01*
X27590000Y-17700000D02*
G75*
G02*
X23990000Y-17700000I-1800000J0D01*
G01*
X23990000Y-17700000D02*
G75*
G02*
X27590000Y-17700000I1800000J0D01*
G01*
D13*
%TO.C,J3*%
X23228680Y-140000D02*
X23228680Y-2800000D01*
X10468680Y-140000D02*
X23228680Y-140000D01*
X10468680Y-140000D02*
X10468680Y-2800000D01*
X9198680Y-140000D02*
X7868680Y-140000D01*
X7868680Y-140000D02*
X7868680Y-1470000D01*
X10468680Y-2800000D02*
X23228680Y-2800000D01*
%TO.C,J1*%
X17990000Y-17700000D02*
X17990000Y-20360000D01*
X12850000Y-17700000D02*
X17990000Y-17700000D01*
X12850000Y-17700000D02*
X12850000Y-20360000D01*
X11580000Y-17700000D02*
X10250000Y-17700000D01*
X10250000Y-17700000D02*
X10250000Y-19030000D01*
X12850000Y-20360000D02*
X17990000Y-20360000D01*
%TD*%
%LPC*%
D14*
%TO.C,HOLE\u002A\u002A*%
X-700000Y-17700000D03*
%TD*%
%TO.C,HOLE\u002A\u002A*%
X-700000Y-2610000D03*
%TD*%
%TO.C,HOLE\u002A\u002A*%
X25790000Y-2610000D03*
%TD*%
%TO.C,HOLE\u002A\u002A*%
X25790000Y-17700000D03*
%TD*%
D15*
%TO.C,USB2*%
X-1500000Y-14475000D03*
X-1500000Y-5825000D03*
D16*
X2700000Y-14475000D03*
X2700000Y-5825000D03*
D17*
X2200000Y-13040000D03*
X2200000Y-7260000D03*
%TD*%
D18*
%TO.C,J2*%
X29128680Y-5065000D03*
X29128680Y-7605000D03*
X29128680Y-10145000D03*
X29128680Y-12685000D03*
D19*
X29128680Y-15225000D03*
%TD*%
%TO.C,J3*%
X9198680Y-1470000D03*
D18*
X11738680Y-1470000D03*
X14278680Y-1470000D03*
X16818680Y-1470000D03*
X19358680Y-1470000D03*
X21898680Y-1470000D03*
%TD*%
D19*
%TO.C,J1*%
X11580000Y-19030000D03*
D18*
X14120000Y-19030000D03*
X16660000Y-19030000D03*
%TD*%
%LPD*%
M02*
