%TF.GenerationSoftware,KiCad,Pcbnew,8.0.6*%
%TF.CreationDate,2024-11-25T12:43:08+08:00*%
%TF.ProjectId,UINIO-USB-UART-CP2102,55494e49-4f2d-4555-9342-2d554152542d,Version 5.0.0*%
%TF.SameCoordinates,PX8203930PY518daf8*%
%TF.FileFunction,Copper,L2,Bot*%
%TF.FilePolarity,Positive*%
%FSLAX46Y46*%
G04 Gerber Fmt 4.6, Leading zero omitted, Abs format (unit mm)*
G04 Created by KiCad (PCBNEW 8.0.6) date 2024-11-25 12:43:08*
%MOMM*%
%LPD*%
G01*
G04 APERTURE LIST*
%TA.AperFunction,ComponentPad*%
%ADD10O,1.900000X1.000000*%
%TD*%
%TA.AperFunction,ComponentPad*%
%ADD11O,2.100000X1.000000*%
%TD*%
%TA.AperFunction,ComponentPad*%
%ADD12O,1.700000X1.700000*%
%TD*%
%TA.AperFunction,ComponentPad*%
%ADD13R,1.700000X1.700000*%
%TD*%
%TA.AperFunction,ViaPad*%
%ADD14C,0.500000*%
%TD*%
%TA.AperFunction,ViaPad*%
%ADD15C,0.700000*%
%TD*%
%TA.AperFunction,Conductor*%
%ADD16C,0.500000*%
%TD*%
%TA.AperFunction,Conductor*%
%ADD17C,0.300000*%
%TD*%
%TA.AperFunction,Conductor*%
%ADD18C,0.400000*%
%TD*%
%TA.AperFunction,Conductor*%
%ADD19C,0.200000*%
%TD*%
G04 APERTURE END LIST*
D10*
%TO.P,USB2,16,GND*%
%TO.N,GND*%
X-1500000Y-14475000D03*
%TO.P,USB2,15,GND*%
X-1500000Y-5825000D03*
D11*
%TO.P,USB2,14,GND*%
X2700000Y-14475000D03*
%TO.P,USB2,13,GND*%
X2700000Y-5825000D03*
%TD*%
D12*
%TO.P,J2,5,Pin_5*%
%TO.N,/CP2102_TXD*%
X29128680Y-5065000D03*
%TO.P,J2,4,Pin_4*%
%TO.N,/CP2102_RXD*%
X29128680Y-7605000D03*
%TO.P,J2,3,Pin_3*%
%TO.N,GND*%
X29128680Y-10145000D03*
%TO.P,J2,2,Pin_2*%
%TO.N,/CP2102_VDD_3.3V*%
X29128680Y-12685000D03*
D13*
%TO.P,J2,1,Pin_1*%
%TO.N,/CP2102_VDD_5V*%
X29128680Y-15225000D03*
%TD*%
%TO.P,J3,1,Pin_1*%
%TO.N,/CP2102_RI*%
X9198680Y-1470000D03*
D12*
%TO.P,J3,2,Pin_2*%
%TO.N,/CP2102_DCD*%
X11738680Y-1470000D03*
%TO.P,J3,3,Pin_3*%
%TO.N,/CP2102_DTR*%
X14278680Y-1470000D03*
%TO.P,J3,4,Pin_4*%
%TO.N,/CP2102_DSR*%
X16818680Y-1470000D03*
%TO.P,J3,5,Pin_5*%
%TO.N,/CP2102_RTS*%
X19358680Y-1470000D03*
%TO.P,J3,6,Pin_6*%
%TO.N,/CP2102_CTS*%
X21898680Y-1470000D03*
%TD*%
D13*
%TO.P,J1,1,Pin_1*%
%TO.N,/CP2102_RST*%
X11580000Y-19030000D03*
D12*
%TO.P,J1,2,Pin_2*%
%TO.N,/CP2102_\u002ASUSPEND*%
X14120000Y-19030000D03*
%TO.P,J1,3,Pin_3*%
%TO.N,/CP2102_SUSPEND*%
X16660000Y-19030000D03*
%TD*%
D14*
%TO.N,GND*%
X11740000Y-2960000D03*
X28860000Y-2350000D03*
X28860000Y-18020000D03*
D15*
%TO.N,/CP2102_VDD_5V*%
X10240707Y-15240000D03*
D14*
%TO.N,GND*%
X15153680Y-10255000D03*
X5740000Y-8940000D03*
X18423680Y-3690000D03*
X15153680Y-11220000D03*
X16163680Y-9280000D03*
X18773680Y-10130000D03*
X16163680Y-10245000D03*
X14133680Y-10235000D03*
D15*
X8643680Y-8330000D03*
D14*
X26420000Y-11350000D03*
X15153680Y-9290000D03*
X16163680Y-11210000D03*
X14133680Y-11200000D03*
X14133680Y-9270000D03*
D15*
%TO.N,/CP2102_VDD_3.3V*%
X19670000Y-12180000D03*
D14*
X6430000Y-3030000D03*
D15*
X11433680Y-12180000D03*
D14*
X19660000Y-6820000D03*
D15*
%TO.N,/VBUS*%
X4450000Y-7760000D03*
X4450000Y-12550000D03*
D14*
%TO.N,/CP2102_RTS*%
X15655680Y-7020000D03*
%TO.N,/CP2102_CTS*%
X17480000Y-7030000D03*
%TO.N,/CP2102_USB_Data_P*%
X2573680Y-9900000D03*
X2573680Y-10900000D03*
%TO.N,Net-(USB2-CC2)*%
X6700000Y-6370000D03*
X5570000Y-11900000D03*
%TO.N,GND*%
X26420000Y-8910000D03*
%TD*%
D16*
%TO.N,/CP2102_VDD_5V*%
X10255707Y-15225000D02*
X29128680Y-15225000D01*
X10240707Y-15240000D02*
X10255707Y-15225000D01*
D17*
%TO.N,/CP2102_VDD_3.3V*%
X11433680Y-5353680D02*
X11433680Y-12180000D01*
X9110000Y-3030000D02*
X11433680Y-5353680D01*
X6430000Y-3030000D02*
X9110000Y-3030000D01*
X28623680Y-12180000D02*
X19670000Y-12180000D01*
X29128680Y-12685000D02*
X28623680Y-12180000D01*
X19670000Y-6830000D02*
X19660000Y-6820000D01*
X19670000Y-12180000D02*
X19670000Y-6830000D01*
X19670000Y-12180000D02*
X11433680Y-12180000D01*
%TO.N,Net-(USB2-CC2)*%
X5570000Y-10910000D02*
X5570000Y-11910000D01*
X6700000Y-9780000D02*
X5570000Y-10910000D01*
X6700000Y-6370000D02*
X6700000Y-9780000D01*
D18*
%TO.N,/VBUS*%
X4450000Y-12550000D02*
X4450000Y-7760000D01*
D19*
%TO.N,/CP2102_CTS*%
X21898680Y-2621320D02*
X21898680Y-1470000D01*
X17480000Y-7030000D02*
X17490000Y-7030000D01*
X17490000Y-7030000D02*
X21898680Y-2621320D01*
%TO.N,/CP2102_RTS*%
X15655680Y-7020000D02*
X15655680Y-5173000D01*
X15655680Y-5173000D02*
X19358680Y-1470000D01*
%TO.N,/CP2102_USB_Data_P*%
X2573680Y-9900000D02*
X2573680Y-10900000D01*
%TD*%
%TA.AperFunction,Conductor*%
%TO.N,GND*%
G36*
X7977624Y-220185D02*
G01*
X8023379Y-272989D01*
X8033323Y-342147D01*
X8021070Y-380795D01*
X7963032Y-494698D01*
X7948180Y-588475D01*
X7948181Y-2355500D01*
X7928496Y-2422539D01*
X7875693Y-2468294D01*
X7824181Y-2479500D01*
X7007467Y-2479500D01*
X6983119Y-2477086D01*
X6614684Y-2403304D01*
X6610168Y-2402740D01*
X6610184Y-2402609D01*
X6591670Y-2399879D01*
X6508986Y-2379500D01*
X6508985Y-2379500D01*
X6351015Y-2379500D01*
X6351014Y-2379500D01*
X6197634Y-2417303D01*
X6057762Y-2490715D01*
X5939516Y-2595471D01*
X5849781Y-2725475D01*
X5849780Y-2725476D01*
X5793762Y-2873181D01*
X5774722Y-3029999D01*
X5774722Y-3030000D01*
X5793762Y-3186818D01*
X5833505Y-3291610D01*
X5849780Y-3334523D01*
X5939517Y-3464530D01*
X6057760Y-3569283D01*
X6057762Y-3569284D01*
X6197634Y-3642696D01*
X6351014Y-3680500D01*
X6351015Y-3680500D01*
X6508987Y-3680500D01*
X6508987Y-3680499D01*
X6591619Y-3660131D01*
X6609877Y-3657540D01*
X6609846Y-3657274D01*
X6614680Y-3656695D01*
X6614685Y-3656695D01*
X6983116Y-3582913D01*
X7007464Y-3580500D01*
X8830613Y-3580500D01*
X8897652Y-3600185D01*
X8918294Y-3616819D01*
X10846861Y-5545386D01*
X10880346Y-5606709D01*
X10883180Y-5633067D01*
X10883180Y-11384409D01*
X10877744Y-11420720D01*
X10725713Y-11917139D01*
X10722370Y-11928660D01*
X10721999Y-11932006D01*
X10715801Y-11959257D01*
X10697366Y-12011944D01*
X10697365Y-12011946D01*
X10678431Y-12179997D01*
X10678431Y-12180002D01*
X10697365Y-12348056D01*
X10753225Y-12507694D01*
X10753227Y-12507697D01*
X10843198Y-12650884D01*
X10843203Y-12650890D01*
X10962789Y-12770476D01*
X10962795Y-12770481D01*
X11105982Y-12860452D01*
X11105985Y-12860454D01*
X11105989Y-12860455D01*
X11105990Y-12860456D01*
X11155242Y-12877690D01*
X11265623Y-12916314D01*
X11433677Y-12935249D01*
X11433680Y-12935249D01*
X11433683Y-12935249D01*
X11601732Y-12916314D01*
X11601735Y-12916313D01*
X11601739Y-12916313D01*
X11661874Y-12895269D01*
X11685516Y-12889526D01*
X11693059Y-12888462D01*
X11696501Y-12887977D01*
X12192955Y-12735935D01*
X12229266Y-12730500D01*
X18874414Y-12730500D01*
X18910724Y-12735935D01*
X19407178Y-12887977D01*
X19418653Y-12891307D01*
X19421995Y-12891678D01*
X19449261Y-12897879D01*
X19501944Y-12916314D01*
X19669997Y-12935249D01*
X19670000Y-12935249D01*
X19670003Y-12935249D01*
X19838052Y-12916314D01*
X19838055Y-12916313D01*
X19838059Y-12916313D01*
X19898194Y-12895269D01*
X19921836Y-12889526D01*
X19929379Y-12888462D01*
X19932821Y-12887977D01*
X20429275Y-12735935D01*
X20465586Y-12730500D01*
X27382384Y-12730500D01*
X27449423Y-12750185D01*
X27472004Y-12768801D01*
X28039857Y-13362661D01*
X28226342Y-13557687D01*
X28229476Y-13560927D01*
X28229621Y-13561075D01*
X28255922Y-13585686D01*
X28255934Y-13585696D01*
X28256337Y-13585943D01*
X28258573Y-13587707D01*
X28260901Y-13589482D01*
X28260871Y-13589520D01*
X28279140Y-13603935D01*
X28321803Y-13646598D01*
X28467943Y-13748926D01*
X28511567Y-13803502D01*
X28518761Y-13873000D01*
X28487238Y-13935355D01*
X28427008Y-13970769D01*
X28396820Y-13974500D01*
X28247160Y-13974500D01*
X28199886Y-13981987D01*
X28192385Y-13982823D01*
X28190128Y-13983149D01*
X28188325Y-13983556D01*
X28180457Y-13985064D01*
X28153378Y-13989352D01*
X28040040Y-14047102D01*
X27474250Y-14446483D01*
X27393213Y-14503687D01*
X27325047Y-14551804D01*
X27258926Y-14574383D01*
X27253538Y-14574500D01*
X11005111Y-14574500D01*
X10980496Y-14572032D01*
X10976530Y-14571228D01*
X10302873Y-14489077D01*
X10302870Y-14489076D01*
X10302856Y-14489075D01*
X10278917Y-14486873D01*
X10277830Y-14486805D01*
X10277534Y-14486787D01*
X10267236Y-14486857D01*
X10252526Y-14486081D01*
X10240713Y-14484751D01*
X10240703Y-14484751D01*
X10072650Y-14503685D01*
X9913012Y-14559545D01*
X9913009Y-14559547D01*
X9769822Y-14649518D01*
X9769816Y-14649523D01*
X9650230Y-14769109D01*
X9650225Y-14769115D01*
X9560254Y-14912302D01*
X9560252Y-14912305D01*
X9504392Y-15071943D01*
X9485458Y-15239997D01*
X9485458Y-15240002D01*
X9504392Y-15408056D01*
X9560252Y-15567694D01*
X9560254Y-15567697D01*
X9650225Y-15710884D01*
X9650230Y-15710890D01*
X9769816Y-15830476D01*
X9769822Y-15830481D01*
X9913009Y-15920452D01*
X9913012Y-15920454D01*
X9913016Y-15920455D01*
X9913017Y-15920456D01*
X9985620Y-15945860D01*
X10072650Y-15976314D01*
X10240704Y-15995249D01*
X10240706Y-15995249D01*
X10240706Y-15995248D01*
X10240707Y-15995249D01*
X10299007Y-15988679D01*
X10312053Y-15987904D01*
X10320282Y-15987852D01*
X10347168Y-15983415D01*
X10353407Y-15982550D01*
X10408766Y-15976313D01*
X10415163Y-15974074D01*
X10435922Y-15968772D01*
X10750479Y-15916874D01*
X10991231Y-15877154D01*
X11011416Y-15875500D01*
X24434559Y-15875500D01*
X24501598Y-15895185D01*
X24547353Y-15947989D01*
X24557297Y-16017147D01*
X24528272Y-16080703D01*
X24512814Y-16095688D01*
X24387154Y-16197919D01*
X24195692Y-16402925D01*
X24195692Y-16402926D01*
X24195689Y-16402928D01*
X24195688Y-16402931D01*
X24156789Y-16458038D01*
X24033919Y-16632103D01*
X23904863Y-16881171D01*
X23810926Y-17145483D01*
X23810921Y-17145500D01*
X23753852Y-17420135D01*
X23753851Y-17420137D01*
X23734709Y-17700000D01*
X23753851Y-17979862D01*
X23753852Y-17979864D01*
X23810921Y-18254499D01*
X23810926Y-18254516D01*
X23901094Y-18508222D01*
X23904864Y-18518830D01*
X24033919Y-18767896D01*
X24195688Y-18997069D01*
X24195692Y-18997073D01*
X24195692Y-18997074D01*
X24387154Y-19202080D01*
X24387155Y-19202081D01*
X24604754Y-19379111D01*
X24604756Y-19379112D01*
X24604757Y-19379113D01*
X24844433Y-19524863D01*
X25053257Y-19615567D01*
X25101725Y-19636620D01*
X25371839Y-19712303D01*
X25616159Y-19745884D01*
X25649741Y-19750500D01*
X25649742Y-19750500D01*
X25930259Y-19750500D01*
X25960219Y-19746381D01*
X26208161Y-19712303D01*
X26478275Y-19636620D01*
X26735568Y-19524862D01*
X26975246Y-19379111D01*
X27192845Y-19202081D01*
X27384312Y-18997069D01*
X27546081Y-18767896D01*
X27675136Y-18518830D01*
X27769075Y-18254511D01*
X27769076Y-18254504D01*
X27769078Y-18254499D01*
X27821021Y-18004534D01*
X27826148Y-17979862D01*
X27845291Y-17700000D01*
X27826316Y-17422591D01*
X27826148Y-17420137D01*
X27826147Y-17420135D01*
X27769078Y-17145500D01*
X27769073Y-17145483D01*
X27675136Y-16881171D01*
X27675136Y-16881170D01*
X27546081Y-16632104D01*
X27384312Y-16402931D01*
X27384307Y-16402925D01*
X27192845Y-16197919D01*
X27067186Y-16095688D01*
X27027606Y-16038111D01*
X27025437Y-15968275D01*
X27061368Y-15908353D01*
X27123993Y-15877369D01*
X27145441Y-15875500D01*
X27253541Y-15875500D01*
X27320580Y-15895185D01*
X27325041Y-15898190D01*
X27967785Y-16351892D01*
X28033140Y-16398025D01*
X28033183Y-16398056D01*
X28034983Y-16399327D01*
X28034994Y-16399335D01*
X28036809Y-16400616D01*
X28040045Y-16402900D01*
X28040336Y-16403048D01*
X28040338Y-16403050D01*
X28153376Y-16460646D01*
X28171741Y-16463554D01*
X28177724Y-16464858D01*
X28182477Y-16465700D01*
X28182482Y-16465702D01*
X28183291Y-16465766D01*
X28192890Y-16466904D01*
X28247161Y-16475500D01*
X28301135Y-16475499D01*
X28308883Y-16475806D01*
X28316745Y-16475499D01*
X30010197Y-16475499D01*
X30010198Y-16475499D01*
X30103984Y-16460646D01*
X30103991Y-16460642D01*
X30105853Y-16460038D01*
X30108254Y-16459969D01*
X30113623Y-16459119D01*
X30113732Y-16459812D01*
X30175694Y-16458038D01*
X30235530Y-16494114D01*
X30266362Y-16556812D01*
X30268180Y-16577966D01*
X30268180Y-17296519D01*
X30267985Y-17303472D01*
X30250967Y-17606493D01*
X30249410Y-17620311D01*
X30199157Y-17916079D01*
X30196063Y-17929636D01*
X30113007Y-18217927D01*
X30108414Y-18231051D01*
X29993607Y-18508222D01*
X29987574Y-18520751D01*
X29842452Y-18783328D01*
X29835054Y-18795102D01*
X29661443Y-19039785D01*
X29652772Y-19050657D01*
X29452864Y-19274352D01*
X29443032Y-19284184D01*
X29219337Y-19484092D01*
X29208465Y-19492763D01*
X28963782Y-19666374D01*
X28952008Y-19673772D01*
X28689431Y-19818894D01*
X28676902Y-19824927D01*
X28399731Y-19939734D01*
X28386607Y-19944327D01*
X28098316Y-20027383D01*
X28084759Y-20030477D01*
X27788991Y-20080730D01*
X27775173Y-20082287D01*
X27472152Y-20099305D01*
X27465199Y-20099500D01*
X17658337Y-20099500D01*
X17591298Y-20079815D01*
X17545543Y-20027011D01*
X17535599Y-19957853D01*
X17564624Y-19894297D01*
X17570656Y-19887819D01*
X17580150Y-19878325D01*
X17621598Y-19836877D01*
X17747102Y-19657639D01*
X17839575Y-19459330D01*
X17896207Y-19247977D01*
X17913920Y-19045509D01*
X17915277Y-19030002D01*
X17915277Y-19029997D01*
X17911569Y-18987618D01*
X17896207Y-18812023D01*
X17839575Y-18600670D01*
X17747102Y-18402362D01*
X17747100Y-18402359D01*
X17747099Y-18402357D01*
X17621599Y-18223124D01*
X17546950Y-18148475D01*
X17466877Y-18068402D01*
X17287639Y-17942898D01*
X17287640Y-17942898D01*
X17287638Y-17942897D01*
X17188484Y-17896661D01*
X17089330Y-17850425D01*
X17089326Y-17850424D01*
X17089322Y-17850422D01*
X16877977Y-17793793D01*
X16660002Y-17774723D01*
X16659998Y-17774723D01*
X16514682Y-17787436D01*
X16442023Y-17793793D01*
X16442020Y-17793793D01*
X16230677Y-17850422D01*
X16230670Y-17850424D01*
X16230670Y-17850425D01*
X16227391Y-17851954D01*
X16032361Y-17942898D01*
X16032357Y-17942900D01*
X15853121Y-18068402D01*
X15698402Y-18223121D01*
X15572900Y-18402357D01*
X15572898Y-18402361D01*
X15502382Y-18553583D01*
X15456209Y-18606022D01*
X15389016Y-18625174D01*
X15322135Y-18604958D01*
X15277618Y-18553583D01*
X15228631Y-18448531D01*
X15207102Y-18402362D01*
X15207100Y-18402359D01*
X15207099Y-18402357D01*
X15081599Y-18223124D01*
X15006950Y-18148475D01*
X14926877Y-18068402D01*
X14747639Y-17942898D01*
X14747640Y-17942898D01*
X14747638Y-17942897D01*
X14648484Y-17896661D01*
X14549330Y-17850425D01*
X14549326Y-17850424D01*
X14549322Y-17850422D01*
X14337977Y-17793793D01*
X14120002Y-17774723D01*
X14119998Y-17774723D01*
X13974682Y-17787436D01*
X13902023Y-17793793D01*
X13902020Y-17793793D01*
X13690677Y-17850422D01*
X13690670Y-17850424D01*
X13690670Y-17850425D01*
X13687391Y-17851954D01*
X13492361Y-17942898D01*
X13492357Y-17942900D01*
X13313121Y-18068402D01*
X13158402Y-18223121D01*
X13056074Y-18369262D01*
X13001497Y-18412887D01*
X12931999Y-18420081D01*
X12869644Y-18388558D01*
X12834230Y-18328328D01*
X12830499Y-18298139D01*
X12830499Y-18148482D01*
X12827491Y-18129487D01*
X12815646Y-18054696D01*
X12758050Y-17941658D01*
X12758046Y-17941654D01*
X12758045Y-17941652D01*
X12668347Y-17851954D01*
X12668344Y-17851952D01*
X12668342Y-17851950D01*
X12571001Y-17802352D01*
X12555301Y-17794352D01*
X12461524Y-17779500D01*
X10698482Y-17779500D01*
X10617519Y-17792323D01*
X10604696Y-17794354D01*
X10491658Y-17851950D01*
X10491657Y-17851951D01*
X10491652Y-17851954D01*
X10401954Y-17941652D01*
X10401951Y-17941657D01*
X10401950Y-17941658D01*
X10382751Y-17979337D01*
X10344352Y-18054698D01*
X10329500Y-18148475D01*
X10329500Y-19911518D01*
X10336562Y-19956104D01*
X10327606Y-20025397D01*
X10282609Y-20078848D01*
X10215857Y-20099487D01*
X10214088Y-20099500D01*
X-187839Y-20099500D01*
X-194792Y-20099305D01*
X-497814Y-20082287D01*
X-511632Y-20080730D01*
X-807400Y-20030477D01*
X-820956Y-20027383D01*
X-988183Y-19979206D01*
X-1047153Y-19941732D01*
X-1076502Y-19878325D01*
X-1066912Y-19809117D01*
X-1021427Y-19756080D01*
X-954489Y-19736054D01*
X-936971Y-19737207D01*
X-840259Y-19750500D01*
X-840258Y-19750500D01*
X-559741Y-19750500D01*
X-529781Y-19746381D01*
X-281839Y-19712303D01*
X-11725Y-19636620D01*
X245568Y-19524862D01*
X485246Y-19379111D01*
X702845Y-19202081D01*
X894312Y-18997069D01*
X1056081Y-18767896D01*
X1185136Y-18518830D01*
X1279075Y-18254511D01*
X1279076Y-18254504D01*
X1279078Y-18254499D01*
X1331021Y-18004534D01*
X1336148Y-17979862D01*
X1355291Y-17700000D01*
X1336316Y-17422591D01*
X1336148Y-17420137D01*
X1336147Y-17420135D01*
X1279078Y-17145500D01*
X1279073Y-17145483D01*
X1185136Y-16881171D01*
X1185136Y-16881170D01*
X1056081Y-16632104D01*
X894312Y-16402931D01*
X894307Y-16402925D01*
X702845Y-16197919D01*
X558767Y-16080703D01*
X485246Y-16020889D01*
X485244Y-16020888D01*
X485242Y-16020886D01*
X245566Y-15875136D01*
X-11724Y-15763380D01*
X-281834Y-15687698D01*
X-281838Y-15687697D01*
X-281839Y-15687697D01*
X-420791Y-15668598D01*
X-559741Y-15649500D01*
X-559742Y-15649500D01*
X-840258Y-15649500D01*
X-840259Y-15649500D01*
X-1118161Y-15687697D01*
X-1118167Y-15687698D01*
X-1388277Y-15763380D01*
X-1645567Y-15875136D01*
X-1885243Y-16020886D01*
X-2102846Y-16197919D01*
X-2294308Y-16402925D01*
X-2294308Y-16402926D01*
X-2294311Y-16402928D01*
X-2294312Y-16402931D01*
X-2333211Y-16458038D01*
X-2456081Y-16632103D01*
X-2585137Y-16881171D01*
X-2679074Y-17145483D01*
X-2679079Y-17145500D01*
X-2736148Y-17420135D01*
X-2736150Y-17420145D01*
X-2736421Y-17424114D01*
X-2760641Y-17489651D01*
X-2816449Y-17531690D01*
X-2886125Y-17536884D01*
X-2947549Y-17503583D01*
X-2981218Y-17442360D01*
X-2983935Y-17422599D01*
X-2990625Y-17303471D01*
X-2990820Y-17296519D01*
X-2990820Y-12970817D01*
X1674500Y-12970817D01*
X1674500Y-13109183D01*
X1706995Y-13230454D01*
X1710312Y-13242835D01*
X1710313Y-13242838D01*
X1779492Y-13362661D01*
X1779494Y-13362664D01*
X1779495Y-13362665D01*
X1877335Y-13460505D01*
X1997164Y-13529688D01*
X2130817Y-13565500D01*
X2130819Y-13565500D01*
X2269181Y-13565500D01*
X2269183Y-13565500D01*
X2402836Y-13529688D01*
X2522665Y-13460505D01*
X2620505Y-13362665D01*
X2689688Y-13242836D01*
X2725500Y-13109183D01*
X2725500Y-12970817D01*
X2689688Y-12837164D01*
X2620923Y-12718059D01*
X2620507Y-12717338D01*
X2620503Y-12717333D01*
X2522666Y-12619496D01*
X2522661Y-12619492D01*
X2402838Y-12550313D01*
X2402837Y-12550312D01*
X2402836Y-12550312D01*
X2269183Y-12514500D01*
X2130817Y-12514500D01*
X1997164Y-12550312D01*
X1997161Y-12550313D01*
X1877338Y-12619492D01*
X1877333Y-12619496D01*
X1779496Y-12717333D01*
X1779492Y-12717338D01*
X1710313Y-12837161D01*
X1710312Y-12837164D01*
X1674500Y-12970817D01*
X-2990820Y-12970817D01*
X-2990820Y-9899999D01*
X1918402Y-9899999D01*
X1918402Y-9900000D01*
X1937442Y-10056814D01*
X1937443Y-10056819D01*
X1951969Y-10095122D01*
X1958516Y-10119801D01*
X1960258Y-10130864D01*
X2035058Y-10361788D01*
X2036990Y-10431631D01*
X2035058Y-10438210D01*
X1960256Y-10669140D01*
X1955901Y-10683485D01*
X1955775Y-10684545D01*
X1955116Y-10687227D01*
X1954782Y-10688819D01*
X1954728Y-10688807D01*
X1948596Y-10713774D01*
X1937443Y-10743179D01*
X1937442Y-10743185D01*
X1918402Y-10899999D01*
X1918402Y-10900000D01*
X1937442Y-11056818D01*
X1987720Y-11189387D01*
X1993460Y-11204523D01*
X2083197Y-11334530D01*
X2201440Y-11439283D01*
X2201442Y-11439284D01*
X2341314Y-11512696D01*
X2494694Y-11550500D01*
X2494695Y-11550500D01*
X2652665Y-11550500D01*
X2806045Y-11512696D01*
X2819897Y-11505426D01*
X2945920Y-11439283D01*
X3064163Y-11334530D01*
X3153900Y-11204523D01*
X3209917Y-11056818D01*
X3228958Y-10900000D01*
X3209917Y-10743182D01*
X3209916Y-10743179D01*
X3209915Y-10743174D01*
X3195389Y-10704874D01*
X3188840Y-10680193D01*
X3187099Y-10669130D01*
X3112298Y-10438208D01*
X3110367Y-10368367D01*
X3112300Y-10361787D01*
X3187086Y-10130910D01*
X3187090Y-10130896D01*
X3187099Y-10130869D01*
X3191457Y-10116513D01*
X3191582Y-10115466D01*
X3192229Y-10112831D01*
X3192575Y-10111185D01*
X3192630Y-10111196D01*
X3198760Y-10086233D01*
X3209917Y-10056818D01*
X3209918Y-10056814D01*
X3228958Y-9900000D01*
X3228958Y-9899999D01*
X3209917Y-9743181D01*
X3188672Y-9687164D01*
X3153900Y-9595477D01*
X3064163Y-9465470D01*
X2945920Y-9360717D01*
X2945918Y-9360716D01*
X2945917Y-9360715D01*
X2806045Y-9287303D01*
X2652666Y-9249500D01*
X2652665Y-9249500D01*
X2494695Y-9249500D01*
X2494694Y-9249500D01*
X2341314Y-9287303D01*
X2201442Y-9360715D01*
X2083196Y-9465471D01*
X1993461Y-9595475D01*
X1993460Y-9595476D01*
X1937442Y-9743181D01*
X1918402Y-9899999D01*
X-2990820Y-9899999D01*
X-2990820Y-7190817D01*
X1674500Y-7190817D01*
X1674500Y-7329183D01*
X1708087Y-7454530D01*
X1710312Y-7462835D01*
X1710313Y-7462838D01*
X1779492Y-7582661D01*
X1779494Y-7582664D01*
X1779495Y-7582665D01*
X1877335Y-7680505D01*
X1997164Y-7749688D01*
X2130817Y-7785500D01*
X2130819Y-7785500D01*
X2269181Y-7785500D01*
X2269183Y-7785500D01*
X2364362Y-7759997D01*
X3694751Y-7759997D01*
X3694751Y-7760002D01*
X3713686Y-7928059D01*
X3713686Y-7928061D01*
X3726612Y-7964999D01*
X3731443Y-7985060D01*
X3731480Y-7985052D01*
X3731848Y-7986744D01*
X3732425Y-7989137D01*
X3732517Y-7989812D01*
X3846656Y-8513563D01*
X3849500Y-8539966D01*
X3849500Y-11770031D01*
X3846656Y-11796434D01*
X3732518Y-12320184D01*
X3732369Y-12321253D01*
X3731546Y-12324645D01*
X3731520Y-12324767D01*
X3731517Y-12324766D01*
X3726610Y-12345006D01*
X3713687Y-12381941D01*
X3713685Y-12381946D01*
X3694751Y-12549997D01*
X3694751Y-12550002D01*
X3713685Y-12718056D01*
X3769545Y-12877694D01*
X3769547Y-12877697D01*
X3859518Y-13020884D01*
X3859523Y-13020890D01*
X3979109Y-13140476D01*
X3979115Y-13140481D01*
X4122302Y-13230452D01*
X4122305Y-13230454D01*
X4122309Y-13230455D01*
X4122310Y-13230456D01*
X4157696Y-13242838D01*
X4281943Y-13286314D01*
X4449997Y-13305249D01*
X4450000Y-13305249D01*
X4450003Y-13305249D01*
X4618056Y-13286314D01*
X4618059Y-13286313D01*
X4777690Y-13230456D01*
X4777692Y-13230454D01*
X4777694Y-13230454D01*
X4777697Y-13230452D01*
X4920884Y-13140481D01*
X4920885Y-13140480D01*
X4920890Y-13140477D01*
X5040477Y-13020890D01*
X5106187Y-12916314D01*
X5130452Y-12877697D01*
X5130454Y-12877694D01*
X5130454Y-12877692D01*
X5130456Y-12877690D01*
X5186313Y-12718059D01*
X5186313Y-12718057D01*
X5186314Y-12718055D01*
X5197107Y-12622259D01*
X5224173Y-12557844D01*
X5281767Y-12518289D01*
X5350001Y-12515744D01*
X5491015Y-12550500D01*
X5648985Y-12550500D01*
X5802365Y-12512696D01*
X5811903Y-12507690D01*
X5942240Y-12439283D01*
X6060483Y-12334530D01*
X6150220Y-12204523D01*
X6206237Y-12056818D01*
X6225278Y-11900000D01*
X6219252Y-11850375D01*
X6206237Y-11743182D01*
X6201476Y-11730628D01*
X6195832Y-11711007D01*
X6178909Y-11626502D01*
X6122914Y-11346882D01*
X6120500Y-11322534D01*
X6120500Y-11189387D01*
X6140185Y-11122348D01*
X6156819Y-11101706D01*
X6596730Y-10661795D01*
X7140510Y-10118015D01*
X7212984Y-9992485D01*
X7220405Y-9964788D01*
X7250500Y-9852475D01*
X7250500Y-6947464D01*
X7252914Y-6923116D01*
X7256376Y-6905830D01*
X7325835Y-6558978D01*
X7331472Y-6539379D01*
X7336237Y-6526818D01*
X7355278Y-6370000D01*
X7355132Y-6368793D01*
X7336237Y-6213181D01*
X7286068Y-6080897D01*
X7280220Y-6065477D01*
X7190483Y-5935470D01*
X7072240Y-5830717D01*
X7072238Y-5830716D01*
X7072237Y-5830715D01*
X6932365Y-5757303D01*
X6778986Y-5719500D01*
X6778985Y-5719500D01*
X6621015Y-5719500D01*
X6621014Y-5719500D01*
X6467634Y-5757303D01*
X6327762Y-5830715D01*
X6209516Y-5935471D01*
X6119781Y-6065475D01*
X6119780Y-6065476D01*
X6063762Y-6213181D01*
X6044722Y-6369999D01*
X6044722Y-6370000D01*
X6063763Y-6526818D01*
X6068519Y-6539361D01*
X6068523Y-6539370D01*
X6074166Y-6558990D01*
X6107507Y-6725477D01*
X6147085Y-6923116D01*
X6147086Y-6923118D01*
X6149500Y-6947467D01*
X6149500Y-9500613D01*
X6129815Y-9567652D01*
X6113181Y-9588294D01*
X5262181Y-10439294D01*
X5200858Y-10472779D01*
X5131166Y-10467795D01*
X5075233Y-10425923D01*
X5050816Y-10360459D01*
X5050500Y-10351613D01*
X5050500Y-8539970D01*
X5053343Y-8513567D01*
X5053344Y-8513563D01*
X5167481Y-7989811D01*
X5167481Y-7989800D01*
X5167625Y-7988780D01*
X5168421Y-7985492D01*
X5168479Y-7985229D01*
X5168485Y-7985230D01*
X5173387Y-7964996D01*
X5186313Y-7928059D01*
X5198154Y-7822975D01*
X5205249Y-7760002D01*
X5205249Y-7759997D01*
X5186314Y-7591943D01*
X5141730Y-7464529D01*
X5130456Y-7432310D01*
X5130455Y-7432309D01*
X5130454Y-7432305D01*
X5130452Y-7432302D01*
X5040481Y-7289115D01*
X5040476Y-7289109D01*
X4920890Y-7169523D01*
X4920884Y-7169518D01*
X4777697Y-7079547D01*
X4777694Y-7079545D01*
X4618056Y-7023685D01*
X4450003Y-7004751D01*
X4449997Y-7004751D01*
X4281943Y-7023685D01*
X4122305Y-7079545D01*
X4122302Y-7079547D01*
X3979115Y-7169518D01*
X3979109Y-7169523D01*
X3859523Y-7289109D01*
X3859518Y-7289115D01*
X3769547Y-7432302D01*
X3769545Y-7432305D01*
X3713685Y-7591943D01*
X3694751Y-7759997D01*
X2364362Y-7759997D01*
X2402836Y-7749688D01*
X2522665Y-7680505D01*
X2620505Y-7582665D01*
X2689688Y-7462836D01*
X2725500Y-7329183D01*
X2725500Y-7190817D01*
X2689688Y-7057164D01*
X2644425Y-6978765D01*
X2620507Y-6937338D01*
X2620503Y-6937333D01*
X2522666Y-6839496D01*
X2522661Y-6839492D01*
X2402838Y-6770313D01*
X2402837Y-6770312D01*
X2402836Y-6770312D01*
X2269183Y-6734500D01*
X2130817Y-6734500D01*
X1997164Y-6770312D01*
X1997161Y-6770313D01*
X1877338Y-6839492D01*
X1877333Y-6839496D01*
X1779496Y-6937333D01*
X1779492Y-6937338D01*
X1710313Y-7057161D01*
X1710312Y-7057164D01*
X1674500Y-7190817D01*
X-2990820Y-7190817D01*
X-2990820Y-3003480D01*
X-2990625Y-2996528D01*
X-2986812Y-2928633D01*
X-2984244Y-2882897D01*
X-2960832Y-2817068D01*
X-2905545Y-2774346D01*
X-2835938Y-2768296D01*
X-2774110Y-2800838D01*
X-2739690Y-2861642D01*
X-2736728Y-2881385D01*
X-2736148Y-2889864D01*
X-2679079Y-3164499D01*
X-2679074Y-3164516D01*
X-2607288Y-3366501D01*
X-2585136Y-3428830D01*
X-2456081Y-3677896D01*
X-2294312Y-3907069D01*
X-2294308Y-3907073D01*
X-2294308Y-3907074D01*
X-2110951Y-4103402D01*
X-2102845Y-4112081D01*
X-1885246Y-4289111D01*
X-1885244Y-4289112D01*
X-1885243Y-4289113D01*
X-1645567Y-4434863D01*
X-1436743Y-4525567D01*
X-1388275Y-4546620D01*
X-1118161Y-4622303D01*
X-873841Y-4655884D01*
X-840259Y-4660500D01*
X-840258Y-4660500D01*
X-559741Y-4660500D01*
X-529781Y-4656381D01*
X-281839Y-4622303D01*
X-11725Y-4546620D01*
X197100Y-4455914D01*
X245566Y-4434863D01*
X245568Y-4434862D01*
X485246Y-4289111D01*
X702845Y-4112081D01*
X894312Y-3907069D01*
X1056081Y-3677896D01*
X1185136Y-3428830D01*
X1279075Y-3164511D01*
X1279076Y-3164504D01*
X1279078Y-3164499D01*
X1313982Y-2996528D01*
X1336148Y-2889862D01*
X1355291Y-2610000D01*
X1336515Y-2335502D01*
X1336148Y-2330137D01*
X1336147Y-2330135D01*
X1332477Y-2312475D01*
X1303813Y-2174532D01*
X1279078Y-2055500D01*
X1279073Y-2055483D01*
X1226139Y-1906542D01*
X1185136Y-1791170D01*
X1056081Y-1542104D01*
X894312Y-1312931D01*
X894307Y-1312925D01*
X702845Y-1107919D01*
X626763Y-1046022D01*
X485246Y-930889D01*
X485244Y-930888D01*
X485242Y-930886D01*
X245566Y-785136D01*
X-11724Y-673380D01*
X-281834Y-597698D01*
X-281838Y-597697D01*
X-281839Y-597697D01*
X-472123Y-571543D01*
X-559741Y-559500D01*
X-559742Y-559500D01*
X-840258Y-559500D01*
X-840260Y-559500D01*
X-1003352Y-581916D01*
X-1072447Y-571543D01*
X-1124966Y-525461D01*
X-1144234Y-458301D01*
X-1124133Y-391385D01*
X-1071046Y-345959D01*
X-1054576Y-339921D01*
X-820951Y-272614D01*
X-807405Y-269523D01*
X-511620Y-219267D01*
X-497826Y-217713D01*
X-194792Y-200695D01*
X-187839Y-200500D01*
X-151438Y-200500D01*
X7910585Y-200500D01*
X7977624Y-220185D01*
G37*
%TD.AperFunction*%
%TA.AperFunction,Conductor*%
G36*
X27472152Y-200695D02*
G01*
X27775183Y-217713D01*
X27788981Y-219267D01*
X28084760Y-269522D01*
X28098314Y-272615D01*
X28160132Y-290425D01*
X28386607Y-355672D01*
X28399731Y-360265D01*
X28676902Y-475072D01*
X28689424Y-481101D01*
X28831275Y-559500D01*
X28952008Y-626227D01*
X28963782Y-633625D01*
X29208469Y-807239D01*
X29219333Y-815904D01*
X29248939Y-842361D01*
X29443032Y-1015815D01*
X29452864Y-1025647D01*
X29652772Y-1249342D01*
X29661443Y-1260214D01*
X29835054Y-1504897D01*
X29842452Y-1516671D01*
X29987574Y-1779248D01*
X29993607Y-1791777D01*
X30108414Y-2068948D01*
X30113007Y-2082072D01*
X30196063Y-2370363D01*
X30199157Y-2383920D01*
X30249410Y-2679688D01*
X30250967Y-2693506D01*
X30267985Y-2996527D01*
X30268180Y-3003480D01*
X30268180Y-4136662D01*
X30248495Y-4203701D01*
X30195691Y-4249456D01*
X30126533Y-4259400D01*
X30062977Y-4230375D01*
X30056499Y-4224344D01*
X30035856Y-4203701D01*
X29935557Y-4103402D01*
X29756319Y-3977898D01*
X29756320Y-3977898D01*
X29756318Y-3977897D01*
X29657164Y-3931661D01*
X29558010Y-3885425D01*
X29558006Y-3885424D01*
X29558002Y-3885422D01*
X29346657Y-3828793D01*
X29128682Y-3809723D01*
X29128678Y-3809723D01*
X28983362Y-3822436D01*
X28910703Y-3828793D01*
X28910700Y-3828793D01*
X28699357Y-3885422D01*
X28699348Y-3885426D01*
X28501041Y-3977898D01*
X28501037Y-3977900D01*
X28321801Y-4103402D01*
X28167082Y-4258121D01*
X28041580Y-4437357D01*
X28041578Y-4437361D01*
X27949106Y-4635668D01*
X27949102Y-4635677D01*
X27892473Y-4847020D01*
X27892473Y-4847024D01*
X27873403Y-5064997D01*
X27873403Y-5064999D01*
X27892473Y-5282975D01*
X27892473Y-5282979D01*
X27949102Y-5494322D01*
X27949104Y-5494326D01*
X27949105Y-5494330D01*
X27972913Y-5545386D01*
X28041577Y-5692638D01*
X28041578Y-5692639D01*
X28167082Y-5871877D01*
X28321803Y-6026598D01*
X28484082Y-6140227D01*
X28501041Y-6152102D01*
X28652263Y-6222618D01*
X28704702Y-6268790D01*
X28723854Y-6335984D01*
X28703638Y-6402865D01*
X28652263Y-6447382D01*
X28501041Y-6517898D01*
X28501037Y-6517900D01*
X28321801Y-6643402D01*
X28167082Y-6798121D01*
X28041580Y-6977357D01*
X28041578Y-6977361D01*
X27949106Y-7175668D01*
X27949102Y-7175677D01*
X27892473Y-7387020D01*
X27892473Y-7387023D01*
X27888512Y-7432302D01*
X27873403Y-7604997D01*
X27873403Y-7605002D01*
X27892473Y-7822975D01*
X27892473Y-7822979D01*
X27949102Y-8034322D01*
X27949104Y-8034326D01*
X27949105Y-8034330D01*
X27989180Y-8120271D01*
X28041577Y-8232638D01*
X28041578Y-8232639D01*
X28167082Y-8411877D01*
X28321803Y-8566598D01*
X28501041Y-8692102D01*
X28699350Y-8784575D01*
X28910703Y-8841207D01*
X29093606Y-8857208D01*
X29128678Y-8860277D01*
X29128680Y-8860277D01*
X29128682Y-8860277D01*
X29156934Y-8857805D01*
X29346657Y-8841207D01*
X29558010Y-8784575D01*
X29756319Y-8692102D01*
X29935557Y-8566598D01*
X30056499Y-8445656D01*
X30117822Y-8412171D01*
X30187514Y-8417155D01*
X30243447Y-8459027D01*
X30267864Y-8524491D01*
X30268180Y-8533337D01*
X30268180Y-11756662D01*
X30248495Y-11823701D01*
X30195691Y-11869456D01*
X30126533Y-11879400D01*
X30062977Y-11850375D01*
X30056499Y-11844344D01*
X30008589Y-11796434D01*
X29935557Y-11723402D01*
X29756319Y-11597898D01*
X29756320Y-11597898D01*
X29756318Y-11597897D01*
X29575157Y-11513421D01*
X29558010Y-11505425D01*
X29558006Y-11505424D01*
X29558002Y-11505422D01*
X29346657Y-11448793D01*
X29128682Y-11429723D01*
X29128674Y-11429723D01*
X29078584Y-11434104D01*
X29064205Y-11434524D01*
X29063764Y-11434511D01*
X29063747Y-11434512D01*
X29063746Y-11434512D01*
X29063745Y-11434512D01*
X29055388Y-11435587D01*
X29044600Y-11436975D01*
X29039589Y-11437516D01*
X28910702Y-11448793D01*
X28910698Y-11448794D01*
X28879839Y-11457061D01*
X28863580Y-11460271D01*
X27571918Y-11626502D01*
X27568694Y-11626940D01*
X27566035Y-11627303D01*
X27566034Y-11627303D01*
X27560984Y-11627991D01*
X27560916Y-11627494D01*
X27542556Y-11629500D01*
X20465589Y-11629500D01*
X20429278Y-11624064D01*
X20336578Y-11595674D01*
X20278241Y-11557221D01*
X20254324Y-11513419D01*
X20251876Y-11505426D01*
X20231621Y-11439284D01*
X20225935Y-11420717D01*
X20220500Y-11384408D01*
X20220500Y-7393136D01*
X20222475Y-7371090D01*
X20289413Y-7000685D01*
X20295498Y-6978765D01*
X20296031Y-6977362D01*
X20296237Y-6976818D01*
X20300942Y-6938060D01*
X20302011Y-6930978D01*
X20306556Y-6905833D01*
X20311327Y-6870737D01*
X20311513Y-6868708D01*
X20311614Y-6856658D01*
X20312514Y-6842759D01*
X20315278Y-6820000D01*
X20296237Y-6663182D01*
X20240220Y-6515477D01*
X20150483Y-6385470D01*
X20032240Y-6280717D01*
X20032238Y-6280716D01*
X20032237Y-6280715D01*
X19892365Y-6207303D01*
X19738986Y-6169500D01*
X19738985Y-6169500D01*
X19581015Y-6169500D01*
X19581014Y-6169500D01*
X19427634Y-6207303D01*
X19292222Y-6278374D01*
X19223714Y-6292100D01*
X19158660Y-6266607D01*
X19117716Y-6209992D01*
X19113880Y-6140227D01*
X19146913Y-6080899D01*
X21856486Y-3371326D01*
X21866643Y-3362231D01*
X21889549Y-3343885D01*
X21889558Y-3343878D01*
X21944548Y-3283457D01*
X21948551Y-3279261D01*
X22299180Y-2928634D01*
X22347473Y-2844985D01*
X22363152Y-2823526D01*
X22557493Y-2610000D01*
X23734709Y-2610000D01*
X23753851Y-2889862D01*
X23753852Y-2889864D01*
X23810921Y-3164499D01*
X23810926Y-3164516D01*
X23882712Y-3366501D01*
X23904864Y-3428830D01*
X24033919Y-3677896D01*
X24195688Y-3907069D01*
X24195692Y-3907073D01*
X24195692Y-3907074D01*
X24379049Y-4103402D01*
X24387155Y-4112081D01*
X24604754Y-4289111D01*
X24604756Y-4289112D01*
X24604757Y-4289113D01*
X24844433Y-4434863D01*
X25053257Y-4525567D01*
X25101725Y-4546620D01*
X25371839Y-4622303D01*
X25616159Y-4655884D01*
X25649741Y-4660500D01*
X25649742Y-4660500D01*
X25930259Y-4660500D01*
X25960219Y-4656381D01*
X26208161Y-4622303D01*
X26478275Y-4546620D01*
X26687100Y-4455914D01*
X26735566Y-4434863D01*
X26735568Y-4434862D01*
X26975246Y-4289111D01*
X27192845Y-4112081D01*
X27384312Y-3907069D01*
X27546081Y-3677896D01*
X27675136Y-3428830D01*
X27769075Y-3164511D01*
X27769076Y-3164504D01*
X27769078Y-3164499D01*
X27803982Y-2996528D01*
X27826148Y-2889862D01*
X27845291Y-2610000D01*
X27826515Y-2335502D01*
X27826148Y-2330137D01*
X27826147Y-2330135D01*
X27822477Y-2312475D01*
X27793813Y-2174532D01*
X27769078Y-2055500D01*
X27769073Y-2055483D01*
X27716139Y-1906542D01*
X27675136Y-1791170D01*
X27546081Y-1542104D01*
X27384312Y-1312931D01*
X27384307Y-1312925D01*
X27192845Y-1107919D01*
X27116763Y-1046022D01*
X26975246Y-930889D01*
X26975244Y-930888D01*
X26975242Y-930886D01*
X26735566Y-785136D01*
X26478276Y-673380D01*
X26208166Y-597698D01*
X26208162Y-597697D01*
X26208161Y-597697D01*
X26017877Y-571543D01*
X25930259Y-559500D01*
X25930258Y-559500D01*
X25649742Y-559500D01*
X25649741Y-559500D01*
X25371839Y-597697D01*
X25371833Y-597698D01*
X25101723Y-673380D01*
X24844433Y-785136D01*
X24604757Y-930886D01*
X24387154Y-1107919D01*
X24195692Y-1312925D01*
X24195692Y-1312926D01*
X24195689Y-1312928D01*
X24195688Y-1312931D01*
X24146755Y-1382253D01*
X24033919Y-1542103D01*
X23904863Y-1791171D01*
X23810926Y-2055483D01*
X23810921Y-2055500D01*
X23753852Y-2330135D01*
X23753851Y-2330137D01*
X23734709Y-2610000D01*
X22557493Y-2610000D01*
X22792104Y-2352228D01*
X22806515Y-2335502D01*
X22806517Y-2335497D01*
X22806519Y-2335496D01*
X22809837Y-2330840D01*
X22810291Y-2331163D01*
X22824679Y-2312475D01*
X22840139Y-2297016D01*
X22860278Y-2276877D01*
X22985782Y-2097639D01*
X23078255Y-1899330D01*
X23134887Y-1687977D01*
X23153957Y-1470000D01*
X23134887Y-1252023D01*
X23084248Y-1063037D01*
X23078257Y-1040677D01*
X23078256Y-1040676D01*
X23078255Y-1040670D01*
X22985782Y-842362D01*
X22985780Y-842359D01*
X22985779Y-842357D01*
X22860279Y-663124D01*
X22785630Y-588475D01*
X22705557Y-508402D01*
X22587979Y-426073D01*
X22544356Y-371498D01*
X22537164Y-301999D01*
X22568686Y-239645D01*
X22628916Y-204231D01*
X22659105Y-200500D01*
X27428798Y-200500D01*
X27465199Y-200500D01*
X27472152Y-200695D01*
G37*
%TD.AperFunction*%
%TA.AperFunction,Conductor*%
G36*
X15616545Y-1895041D02*
G01*
X15661061Y-1946414D01*
X15731578Y-2097639D01*
X15857082Y-2276877D01*
X16011803Y-2431598D01*
X16191041Y-2557102D01*
X16389350Y-2649575D01*
X16389356Y-2649576D01*
X16389357Y-2649577D01*
X16420044Y-2657799D01*
X16600703Y-2706207D01*
X16783606Y-2722208D01*
X16818678Y-2725277D01*
X16818680Y-2725277D01*
X16818682Y-2725277D01*
X16846934Y-2722805D01*
X17036657Y-2706207D01*
X17106013Y-2687623D01*
X17175860Y-2689286D01*
X17233722Y-2728448D01*
X17261227Y-2792676D01*
X17249641Y-2861578D01*
X17225785Y-2895079D01*
X15348366Y-4772500D01*
X15255182Y-4865683D01*
X15255180Y-4865686D01*
X15189288Y-4979812D01*
X15155180Y-5107108D01*
X15155180Y-6420942D01*
X15149146Y-6459153D01*
X15042256Y-6789141D01*
X15037901Y-6803485D01*
X15037775Y-6804545D01*
X15037116Y-6807227D01*
X15036782Y-6808819D01*
X15036728Y-6808807D01*
X15030596Y-6833774D01*
X15019443Y-6863179D01*
X15019442Y-6863185D01*
X15000402Y-7019999D01*
X15000402Y-7020000D01*
X15019442Y-7176818D01*
X15068469Y-7306089D01*
X15075460Y-7324523D01*
X15165197Y-7454530D01*
X15283440Y-7559283D01*
X15283442Y-7559284D01*
X15423314Y-7632696D01*
X15576694Y-7670500D01*
X15576695Y-7670500D01*
X15734665Y-7670500D01*
X15888045Y-7632696D01*
X16027920Y-7559283D01*
X16146163Y-7454530D01*
X16235900Y-7324523D01*
X16291917Y-7176818D01*
X16310958Y-7020000D01*
X16309106Y-7004751D01*
X16291917Y-6863184D01*
X16291915Y-6863174D01*
X16277389Y-6824874D01*
X16270840Y-6800193D01*
X16269099Y-6789130D01*
X16162214Y-6459155D01*
X16156180Y-6420944D01*
X16156180Y-5431675D01*
X16175865Y-5364636D01*
X16192494Y-5343999D01*
X18415264Y-3121228D01*
X18463588Y-3091321D01*
X19762062Y-2656764D01*
X19769284Y-2654591D01*
X19788010Y-2649575D01*
X19793694Y-2646923D01*
X19804737Y-2642407D01*
X19813848Y-2639184D01*
X19814601Y-2638903D01*
X19826651Y-2633613D01*
X19856519Y-2620502D01*
X19856519Y-2620501D01*
X19856523Y-2620500D01*
X19858009Y-2619422D01*
X19878392Y-2607427D01*
X19986319Y-2557102D01*
X20165557Y-2431598D01*
X20320278Y-2276877D01*
X20445782Y-2097639D01*
X20511440Y-1956832D01*
X20557612Y-1904394D01*
X20624805Y-1885242D01*
X20691687Y-1905457D01*
X20737021Y-1958623D01*
X20743052Y-1975177D01*
X20797627Y-2166218D01*
X20797628Y-2166225D01*
X20966085Y-2755906D01*
X20965573Y-2825774D01*
X20934536Y-2877648D01*
X17556330Y-6255854D01*
X17523179Y-6279539D01*
X17215844Y-6430025D01*
X17199477Y-6438506D01*
X17199474Y-6438508D01*
X17191618Y-6444578D01*
X17173437Y-6456245D01*
X17107763Y-6490714D01*
X17107760Y-6490717D01*
X17030692Y-6558993D01*
X16989516Y-6595471D01*
X16899781Y-6725475D01*
X16899780Y-6725476D01*
X16843762Y-6873181D01*
X16824722Y-7029999D01*
X16824722Y-7030000D01*
X16843762Y-7186818D01*
X16895988Y-7324524D01*
X16899780Y-7334523D01*
X16989517Y-7464530D01*
X17107760Y-7569283D01*
X17107762Y-7569284D01*
X17247634Y-7642696D01*
X17401014Y-7680500D01*
X17401015Y-7680500D01*
X17558985Y-7680500D01*
X17712365Y-7642696D01*
X17731418Y-7632696D01*
X17852240Y-7569283D01*
X17970483Y-7464530D01*
X18060220Y-7334523D01*
X18061665Y-7330710D01*
X18072926Y-7308215D01*
X18074274Y-7306091D01*
X18074276Y-7306089D01*
X18237330Y-6998226D01*
X18259224Y-6968588D01*
X18933709Y-6294103D01*
X18995030Y-6260620D01*
X19064722Y-6265604D01*
X19120655Y-6307476D01*
X19145072Y-6372940D01*
X19130220Y-6441213D01*
X19123439Y-6452225D01*
X19079780Y-6515476D01*
X19023762Y-6663181D01*
X19004722Y-6819999D01*
X19004722Y-6820000D01*
X19023762Y-6976814D01*
X19023762Y-6976816D01*
X19023763Y-6976818D01*
X19029346Y-6991540D01*
X19034131Y-7010035D01*
X19034606Y-7009928D01*
X19116447Y-7371891D01*
X19119500Y-7399237D01*
X19119500Y-11384408D01*
X19114064Y-11420720D01*
X19085673Y-11513421D01*
X19047220Y-11571757D01*
X19003422Y-11595673D01*
X18960781Y-11608732D01*
X18910720Y-11624064D01*
X18874410Y-11629500D01*
X12229269Y-11629500D01*
X12192958Y-11624064D01*
X12100258Y-11595674D01*
X12041921Y-11557221D01*
X12018004Y-11513419D01*
X12015556Y-11505426D01*
X11995301Y-11439284D01*
X11989615Y-11420717D01*
X11984180Y-11384408D01*
X11984180Y-5281207D01*
X11984180Y-5281205D01*
X11946664Y-5141195D01*
X11902673Y-5065000D01*
X11874190Y-5015665D01*
X9790705Y-2932180D01*
X9757220Y-2870857D01*
X9762204Y-2801165D01*
X9804076Y-2745232D01*
X9869540Y-2720815D01*
X9878386Y-2720499D01*
X10080197Y-2720499D01*
X10080198Y-2720499D01*
X10173984Y-2705646D01*
X10287022Y-2648050D01*
X10376730Y-2558342D01*
X10434326Y-2445304D01*
X10434326Y-2445302D01*
X10434327Y-2445301D01*
X10449179Y-2351524D01*
X10449180Y-2351519D01*
X10449179Y-2201859D01*
X10468863Y-2134823D01*
X10521667Y-2089068D01*
X10590825Y-2079124D01*
X10654381Y-2108149D01*
X10674753Y-2130738D01*
X10777082Y-2276877D01*
X10931803Y-2431598D01*
X11111041Y-2557102D01*
X11309350Y-2649575D01*
X11309356Y-2649576D01*
X11309357Y-2649577D01*
X11340044Y-2657799D01*
X11520703Y-2706207D01*
X11703606Y-2722208D01*
X11738678Y-2725277D01*
X11738680Y-2725277D01*
X11738682Y-2725277D01*
X11766934Y-2722805D01*
X11956657Y-2706207D01*
X12168010Y-2649575D01*
X12366319Y-2557102D01*
X12545557Y-2431598D01*
X12700278Y-2276877D01*
X12825782Y-2097639D01*
X12896298Y-1946414D01*
X12942470Y-1893977D01*
X13009664Y-1874825D01*
X13076545Y-1895041D01*
X13121061Y-1946414D01*
X13191578Y-2097639D01*
X13317082Y-2276877D01*
X13471803Y-2431598D01*
X13651041Y-2557102D01*
X13849350Y-2649575D01*
X13849356Y-2649576D01*
X13849357Y-2649577D01*
X13880044Y-2657799D01*
X14060703Y-2706207D01*
X14243606Y-2722208D01*
X14278678Y-2725277D01*
X14278680Y-2725277D01*
X14278682Y-2725277D01*
X14306934Y-2722805D01*
X14496657Y-2706207D01*
X14708010Y-2649575D01*
X14906319Y-2557102D01*
X15085557Y-2431598D01*
X15240278Y-2276877D01*
X15365782Y-2097639D01*
X15436298Y-1946414D01*
X15482470Y-1893977D01*
X15549664Y-1874825D01*
X15616545Y-1895041D01*
G37*
%TD.AperFunction*%
%TD*%
%TA.AperFunction,Conductor*%
%TO.N,/CP2102_VDD_5V*%
G36*
X28285648Y-14381960D02*
G01*
X29121392Y-15216722D01*
X29124824Y-15224993D01*
X29121402Y-15233268D01*
X29121392Y-15233278D01*
X28285648Y-16068039D01*
X28277373Y-16071461D01*
X28270633Y-16069320D01*
X28268818Y-16068039D01*
X27433633Y-15478496D01*
X27428850Y-15470925D01*
X27428680Y-15468937D01*
X27428680Y-14981062D01*
X27432107Y-14972789D01*
X27433627Y-14971507D01*
X28270635Y-14380678D01*
X28279368Y-14378708D01*
X28285648Y-14381960D01*
G37*
%TD.AperFunction*%
%TD*%
%TA.AperFunction,Conductor*%
%TO.N,/CP2102_VDD_5V*%
G36*
X10253770Y-14891593D02*
G01*
X10927440Y-14973746D01*
X10935237Y-14978148D01*
X10937723Y-14985359D01*
X10937723Y-15465072D01*
X10934296Y-15473345D01*
X10927928Y-15476616D01*
X10254272Y-15587761D01*
X10245551Y-15585727D01*
X10240823Y-15578122D01*
X10240667Y-15576258D01*
X10239707Y-15240000D01*
X10240669Y-14903174D01*
X10244120Y-14894911D01*
X10252402Y-14891508D01*
X10253770Y-14891593D01*
G37*
%TD.AperFunction*%
%TD*%
%TA.AperFunction,Conductor*%
%TO.N,/CP2102_VDD_3.3V*%
G36*
X11583300Y-11483427D02*
G01*
X11586214Y-11488274D01*
X11753932Y-12035920D01*
X11753078Y-12044834D01*
X11747251Y-12050144D01*
X11438186Y-12179119D01*
X11429231Y-12179142D01*
X11429174Y-12179119D01*
X11120108Y-12050144D01*
X11113793Y-12043795D01*
X11113427Y-12035922D01*
X11281146Y-11488273D01*
X11286845Y-11481367D01*
X11292333Y-11480000D01*
X11575027Y-11480000D01*
X11583300Y-11483427D01*
G37*
%TD.AperFunction*%
%TD*%
%TA.AperFunction,Conductor*%
%TO.N,/CP2102_VDD_3.3V*%
G36*
X6920599Y-2878117D02*
G01*
X6928037Y-2883100D01*
X6930000Y-2889588D01*
X6930000Y-3170411D01*
X6926573Y-3178684D01*
X6920597Y-3181883D01*
X6535062Y-3259089D01*
X6526277Y-3257354D01*
X6521973Y-3252135D01*
X6430889Y-3034515D01*
X6430857Y-3025563D01*
X6521973Y-2807863D01*
X6528327Y-2801556D01*
X6535059Y-2800910D01*
X6920599Y-2878117D01*
G37*
%TD.AperFunction*%
%TD*%
%TA.AperFunction,Conductor*%
%TO.N,/CP2102_VDD_3.3V*%
G36*
X29124144Y-11839038D02*
G01*
X29128599Y-11846806D01*
X29128695Y-11848285D01*
X29129674Y-12680140D01*
X29126257Y-12688417D01*
X29126240Y-12688434D01*
X28536099Y-13277594D01*
X28527823Y-13281014D01*
X28519553Y-13277580D01*
X28519377Y-13277400D01*
X27616710Y-12333392D01*
X27613466Y-12325306D01*
X27613466Y-12040290D01*
X27616893Y-12032017D01*
X27623671Y-12028686D01*
X29115504Y-11836695D01*
X29124144Y-11839038D01*
G37*
%TD.AperFunction*%
%TD*%
%TA.AperFunction,Conductor*%
%TO.N,/CP2102_VDD_3.3V*%
G36*
X20361726Y-12027466D02*
G01*
X20368633Y-12033165D01*
X20370000Y-12038653D01*
X20370000Y-12321346D01*
X20366573Y-12329619D01*
X20361726Y-12332533D01*
X19814079Y-12500252D01*
X19805165Y-12499398D01*
X19799855Y-12493571D01*
X19670880Y-12184506D01*
X19670857Y-12175551D01*
X19670880Y-12175494D01*
X19731596Y-12030000D01*
X19799855Y-11866427D01*
X19806204Y-11860113D01*
X19814077Y-11859747D01*
X20361726Y-12027466D01*
G37*
%TD.AperFunction*%
%TD*%
%TA.AperFunction,Conductor*%
%TO.N,/CP2102_VDD_3.3V*%
G36*
X19896053Y-6819944D02*
G01*
X19904312Y-6823404D01*
X19907706Y-6831691D01*
X19907520Y-6833720D01*
X19821738Y-7308393D01*
X19816895Y-7315924D01*
X19810225Y-7318011D01*
X19529350Y-7318011D01*
X19521077Y-7314584D01*
X19517938Y-7308891D01*
X19431196Y-6925251D01*
X19432714Y-6916426D01*
X19438089Y-6911879D01*
X19657812Y-6819915D01*
X19662371Y-6819009D01*
X19896053Y-6819944D01*
G37*
%TD.AperFunction*%
%TD*%
%TA.AperFunction,Conductor*%
%TO.N,/CP2102_VDD_3.3V*%
G36*
X19819620Y-11483427D02*
G01*
X19822534Y-11488274D01*
X19990252Y-12035920D01*
X19989398Y-12044834D01*
X19983571Y-12050144D01*
X19674506Y-12179119D01*
X19665551Y-12179142D01*
X19665494Y-12179119D01*
X19356428Y-12050144D01*
X19350113Y-12043795D01*
X19349747Y-12035922D01*
X19517466Y-11488273D01*
X19523165Y-11481367D01*
X19528653Y-11480000D01*
X19811347Y-11480000D01*
X19819620Y-11483427D01*
G37*
%TD.AperFunction*%
%TD*%
%TA.AperFunction,Conductor*%
%TO.N,/CP2102_VDD_3.3V*%
G36*
X12125406Y-12027466D02*
G01*
X12132313Y-12033165D01*
X12133680Y-12038653D01*
X12133680Y-12321346D01*
X12130253Y-12329619D01*
X12125406Y-12332533D01*
X11577759Y-12500252D01*
X11568845Y-12499398D01*
X11563535Y-12493571D01*
X11434560Y-12184506D01*
X11434537Y-12175551D01*
X11434560Y-12175494D01*
X11495276Y-12030000D01*
X11563535Y-11866427D01*
X11569884Y-11860113D01*
X11577757Y-11859747D01*
X12125406Y-12027466D01*
G37*
%TD.AperFunction*%
%TD*%
%TA.AperFunction,Conductor*%
%TO.N,/CP2102_VDD_3.3V*%
G36*
X19534834Y-11860601D02*
G01*
X19540144Y-11866428D01*
X19669119Y-12175494D01*
X19669142Y-12184449D01*
X19669119Y-12184506D01*
X19540144Y-12493571D01*
X19533795Y-12499886D01*
X19525920Y-12500252D01*
X18978274Y-12332533D01*
X18971367Y-12326834D01*
X18970000Y-12321346D01*
X18970000Y-12038653D01*
X18973427Y-12030380D01*
X18978274Y-12027466D01*
X19525921Y-11859747D01*
X19534834Y-11860601D01*
G37*
%TD.AperFunction*%
%TD*%
%TA.AperFunction,Conductor*%
%TO.N,Net-(USB2-CC2)*%
G36*
X5718684Y-11403427D02*
G01*
X5721883Y-11409403D01*
X5799089Y-11794937D01*
X5797354Y-11803722D01*
X5792134Y-11808027D01*
X5574517Y-11899109D01*
X5565563Y-11899142D01*
X5565483Y-11899109D01*
X5347865Y-11808027D01*
X5341556Y-11801672D01*
X5340910Y-11794939D01*
X5418117Y-11409403D01*
X5423101Y-11401963D01*
X5429589Y-11400000D01*
X5710411Y-11400000D01*
X5718684Y-11403427D01*
G37*
%TD.AperFunction*%
%TD*%
%TA.AperFunction,Conductor*%
%TO.N,Net-(USB2-CC2)*%
G36*
X6922135Y-6461973D02*
G01*
X6928443Y-6468328D01*
X6929089Y-6475062D01*
X6851883Y-6860597D01*
X6846899Y-6868037D01*
X6840411Y-6870000D01*
X6559589Y-6870000D01*
X6551316Y-6866573D01*
X6548117Y-6860597D01*
X6545326Y-6846662D01*
X6470910Y-6475060D01*
X6472645Y-6466277D01*
X6477862Y-6461974D01*
X6695484Y-6370889D01*
X6704436Y-6370857D01*
X6922135Y-6461973D01*
G37*
%TD.AperFunction*%
%TD*%
%TA.AperFunction,Conductor*%
%TO.N,/VBUS*%
G36*
X4454478Y-7760868D02*
G01*
X4764354Y-7890181D01*
X4770669Y-7896530D01*
X4771280Y-7903470D01*
X4652007Y-8450791D01*
X4646897Y-8458145D01*
X4640575Y-8460000D01*
X4259425Y-8460000D01*
X4251152Y-8456573D01*
X4247993Y-8450791D01*
X4128719Y-7903470D01*
X4130306Y-7894657D01*
X4135642Y-7890182D01*
X4445494Y-7760879D01*
X4454449Y-7760857D01*
X4454478Y-7760868D01*
G37*
%TD.AperFunction*%
%TD*%
%TA.AperFunction,Conductor*%
%TO.N,/VBUS*%
G36*
X4648848Y-11853427D02*
G01*
X4652007Y-11859209D01*
X4771280Y-12406529D01*
X4769693Y-12415342D01*
X4764354Y-12419818D01*
X4454506Y-12549119D01*
X4445551Y-12549142D01*
X4445494Y-12549119D01*
X4135645Y-12419818D01*
X4129330Y-12413469D01*
X4128719Y-12406529D01*
X4247993Y-11859209D01*
X4253103Y-11851855D01*
X4259425Y-11850000D01*
X4640575Y-11850000D01*
X4648848Y-11853427D01*
G37*
%TD.AperFunction*%
%TD*%
%TA.AperFunction,Conductor*%
%TO.N,/CP2102_CTS*%
G36*
X21904918Y-1474837D02*
G01*
X22491846Y-2063148D01*
X22495263Y-2071425D01*
X22492216Y-2079286D01*
X21589670Y-3070936D01*
X21581567Y-3074748D01*
X21573142Y-3071714D01*
X21572744Y-3071334D01*
X21442138Y-2940728D01*
X21439161Y-2935669D01*
X21189904Y-2063148D01*
X21116246Y-1805306D01*
X21117269Y-1796411D01*
X21123013Y-1791286D01*
X21892153Y-1472292D01*
X21901108Y-1472289D01*
X21904918Y-1474837D01*
G37*
%TD.AperFunction*%
%TD*%
%TA.AperFunction,Conductor*%
%TO.N,/CP2102_CTS*%
G36*
X17772758Y-6617641D02*
G01*
X17902157Y-6747040D01*
X17905584Y-6755313D01*
X17904223Y-6760789D01*
X17715933Y-7116298D01*
X17709033Y-7122005D01*
X17701157Y-7121648D01*
X17483824Y-7032564D01*
X17477468Y-7026255D01*
X17477435Y-7026175D01*
X17388481Y-6809160D01*
X17388514Y-6800206D01*
X17394161Y-6794215D01*
X17759342Y-6615405D01*
X17768277Y-6614846D01*
X17772758Y-6617641D01*
G37*
%TD.AperFunction*%
%TD*%
%TA.AperFunction,Conductor*%
%TO.N,/CP2102_RTS*%
G36*
X15755444Y-6523427D02*
G01*
X15758302Y-6528095D01*
X15883332Y-6914087D01*
X15882621Y-6923013D01*
X15876718Y-6928485D01*
X15660197Y-7019109D01*
X15651243Y-7019142D01*
X15651163Y-7019109D01*
X15434641Y-6928485D01*
X15428332Y-6922129D01*
X15428027Y-6914088D01*
X15553058Y-6528095D01*
X15558868Y-6521280D01*
X15564189Y-6520000D01*
X15747171Y-6520000D01*
X15755444Y-6523427D01*
G37*
%TD.AperFunction*%
%TD*%
%TA.AperFunction,Conductor*%
%TO.N,/CP2102_RTS*%
G36*
X18584962Y-1149501D02*
G01*
X19354895Y-1467438D01*
X19361232Y-1473761D01*
X19361242Y-1473785D01*
X19679177Y-2243714D01*
X19679168Y-2252669D01*
X19672829Y-2258994D01*
X19672076Y-2259275D01*
X18234175Y-2740494D01*
X18225242Y-2739870D01*
X18222189Y-2737672D01*
X18091007Y-2606490D01*
X18087580Y-2598217D01*
X18088183Y-2594510D01*
X18569405Y-1156601D01*
X18575279Y-1149845D01*
X18584212Y-1149221D01*
X18584962Y-1149501D01*
G37*
%TD.AperFunction*%
%TD*%
%TA.AperFunction,Conductor*%
%TO.N,/CP2102_USB_Data_P*%
G36*
X2794718Y-9991514D02*
G01*
X2801027Y-9997870D01*
X2801332Y-10005912D01*
X2676302Y-10391905D01*
X2670492Y-10398720D01*
X2665171Y-10400000D01*
X2482189Y-10400000D01*
X2473916Y-10396573D01*
X2471058Y-10391905D01*
X2346027Y-10005912D01*
X2346738Y-9996986D01*
X2352640Y-9991514D01*
X2569164Y-9900889D01*
X2578117Y-9900857D01*
X2794718Y-9991514D01*
G37*
%TD.AperFunction*%
%TD*%
%TA.AperFunction,Conductor*%
%TO.N,/CP2102_USB_Data_P*%
G36*
X2673444Y-10403427D02*
G01*
X2676302Y-10408095D01*
X2801332Y-10794087D01*
X2800621Y-10803013D01*
X2794718Y-10808485D01*
X2578197Y-10899109D01*
X2569243Y-10899142D01*
X2569163Y-10899109D01*
X2352641Y-10808485D01*
X2346332Y-10802129D01*
X2346027Y-10794088D01*
X2471058Y-10408095D01*
X2476868Y-10401280D01*
X2482189Y-10400000D01*
X2665171Y-10400000D01*
X2673444Y-10403427D01*
G37*
%TD.AperFunction*%
%TD*%
M02*
